<svg width="189" height="84" viewBox="0 0 189 84" fill="none" xmlns="http://www.w3.org/2000/svg">
<path d="M187.5 42C187.5 47.3109 185.084 52.4834 180.487 57.3142C175.882 62.1528 169.148 66.5784 160.712 70.3278C143.844 77.8248 120.436 82.5 94.5 82.5C68.5642 82.5 45.1558 77.8248 28.2876 70.3278C19.8516 66.5784 13.1176 62.1528 8.51287 57.3142C3.91551 52.4834 1.5 47.3109 1.5 42C1.5 36.6891 3.91551 31.5166 8.51287 26.6858C13.1176 21.8472 19.8516 17.4216 28.2876 13.6722C45.1558 6.17525 68.5642 1.5 94.5 1.5C120.436 1.5 143.844 6.17525 160.712 13.6722C169.148 17.4216 175.882 21.8472 180.487 26.6858C185.084 31.5166 187.5 36.6891 187.5 42Z" stroke="#28AA96" stroke-width="3"/>
</svg>
