<svg width="201" height="116" viewBox="0 0 201 116" fill="none" xmlns="http://www.w3.org/2000/svg">
<path d="M161.496 100.746C178.853 100.746 192.922 86.7052 192.922 69.3855C192.922 52.0658 178.853 38.0254 161.496 38.0254C144.14 38.0254 130.071 52.0658 130.071 69.3855C130.071 86.7052 144.14 100.746 161.496 100.746Z" fill="#2CBAA4"/>
<path d="M141.712 71.9028C142.492 70.9703 143.469 70.2203 144.571 69.7056C145.674 69.191 146.877 68.9242 148.094 68.9242C149.312 68.9242 150.514 69.191 151.617 69.7056C152.72 70.2203 153.696 70.9703 154.477 71.9028C155.812 70.6305 156.735 68.9883 157.127 67.1877C157.518 65.3872 157.361 63.5108 156.674 61.8005C155.987 60.0902 154.803 58.6244 153.274 57.5919C151.745 56.5594 149.941 56.0076 148.094 56.0076C146.248 56.0076 144.444 56.5594 142.915 57.5919C141.385 58.6244 140.201 60.0902 139.514 61.8005C138.828 63.5108 138.67 65.3872 139.062 67.1877C139.453 68.9883 140.376 70.6305 141.712 71.9028Z" fill="white"/>
<path d="M166.668 71.9028C167.448 70.9703 168.425 70.2203 169.527 69.7056C170.63 69.1909 171.833 68.9242 173.05 68.9242C174.268 68.9242 175.47 69.1909 176.573 69.7056C177.676 70.2203 178.652 70.9703 179.433 71.9028C180.768 70.6305 181.691 68.9883 182.083 67.1877C182.475 65.3872 182.317 63.5108 181.63 61.8005C180.943 60.0902 179.759 58.6244 178.23 57.5919C176.701 56.5594 174.897 56.0076 173.05 56.0076C171.204 56.0076 169.4 56.5594 167.871 57.5919C166.342 58.6244 165.157 60.0902 164.47 61.8005C163.784 63.5108 163.626 65.3872 164.018 67.1877C164.409 68.9883 165.332 70.6305 166.668 71.9028Z" fill="white"/>
<path d="M144.941 65.2634C146.697 65.2634 148.121 63.8428 148.121 62.0905C148.121 60.3382 146.697 58.9177 144.941 58.9177C143.185 58.9177 141.762 60.3382 141.762 62.0905C141.762 63.8428 143.185 65.2634 144.941 65.2634Z" fill="black"/>
<path d="M169.896 65.2634C171.652 65.2634 173.076 63.8428 173.076 62.0905C173.076 60.3382 171.652 58.9177 169.896 58.9177C168.14 58.9177 166.717 60.3382 166.717 62.0905C166.717 63.8428 168.14 65.2634 169.896 65.2634Z" fill="black"/>
<path d="M140.074 80.915C142.116 80.915 143.771 79.2632 143.771 77.2256C143.771 75.1879 142.116 73.5361 140.074 73.5361C138.032 73.5361 136.376 75.1879 136.376 77.2256C136.376 79.2632 138.032 80.915 140.074 80.915Z" fill="#EDAE1D"/>
<path d="M180.147 80.915C182.189 80.915 183.844 79.2632 183.844 77.2256C183.844 75.1879 182.189 73.5361 180.147 73.5361C178.105 73.5361 176.449 75.1879 176.449 77.2256C176.449 79.2632 178.105 80.915 180.147 80.915Z" fill="#EDAE1D"/>
<path d="M160.11 69.8464L157.337 81.8371L161.959 77.2254L160.11 69.8464Z" fill="#EDAE1D"/>
<path d="M174.358 115.964L171.21 113.328L171.283 115.964H170.305L170.227 113.176L165.977 115.964H164.198L170.196 112.03L169.963 103.769L169.79 97.53L170.765 97.5032L170.941 103.769L171.173 112.023L175.878 115.964H174.358Z" fill="#2CBAA4"/>
<path d="M159.568 115.964L156.42 113.328L156.493 115.964H155.518L155.44 113.176L151.19 115.964H149.41L155.406 112.03L155.174 103.769L155 97.53L155.978 97.5032L156.154 103.769L156.383 112.023L161.089 115.964H159.568Z" fill="#2CBAA4"/>
<path d="M161.959 35.7194C161.096 35.7194 160.336 36.3879 159.827 37.4145C159.379 35.8707 158.437 34.7971 157.337 34.7971C157.263 34.8045 157.188 34.8169 157.115 34.8343C156.693 33.186 155.71 32.03 154.564 32.03C153.033 32.03 151.792 34.0948 151.792 36.6418C151.792 39.1888 153.033 41.2536 154.564 41.2536C154.639 41.2462 154.713 41.2338 154.786 41.2164C155.209 42.8647 156.192 44.0207 157.337 44.0207C158.2 44.0207 158.96 43.3523 159.469 42.3256C159.917 43.8694 160.859 44.943 161.959 44.943C163.49 44.943 164.732 42.8782 164.732 40.3312C164.732 37.7842 163.49 35.7194 161.959 35.7194Z" fill="#28AA96"/>
<path d="M131.999 81.2695C130.785 81.2695 129.584 81.031 128.462 80.5674C127.341 80.1039 126.322 79.4245 125.464 78.568C124.605 77.7115 123.924 76.6947 123.46 75.5757C122.995 74.4566 122.756 73.2572 122.756 72.046V67.4342C122.756 64.9879 123.73 62.6419 125.464 60.9121C127.197 59.1824 129.548 58.2106 131.999 58.2106V81.2695Z" fill="#EDAE1D"/>
<path d="M190.994 58.2107C192.208 58.2107 193.41 58.4493 194.531 58.9128C195.652 59.3763 196.671 60.0557 197.53 60.9122C198.388 61.7687 199.069 62.7855 199.533 63.9045C199.998 65.0236 200.237 66.223 200.237 67.4342V72.046C200.237 73.2573 199.998 74.4567 199.533 75.5757C199.069 76.6948 198.388 77.7116 197.53 78.5681C196.671 79.4246 195.652 80.104 194.531 80.5675C193.41 81.031 192.208 81.2696 190.994 81.2696V58.2107H190.994Z" fill="#EDAE1D"/>
<path d="M195.837 68.1588H194.371C194.371 49.5992 179.24 34.4998 160.641 34.4998C142.042 34.4998 126.911 49.5992 126.911 68.1588H125.445C125.445 48.7922 141.234 33.0364 160.641 33.0364C180.048 33.0364 195.837 48.7922 195.837 68.1588Z" fill="#EDAE1D"/>
<rect x="0.65" y="0.65" width="100.7" height="52.7" rx="9.35" fill="#2CBAA4" fill-opacity="0.5" stroke="#2CBAA4" stroke-width="1.3"/>
<path d="M116.5 54.9999C106.5 49.9999 101.377 38.503 101.5 39.5C101.623 40.497 101 47.9998 100 48.9999C99.0001 50 126.5 59.9999 116.5 54.9999Z" fill="#2CBAA4" fill-opacity="0.5" stroke="#2CBAA4"/>
<path d="M19.6504 22.0059H22.7607C24.1781 22.0059 25.2057 22.2087 25.8438 22.6143C26.4863 23.0153 26.8076 23.6556 26.8076 24.5352C26.8076 25.1322 26.6663 25.6221 26.3838 26.0049C26.1058 26.3877 25.7344 26.6178 25.2695 26.6953V26.7637C25.903 26.9049 26.3587 27.1693 26.6367 27.5566C26.9193 27.944 27.0605 28.459 27.0605 29.1016C27.0605 30.013 26.7301 30.724 26.0693 31.2344C25.4131 31.7448 24.5199 32 23.3896 32H19.6504V22.0059ZM21.7695 25.9639H23C23.5742 25.9639 23.9889 25.875 24.2441 25.6973C24.5039 25.5195 24.6338 25.2256 24.6338 24.8154C24.6338 24.4326 24.4925 24.1592 24.21 23.9951C23.932 23.8265 23.4899 23.7422 22.8838 23.7422H21.7695V25.9639ZM21.7695 27.6455V30.25H23.1504C23.7337 30.25 24.1644 30.1383 24.4424 29.915C24.7204 29.6917 24.8594 29.3499 24.8594 28.8896C24.8594 28.0602 24.2669 27.6455 23.082 27.6455H21.7695ZM28.8037 22.3818C28.8037 21.7028 29.182 21.3633 29.9385 21.3633C30.695 21.3633 31.0732 21.7028 31.0732 22.3818C31.0732 22.7054 30.9775 22.9583 30.7861 23.1406C30.5993 23.3184 30.3167 23.4072 29.9385 23.4072C29.182 23.4072 28.8037 23.0654 28.8037 22.3818ZM30.9775 32H28.8926V24.3574H30.9775V32ZM36.3369 25.6973C35.8949 25.6973 35.5485 25.8385 35.2979 26.1211C35.0472 26.3991 34.9036 26.7956 34.8672 27.3105H37.793C37.7839 26.7956 37.6494 26.3991 37.3896 26.1211C37.1299 25.8385 36.779 25.6973 36.3369 25.6973ZM36.6309 32.1367C35.4004 32.1367 34.4388 31.7972 33.7461 31.1182C33.0534 30.4391 32.707 29.4775 32.707 28.2334C32.707 26.9528 33.026 25.9639 33.6641 25.2666C34.3066 24.5648 35.193 24.2139 36.3232 24.2139C37.4033 24.2139 38.2441 24.5215 38.8457 25.1367C39.4473 25.752 39.748 26.6019 39.748 27.6865V28.6982H34.8193C34.8421 29.2907 35.0176 29.7533 35.3457 30.0859C35.6738 30.4186 36.1341 30.585 36.7266 30.585C37.1868 30.585 37.6221 30.5371 38.0322 30.4414C38.4424 30.3457 38.8708 30.193 39.3174 29.9834V31.5967C38.9528 31.779 38.5632 31.9134 38.1484 32C37.7337 32.0911 37.2279 32.1367 36.6309 32.1367ZM48.498 32H46.4131V27.5361C46.4131 26.9847 46.3151 26.5723 46.1191 26.2988C45.9232 26.0208 45.611 25.8818 45.1826 25.8818C44.5993 25.8818 44.1777 26.0778 43.918 26.4697C43.6582 26.8571 43.5283 27.502 43.5283 28.4043V32H41.4434V24.3574H43.0361L43.3164 25.335H43.4326C43.665 24.9658 43.984 24.6878 44.3896 24.501C44.7998 24.3096 45.2646 24.2139 45.7842 24.2139C46.6729 24.2139 47.3473 24.4554 47.8076 24.9385C48.2679 25.417 48.498 26.1097 48.498 27.0166V32ZM53.666 35.3633C53.1328 35.3633 52.6748 35.3063 52.292 35.1924V33.5518C52.611 33.6383 52.9368 33.6816 53.2695 33.6816C53.6204 33.6816 53.8757 33.5837 54.0352 33.3877C54.1992 33.1917 54.2812 32.9023 54.2812 32.5195V24.3574H56.3662V32.8271C56.3662 33.6383 56.1315 34.2627 55.6621 34.7002C55.1927 35.1423 54.5273 35.3633 53.666 35.3633ZM54.1924 22.3818C54.1924 21.7028 54.5706 21.3633 55.3271 21.3633C56.0837 21.3633 56.4619 21.7028 56.4619 22.3818C56.4619 22.7054 56.3662 22.9583 56.1748 23.1406C55.988 23.3184 55.7054 23.4072 55.3271 23.4072C54.5706 23.4072 54.1924 23.0654 54.1924 22.3818ZM60.2217 28.165C60.2217 28.9215 60.3447 29.4935 60.5908 29.8809C60.8415 30.2682 61.2471 30.4619 61.8076 30.4619C62.3636 30.4619 62.7624 30.2705 63.0039 29.8877C63.25 29.5003 63.373 28.9261 63.373 28.165C63.373 27.4085 63.25 26.8411 63.0039 26.4629C62.7578 26.0846 62.3545 25.8955 61.7939 25.8955C61.238 25.8955 60.8369 26.0846 60.5908 26.4629C60.3447 26.8366 60.2217 27.404 60.2217 28.165ZM65.5059 28.165C65.5059 29.4092 65.1777 30.3822 64.5215 31.084C63.8652 31.7858 62.9515 32.1367 61.7803 32.1367C61.0465 32.1367 60.3994 31.9772 59.8389 31.6582C59.2783 31.3346 58.8477 30.8721 58.5469 30.2705C58.2461 29.6689 58.0957 28.9671 58.0957 28.165C58.0957 26.9163 58.4215 25.9456 59.0732 25.2529C59.7249 24.5602 60.641 24.2139 61.8213 24.2139C62.555 24.2139 63.2021 24.3734 63.7627 24.6924C64.3232 25.0114 64.7539 25.4694 65.0547 26.0664C65.3555 26.6634 65.5059 27.363 65.5059 28.165ZM72.6426 32L72.3623 31.0225H72.2529C72.0296 31.3779 71.7129 31.6536 71.3027 31.8496C70.8926 32.041 70.4255 32.1367 69.9014 32.1367C69.0036 32.1367 68.3268 31.8975 67.8711 31.4189C67.4154 30.9359 67.1875 30.2432 67.1875 29.3408V24.3574H69.2725V28.8213C69.2725 29.3727 69.3704 29.7874 69.5664 30.0654C69.7624 30.3389 70.0745 30.4756 70.5029 30.4756C71.0863 30.4756 71.5078 30.2819 71.7676 29.8945C72.0273 29.5026 72.1572 28.8555 72.1572 27.9531V24.3574H74.2422V32H72.6426ZM79.5947 25.6973C79.1527 25.6973 78.8063 25.8385 78.5557 26.1211C78.305 26.3991 78.1615 26.7956 78.125 27.3105H81.0508C81.0417 26.7956 80.9072 26.3991 80.6475 26.1211C80.3877 25.8385 80.0368 25.6973 79.5947 25.6973ZM79.8887 32.1367C78.6582 32.1367 77.6966 31.7972 77.0039 31.1182C76.3112 30.4391 75.9648 29.4775 75.9648 28.2334C75.9648 26.9528 76.2839 25.9639 76.9219 25.2666C77.5645 24.5648 78.4508 24.2139 79.5811 24.2139C80.6611 24.2139 81.502 24.5215 82.1035 25.1367C82.7051 25.752 83.0059 26.6019 83.0059 27.6865V28.6982H78.0771C78.0999 29.2907 78.2754 29.7533 78.6035 30.0859C78.9316 30.4186 79.3919 30.585 79.9844 30.585C80.4447 30.585 80.8799 30.5371 81.29 30.4414C81.7002 30.3457 82.1286 30.193 82.5752 29.9834V31.5967C82.2106 31.779 81.821 31.9134 81.4062 32C80.9915 32.0911 80.4857 32.1367 79.8887 32.1367ZM78.3916 23.5166V23.332C79.1755 22.4206 79.7109 21.7347 79.998 21.2744H82.3359V21.418C82.099 21.6549 81.6934 22.0081 81.1191 22.4775C80.5495 22.9424 80.1029 23.2887 79.7793 23.5166H78.3916Z" fill="#28AA96"/>
</svg>
