<svg width="65" height="69" viewBox="0 0 65 69" fill="none" xmlns="http://www.w3.org/2000/svg">
<path d="M32.4972 56.4696C46.6976 56.4696 58.2093 44.9364 58.2093 30.7095C58.2093 16.4826 46.6976 4.94937 32.4972 4.94937C18.2968 4.94937 6.78506 16.4826 6.78506 30.7095C6.78506 44.9364 18.2968 56.4696 32.4972 56.4696Z" fill="#2CBAA4"/>
<g filter="url(#filter0_i)">
<path d="M16.3098 32.7773C16.9484 32.0114 17.747 31.3953 18.6494 30.9725C19.5517 30.5498 20.5356 30.3306 21.5317 30.3306C22.5278 30.3306 23.5118 30.5498 24.4141 30.9725C25.3164 31.3953 26.1151 32.0114 26.7536 32.7773C27.8463 31.7323 28.6016 30.3833 28.922 28.9042C29.2425 27.4252 29.1134 25.8839 28.5516 24.4791C27.9897 23.0742 27.0207 21.8701 25.7696 21.0219C24.5184 20.1738 23.0424 19.7206 21.5317 19.7206C20.0211 19.7206 18.5451 20.1738 17.2939 21.0219C16.0427 21.8701 15.0738 23.0742 14.5119 24.4791C13.95 25.8839 13.821 27.4252 14.1414 28.9042C14.4619 30.3833 15.2171 31.7323 16.3098 32.7773Z" fill="white"/>
</g>
<g filter="url(#filter1_i)">
<path d="M36.7282 32.7773C37.3668 32.0114 38.1655 31.3953 39.0678 30.9726C39.9701 30.5498 40.954 30.3307 41.9502 30.3307C42.9463 30.3307 43.9302 30.5498 44.8325 30.9726C45.7348 31.3953 46.5335 32.0114 47.1721 32.7773C48.2647 31.7323 49.02 30.3833 49.3404 28.9043C49.6609 27.4253 49.5319 25.884 48.97 24.4791C48.4081 23.0742 47.4392 21.8701 46.188 21.022C44.9368 20.1739 43.4608 19.7206 41.9502 19.7206C40.4395 19.7206 38.9635 20.1739 37.7123 21.022C36.4611 21.8701 35.4922 23.0742 34.9303 24.4791C34.3684 25.884 34.2394 27.4253 34.5599 28.9043C34.8803 30.3833 35.6356 31.7323 36.7282 32.7773Z" fill="white"/>
</g>
<path d="M18.9519 27.3234C20.3886 27.3234 21.5533 26.1566 21.5533 24.7172C21.5533 23.2778 20.3886 22.1109 18.9519 22.1109C17.5152 22.1109 16.3506 23.2778 16.3506 24.7172C16.3506 26.1566 17.5152 27.3234 18.9519 27.3234Z" fill="black"/>
<path d="M39.3697 27.3234C40.8064 27.3234 41.971 26.1566 41.971 24.7172C41.971 23.2778 40.8064 22.1109 39.3697 22.1109C37.933 22.1109 36.7683 23.2778 36.7683 24.7172C36.7683 26.1566 37.933 27.3234 39.3697 27.3234Z" fill="black"/>
<path d="M14.9693 40.1801C16.64 40.1801 17.9943 38.8232 17.9943 37.1495C17.9943 35.4757 16.64 34.1189 14.9693 34.1189C13.2987 34.1189 11.9444 35.4757 11.9444 37.1495C11.9444 38.8232 13.2987 40.1801 14.9693 40.1801Z" fill="#EDAE1D"/>
<path d="M47.7563 40.1801C49.4269 40.1801 50.7813 38.8232 50.7813 37.1495C50.7813 35.4757 49.4269 34.1189 47.7563 34.1189C46.0857 34.1189 44.7314 35.4757 44.7314 37.1495C44.7314 38.8232 46.0857 40.1801 47.7563 40.1801Z" fill="#EDAE1D"/>
<path d="M31.3628 31.0882L29.0941 40.9377L32.8752 37.1495L31.3628 31.0882Z" fill="#EDAE1D"/>
<path d="M43.0201 68.9709L40.4443 66.805L40.5044 68.9709H39.7044L39.6405 66.6807L36.1628 68.9709H34.707L39.6145 65.7392L39.4244 58.9532L39.2824 53.8283L40.0804 53.8063L40.2244 58.9532L40.4143 65.7331L44.2638 68.9709H43.0201Z" fill="#2CBAA4"/>
<path d="M30.9193 68.9709L28.3436 66.805L28.4036 68.9709H27.6058L27.5417 66.6807L24.0641 68.9709H22.6082L27.5137 65.7392L27.3238 58.9532L27.1818 53.8283L27.9816 53.8063L28.1256 58.9532L28.3136 65.7331L32.1632 68.9709H30.9193Z" fill="#2CBAA4"/>
<path d="M32.8753 3.05522C32.1698 3.05522 31.5474 3.60427 31.1313 4.44761C30.7645 3.17948 29.994 2.29758 29.0941 2.29758C29.0329 2.30367 28.9723 2.31388 28.9125 2.32815C28.5666 0.974187 27.7627 0.0246277 26.8254 0.0246277C25.5724 0.0246277 24.5567 1.7207 24.5567 3.81288C24.5567 5.90507 25.5724 7.60113 26.8254 7.60113C26.8865 7.59504 26.9472 7.58483 27.007 7.57056C27.3529 8.92452 28.1568 9.87408 29.0941 9.87408C29.7996 9.87408 30.422 9.32503 30.8381 8.48169C31.2049 9.74982 31.9754 10.6317 32.8753 10.6317C34.1283 10.6317 35.144 8.93565 35.144 6.84347C35.144 4.75128 34.1283 3.05522 32.8753 3.05522Z" fill="#28AA96"/>
<path d="M8.36304 40.4714C7.36993 40.4714 6.38655 40.2754 5.46904 39.8947C4.55153 39.5139 3.71785 38.9558 3.01562 38.2523C2.31339 37.5488 1.75635 36.7135 1.3763 35.7943C0.996256 34.8751 0.800653 33.8899 0.800653 32.8949L0.800653 29.1066C0.800653 27.0972 1.5974 25.1701 3.01562 23.7492C4.43384 22.3284 6.35737 21.5301 8.36304 21.5301L8.36304 40.4714Z" fill="#EDAE1D"/>
<path d="M56.6313 21.5302C57.6244 21.5302 58.6078 21.7261 59.5253 22.1069C60.4428 22.4876 61.2765 23.0457 61.9787 23.7492C62.681 24.4528 63.238 25.288 63.6181 26.2072C63.9981 27.1265 64.1937 28.1117 64.1937 29.1066V32.8949C64.1937 33.8899 63.9981 34.8751 63.6181 35.7943C63.238 36.7135 62.681 37.5487 61.9787 38.2523C61.2765 38.9558 60.4428 39.5139 59.5253 39.8947C58.6078 40.2754 57.6244 40.4714 56.6313 40.4714V21.5302H56.6313Z" fill="#EDAE1D"/>
<path d="M60.5941 29.7019H59.3942C59.3942 14.4566 47.0143 2.05349 31.7972 2.05349C16.5803 2.05349 4.20027 14.4566 4.20027 29.7019H3.0004C3.0004 13.7937 15.9186 0.851379 31.7972 0.851379C47.676 0.851379 60.5941 13.7937 60.5941 29.7019Z" fill="#EDAE1D"/>
<defs>
<filter id="filter0_i" x="13.9693" y="19.7206" width="15.1248" height="17.0568" filterUnits="userSpaceOnUse" color-interpolation-filters="sRGB">
<feFlood flood-opacity="0" result="BackgroundImageFix"/>
<feBlend mode="normal" in="SourceGraphic" in2="BackgroundImageFix" result="shape"/>
<feColorMatrix in="SourceAlpha" type="matrix" values="0 0 0 0 0 0 0 0 0 0 0 0 0 0 0 0 0 0 127 0" result="hardAlpha"/>
<feOffset dy="4"/>
<feGaussianBlur stdDeviation="2"/>
<feComposite in2="hardAlpha" operator="arithmetic" k2="-1" k3="1"/>
<feColorMatrix type="matrix" values="0 0 0 0 0 0 0 0 0 0 0 0 0 0 0 0 0 0 0.25 0"/>
<feBlend mode="normal" in2="shape" result="effect1_innerShadow"/>
</filter>
<filter id="filter1_i" x="34.3878" y="19.7206" width="15.1248" height="17.0568" filterUnits="userSpaceOnUse" color-interpolation-filters="sRGB">
<feFlood flood-opacity="0" result="BackgroundImageFix"/>
<feBlend mode="normal" in="SourceGraphic" in2="BackgroundImageFix" result="shape"/>
<feColorMatrix in="SourceAlpha" type="matrix" values="0 0 0 0 0 0 0 0 0 0 0 0 0 0 0 0 0 0 127 0" result="hardAlpha"/>
<feOffset dy="4"/>
<feGaussianBlur stdDeviation="2"/>
<feComposite in2="hardAlpha" operator="arithmetic" k2="-1" k3="1"/>
<feColorMatrix type="matrix" values="0 0 0 0 0 0 0 0 0 0 0 0 0 0 0 0 0 0 0.25 0"/>
<feBlend mode="normal" in2="shape" result="effect1_innerShadow"/>
</filter>
</defs>
</svg>
