<svg width="339" height="190" viewBox="0 0 339 190" fill="none" xmlns="http://www.w3.org/2000/svg">
<path d="M14.3906 7.44922C14.3906 7.95703 14.207 8.35547 13.8398 8.64453C13.4727 8.93359 12.9661 9.07812 12.3203 9.07812C11.6745 9.07812 11.1458 8.97786 10.7344 8.77734V7.89453C10.9948 8.01693 11.2708 8.11328 11.5625 8.18359C11.8568 8.25391 12.1302 8.28906 12.3828 8.28906C12.7526 8.28906 13.0247 8.21875 13.1992 8.07812C13.3763 7.9375 13.4648 7.7487 13.4648 7.51172C13.4648 7.29818 13.3841 7.11719 13.2227 6.96875C13.0612 6.82031 12.7279 6.64453 12.2227 6.44141C11.7018 6.23047 11.3346 5.98958 11.1211 5.71875C10.9076 5.44792 10.8008 5.1224 10.8008 4.74219C10.8008 4.26562 10.9701 3.89062 11.3086 3.61719C11.6471 3.34375 12.1016 3.20703 12.6719 3.20703C13.2188 3.20703 13.763 3.32682 14.3047 3.56641L14.0078 4.32812C13.5 4.11458 13.0469 4.00781 12.6484 4.00781C12.3464 4.00781 12.1172 4.07422 11.9609 4.20703C11.8047 4.33724 11.7266 4.51042 11.7266 4.72656C11.7266 4.875 11.7578 5.0026 11.8203 5.10938C11.8828 5.21354 11.9857 5.3125 12.1289 5.40625C12.2721 5.5 12.5299 5.6237 12.9023 5.77734C13.3216 5.95182 13.6289 6.11458 13.8242 6.26562C14.0195 6.41667 14.1628 6.58724 14.2539 6.77734C14.3451 6.96745 14.3906 7.19141 14.3906 7.44922ZM17.1406 9.07812C16.487 9.07812 15.9896 8.88802 15.6484 8.50781C15.3099 8.125 15.1406 7.57682 15.1406 6.86328C15.1406 6.13672 15.3177 5.57812 15.6719 5.1875C16.0286 4.79688 16.543 4.60156 17.2148 4.60156C17.6706 4.60156 18.0807 4.6862 18.4453 4.85547L18.168 5.59375C17.7799 5.44271 17.4596 5.36719 17.207 5.36719C16.4596 5.36719 16.0859 5.86328 16.0859 6.85547C16.0859 7.33984 16.1784 7.70443 16.3633 7.94922C16.5508 8.19141 16.8242 8.3125 17.1836 8.3125C17.5924 8.3125 17.9792 8.21094 18.3438 8.00781V8.80859C18.1797 8.90495 18.0039 8.97396 17.8164 9.01562C17.6315 9.05729 17.4062 9.07812 17.1406 9.07812ZM23.1914 6.83203C23.1914 7.53776 23.0104 8.08854 22.6484 8.48438C22.2865 8.88021 21.7826 9.07812 21.1367 9.07812C20.7331 9.07812 20.3763 8.98698 20.0664 8.80469C19.7565 8.6224 19.5182 8.36068 19.3516 8.01953C19.1849 7.67839 19.1016 7.28255 19.1016 6.83203C19.1016 6.13151 19.2812 5.58464 19.6406 5.19141C20 4.79818 20.5065 4.60156 21.1602 4.60156C21.7852 4.60156 22.2799 4.80339 22.6445 5.20703C23.0091 5.60807 23.1914 6.14974 23.1914 6.83203ZM20.0469 6.83203C20.0469 7.82943 20.4154 8.32812 21.1523 8.32812C21.8815 8.32812 22.2461 7.82943 22.2461 6.83203C22.2461 5.84505 21.8789 5.35156 21.1445 5.35156C20.7591 5.35156 20.4792 5.47917 20.3047 5.73438C20.1328 5.98958 20.0469 6.35547 20.0469 6.83203ZM26.4414 4.60156C26.6263 4.60156 26.7786 4.61458 26.8984 4.64062L26.8086 5.49609C26.6784 5.46484 26.543 5.44922 26.4023 5.44922C26.0352 5.44922 25.737 5.56901 25.5078 5.80859C25.2812 6.04818 25.168 6.35938 25.168 6.74219V9H24.25V4.67969H24.9688L25.0898 5.44141H25.1367C25.2799 5.18359 25.4661 4.97917 25.6953 4.82812C25.9271 4.67708 26.1758 4.60156 26.4414 4.60156ZM29.5898 9.07812C28.918 9.07812 28.3919 8.88281 28.0117 8.49219C27.6341 8.09896 27.4453 7.55859 27.4453 6.87109C27.4453 6.16536 27.6211 5.61068 27.9727 5.20703C28.3242 4.80339 28.8073 4.60156 29.4219 4.60156C29.9922 4.60156 30.4427 4.77474 30.7734 5.12109C31.1042 5.46745 31.2695 5.94401 31.2695 6.55078V7.04688H28.3906C28.4036 7.46615 28.5169 7.78906 28.7305 8.01562C28.944 8.23958 29.2448 8.35156 29.6328 8.35156C29.888 8.35156 30.125 8.32812 30.3438 8.28125C30.5651 8.23177 30.8021 8.15104 31.0547 8.03906V8.78516C30.8307 8.89193 30.6042 8.96745 30.375 9.01172C30.1458 9.05599 29.8841 9.07812 29.5898 9.07812ZM29.4219 5.29688C29.1302 5.29688 28.8958 5.38932 28.7188 5.57422C28.5443 5.75911 28.4401 6.02865 28.4062 6.38281H30.3672C30.362 6.02604 30.276 5.75651 30.1094 5.57422C29.9427 5.38932 29.7135 5.29688 29.4219 5.29688Z" fill="black"/>
<path d="M287.324 187L286.754 185.414H284.57L284.012 187H283.027L285.164 181.266H286.18L288.316 187H287.324ZM286.508 184.609L285.973 183.055C285.934 182.951 285.879 182.786 285.809 182.562C285.741 182.339 285.694 182.174 285.668 182.07C285.598 182.391 285.495 182.741 285.359 183.121L284.844 184.609H286.508ZM292.02 187L291.891 186.434H291.844C291.716 186.634 291.534 186.792 291.297 186.906C291.062 187.021 290.794 187.078 290.492 187.078C289.969 187.078 289.578 186.948 289.32 186.688C289.062 186.427 288.934 186.033 288.934 185.504V182.68H289.859V185.344C289.859 185.674 289.927 185.923 290.062 186.09C290.198 186.254 290.41 186.336 290.699 186.336C291.085 186.336 291.367 186.221 291.547 185.992C291.729 185.76 291.82 185.374 291.82 184.832V182.68H292.742V187H292.02ZM293.609 188.922C293.333 188.922 293.104 188.889 292.922 188.824V188.098C293.099 188.145 293.28 188.168 293.465 188.168C293.855 188.168 294.051 187.947 294.051 187.504V182.68H294.969V187.566C294.969 188.012 294.852 188.349 294.617 188.578C294.385 188.807 294.049 188.922 293.609 188.922ZM293.996 181.535C293.996 181.371 294.04 181.245 294.129 181.156C294.22 181.068 294.349 181.023 294.516 181.023C294.677 181.023 294.802 181.068 294.891 181.156C294.982 181.245 295.027 181.371 295.027 181.535C295.027 181.691 294.982 181.815 294.891 181.906C294.802 181.995 294.677 182.039 294.516 182.039C294.349 182.039 294.22 181.995 294.129 181.906C294.04 181.815 293.996 181.691 293.996 181.535ZM300.117 184.832C300.117 185.538 299.936 186.089 299.574 186.484C299.212 186.88 298.708 187.078 298.062 187.078C297.659 187.078 297.302 186.987 296.992 186.805C296.682 186.622 296.444 186.361 296.277 186.02C296.111 185.678 296.027 185.283 296.027 184.832C296.027 184.132 296.207 183.585 296.566 183.191C296.926 182.798 297.432 182.602 298.086 182.602C298.711 182.602 299.206 182.803 299.57 183.207C299.935 183.608 300.117 184.15 300.117 184.832ZM296.973 184.832C296.973 185.829 297.341 186.328 298.078 186.328C298.807 186.328 299.172 185.829 299.172 184.832C299.172 183.845 298.805 183.352 298.07 183.352C297.685 183.352 297.405 183.479 297.23 183.734C297.059 183.99 296.973 184.355 296.973 184.832ZM304.223 187L304.094 186.434H304.047C303.919 186.634 303.737 186.792 303.5 186.906C303.266 187.021 302.997 187.078 302.695 187.078C302.172 187.078 301.781 186.948 301.523 186.688C301.266 186.427 301.137 186.033 301.137 185.504V182.68H302.062V185.344C302.062 185.674 302.13 185.923 302.266 186.09C302.401 186.254 302.613 186.336 302.902 186.336C303.288 186.336 303.57 186.221 303.75 185.992C303.932 185.76 304.023 185.374 304.023 184.832V182.68H304.945V187H304.223ZM308.445 182.602C308.63 182.602 308.783 182.615 308.902 182.641L308.812 183.496C308.682 183.465 308.547 183.449 308.406 183.449C308.039 183.449 307.741 183.569 307.512 183.809C307.285 184.048 307.172 184.359 307.172 184.742V187H306.254V182.68H306.973L307.094 183.441H307.141C307.284 183.184 307.47 182.979 307.699 182.828C307.931 182.677 308.18 182.602 308.445 182.602ZM311.164 187.078C310.625 187.078 310.204 186.883 309.902 186.492C309.6 186.102 309.449 185.553 309.449 184.848C309.449 184.139 309.602 183.589 309.906 183.195C310.214 182.799 310.638 182.602 311.18 182.602C311.747 182.602 312.18 182.811 312.477 183.23H312.523C312.479 182.921 312.457 182.676 312.457 182.496V180.922H313.379V187H312.66L312.5 186.434H312.457C312.163 186.863 311.732 187.078 311.164 187.078ZM311.41 186.336C311.788 186.336 312.062 186.23 312.234 186.02C312.406 185.806 312.495 185.461 312.5 184.984V184.855C312.5 184.311 312.411 183.924 312.234 183.695C312.057 183.466 311.78 183.352 311.402 183.352C311.079 183.352 310.831 183.483 310.656 183.746C310.482 184.007 310.395 184.379 310.395 184.863C310.395 185.342 310.479 185.708 310.648 185.961C310.818 186.211 311.072 186.336 311.41 186.336ZM315.426 181.289L315.484 181.375C315.346 181.919 315.117 182.543 314.797 183.246H314.133C314.312 182.493 314.443 181.841 314.523 181.289H315.426ZM320.039 187H319.117V184.344C319.117 184.01 319.049 183.762 318.914 183.598C318.781 183.434 318.569 183.352 318.277 183.352C317.892 183.352 317.608 183.467 317.426 183.699C317.246 183.928 317.156 184.314 317.156 184.855V187H316.238V180.922H317.156V182.465C317.156 182.712 317.141 182.977 317.109 183.258H317.168C317.293 183.049 317.466 182.888 317.688 182.773C317.911 182.659 318.172 182.602 318.469 182.602C319.516 182.602 320.039 183.129 320.039 184.184V187ZM324.363 187L324.234 186.434H324.188C324.06 186.634 323.878 186.792 323.641 186.906C323.406 187.021 323.138 187.078 322.836 187.078C322.312 187.078 321.922 186.948 321.664 186.688C321.406 186.427 321.277 186.033 321.277 185.504V182.68H322.203V185.344C322.203 185.674 322.271 185.923 322.406 186.09C322.542 186.254 322.754 186.336 323.043 186.336C323.428 186.336 323.711 186.221 323.891 185.992C324.073 185.76 324.164 185.374 324.164 184.832V182.68H325.086V187H324.363ZM327.312 187H326.395V182.68H327.312V187ZM326.34 181.535C326.34 181.371 326.384 181.245 326.473 181.156C326.564 181.068 326.693 181.023 326.859 181.023C327.021 181.023 327.146 181.068 327.234 181.156C327.326 181.245 327.371 181.371 327.371 181.535C327.371 181.691 327.326 181.815 327.234 181.906C327.146 181.995 327.021 182.039 326.859 182.039C326.693 182.039 326.564 181.995 326.473 181.906C326.384 181.815 326.34 181.691 326.34 181.535Z" fill="black"/>
<path d="M3.14062 188H2.22266V184.312C2.22266 183.872 2.23307 183.523 2.25391 183.266C2.19401 183.328 2.11979 183.397 2.03125 183.473C1.94531 183.548 1.65365 183.788 1.15625 184.191L0.695312 183.609L2.375 182.289H3.14062V188ZM5.03125 185.566C5.03125 183.332 5.94141 182.215 7.76172 182.215C8.04818 182.215 8.29036 182.237 8.48828 182.281V183.047C8.29036 182.99 8.0612 182.961 7.80078 182.961C7.1888 182.961 6.72917 183.125 6.42188 183.453C6.11458 183.781 5.94792 184.307 5.92188 185.031H5.96875C6.09115 184.82 6.26302 184.658 6.48438 184.543C6.70573 184.426 6.96615 184.367 7.26562 184.367C7.78385 184.367 8.1875 184.526 8.47656 184.844C8.76562 185.161 8.91016 185.592 8.91016 186.137C8.91016 186.736 8.74219 187.21 8.40625 187.559C8.07292 187.905 7.61719 188.078 7.03906 188.078C6.63021 188.078 6.27474 187.98 5.97266 187.785C5.67057 187.587 5.4375 187.301 5.27344 186.926C5.11198 186.548 5.03125 186.095 5.03125 185.566ZM7.02344 187.32C7.33854 187.32 7.58073 187.219 7.75 187.016C7.92188 186.812 8.00781 186.522 8.00781 186.145C8.00781 185.816 7.92708 185.559 7.76562 185.371C7.60677 185.184 7.36719 185.09 7.04688 185.09C6.84896 185.09 6.66667 185.133 6.5 185.219C6.33333 185.302 6.20182 185.418 6.10547 185.566C6.00911 185.712 5.96094 185.862 5.96094 186.016C5.96094 186.383 6.0599 186.693 6.25781 186.945C6.45833 187.195 6.71354 187.32 7.02344 187.32ZM12.2891 182.289L10.1641 188H9.29688L11.4258 182.289H12.2891ZM16.582 185.145C16.582 186.137 16.4219 186.874 16.1016 187.355C15.7839 187.837 15.2969 188.078 14.6406 188.078C14.0052 188.078 13.5234 187.829 13.1953 187.332C12.8672 186.835 12.7031 186.105 12.7031 185.145C12.7031 184.137 12.862 183.395 13.1797 182.918C13.5 182.439 13.987 182.199 14.6406 182.199C15.2786 182.199 15.7617 182.449 16.0898 182.949C16.418 183.449 16.582 184.181 16.582 185.145ZM13.6328 185.145C13.6328 185.923 13.7122 186.479 13.8711 186.812C14.0326 187.146 14.2891 187.312 14.6406 187.312C14.9922 187.312 15.2487 187.143 15.4102 186.805C15.5742 186.466 15.6562 185.913 15.6562 185.145C15.6562 184.379 15.5742 183.826 15.4102 183.484C15.2487 183.141 14.9922 182.969 14.6406 182.969C14.2891 182.969 14.0326 183.137 13.8711 183.473C13.7122 183.809 13.6328 184.366 13.6328 185.145ZM20.9375 183.602C20.9375 183.964 20.832 184.266 20.6211 184.508C20.4102 184.747 20.1133 184.909 19.7305 184.992V185.023C20.1888 185.081 20.5326 185.224 20.7617 185.453C20.9909 185.68 21.1055 185.982 21.1055 186.359C21.1055 186.909 20.9115 187.333 20.5234 187.633C20.1354 187.93 19.5833 188.078 18.8672 188.078C18.2344 188.078 17.7005 187.975 17.2656 187.77V186.953C17.5078 187.073 17.7643 187.165 18.0352 187.23C18.306 187.296 18.5664 187.328 18.8164 187.328C19.2591 187.328 19.5898 187.246 19.8086 187.082C20.0273 186.918 20.1367 186.664 20.1367 186.32C20.1367 186.016 20.0156 185.792 19.7734 185.648C19.5312 185.505 19.151 185.434 18.6328 185.434H18.1367V184.688H18.6406C19.5521 184.688 20.0078 184.372 20.0078 183.742C20.0078 183.497 19.9284 183.309 19.7695 183.176C19.6107 183.043 19.3763 182.977 19.0664 182.977C18.8503 182.977 18.6419 183.008 18.4414 183.07C18.2409 183.13 18.0039 183.249 17.7305 183.426L17.2812 182.785C17.8047 182.4 18.4128 182.207 19.1055 182.207C19.681 182.207 20.1302 182.331 20.4531 182.578C20.776 182.826 20.9375 183.167 20.9375 183.602ZM24.5547 182.289L22.4297 188H21.5625L23.6914 182.289H24.5547ZM28.8477 188H24.9766V187.305L26.4492 185.824C26.8841 185.379 27.1719 185.064 27.3125 184.879C27.4557 184.691 27.5599 184.516 27.625 184.352C27.6901 184.188 27.7227 184.012 27.7227 183.824C27.7227 183.566 27.6445 183.363 27.4883 183.215C27.3346 183.066 27.1211 182.992 26.8477 182.992C26.6289 182.992 26.4167 183.033 26.2109 183.113C26.0078 183.194 25.7721 183.34 25.5039 183.551L25.0078 182.945C25.3255 182.677 25.6341 182.487 25.9336 182.375C26.2331 182.263 26.5521 182.207 26.8906 182.207C27.4219 182.207 27.8477 182.346 28.168 182.625C28.4883 182.901 28.6484 183.273 28.6484 183.742C28.6484 184 28.6016 184.245 28.5078 184.477C28.4167 184.708 28.2747 184.948 28.082 185.195C27.8919 185.44 27.5742 185.772 27.1289 186.191L26.1367 187.152V187.191H28.8477V188ZM33.418 185.145C33.418 186.137 33.2578 186.874 32.9375 187.355C32.6198 187.837 32.1328 188.078 31.4766 188.078C30.8411 188.078 30.3594 187.829 30.0312 187.332C29.7031 186.835 29.5391 186.105 29.5391 185.145C29.5391 184.137 29.6979 183.395 30.0156 182.918C30.3359 182.439 30.8229 182.199 31.4766 182.199C32.1146 182.199 32.5977 182.449 32.9258 182.949C33.2539 183.449 33.418 184.181 33.418 185.145ZM30.4688 185.145C30.4688 185.923 30.5482 186.479 30.707 186.812C30.8685 187.146 31.125 187.312 31.4766 187.312C31.8281 187.312 32.0846 187.143 32.2461 186.805C32.4102 186.466 32.4922 185.913 32.4922 185.145C32.4922 184.379 32.4102 183.826 32.2461 183.484C32.0846 183.141 31.8281 182.969 31.4766 182.969C31.125 182.969 30.8685 183.137 30.707 183.473C30.5482 183.809 30.4688 184.366 30.4688 185.145ZM37.9883 188H34.1172V187.305L35.5898 185.824C36.0247 185.379 36.3125 185.064 36.4531 184.879C36.5964 184.691 36.7005 184.516 36.7656 184.352C36.8307 184.188 36.8633 184.012 36.8633 183.824C36.8633 183.566 36.7852 183.363 36.6289 183.215C36.4753 183.066 36.2617 182.992 35.9883 182.992C35.7695 182.992 35.5573 183.033 35.3516 183.113C35.1484 183.194 34.9128 183.34 34.6445 183.551L34.1484 182.945C34.4661 182.677 34.7747 182.487 35.0742 182.375C35.3737 182.263 35.6927 182.207 36.0312 182.207C36.5625 182.207 36.9883 182.346 37.3086 182.625C37.6289 182.901 37.7891 183.273 37.7891 183.742C37.7891 184 37.7422 184.245 37.6484 184.477C37.5573 184.708 37.4154 184.948 37.2227 185.195C37.0326 185.44 36.7148 185.772 36.2695 186.191L35.2773 187.152V187.191H37.9883V188ZM41.3828 188H40.4648V184.312C40.4648 183.872 40.4753 183.523 40.4961 183.266C40.4362 183.328 40.362 183.397 40.2734 183.473C40.1875 183.548 39.8958 183.788 39.3984 184.191L38.9375 183.609L40.6172 182.289H41.3828V188Z" fill="black"/>
<path d="M8.47656 48H7.55859V44.3125C7.55859 43.8724 7.56901 43.5234 7.58984 43.2656C7.52995 43.3281 7.45573 43.3971 7.36719 43.4727C7.28125 43.5482 6.98958 43.7878 6.49219 44.1914L6.03125 43.6094L7.71094 42.2891H8.47656V48ZM14.2227 45.1445C14.2227 46.1367 14.0625 46.8737 13.7422 47.3555C13.4245 47.8372 12.9375 48.0781 12.2812 48.0781C11.6458 48.0781 11.1641 47.8294 10.8359 47.332C10.5078 46.8346 10.3438 46.1055 10.3438 45.1445C10.3438 44.1367 10.5026 43.3945 10.8203 42.918C11.1406 42.4388 11.6276 42.1992 12.2812 42.1992C12.9193 42.1992 13.4023 42.4492 13.7305 42.9492C14.0586 43.4492 14.2227 44.181 14.2227 45.1445ZM11.2734 45.1445C11.2734 45.9232 11.3529 46.4792 11.5117 46.8125C11.6732 47.1458 11.9297 47.3125 12.2812 47.3125C12.6328 47.3125 12.8893 47.1432 13.0508 46.8047C13.2148 46.4661 13.2969 45.9128 13.2969 45.1445C13.2969 44.3789 13.2148 43.8255 13.0508 43.4844C12.8893 43.1406 12.6328 42.9688 12.2812 42.9688C11.9297 42.9688 11.6732 43.1367 11.5117 43.4727C11.3529 43.8086 11.2734 44.3659 11.2734 45.1445Z" fill="black"/>
<path d="M21.7751 55L21 54.5V55.7767L60.3029 95.1627L72.635 82.8043L94.2846 104.501L120.868 77.8611L166.086 123.176L186.64 102.578L231.584 147.618L256.797 122.352L304.5 152.5L305.275 151.723L256.797 120.798L231.584 146.065L186.64 101.025L166.086 121.622L120.868 76.3076L94.2846 102.947L72.635 81.2508L60.3029 93.6098L21.7751 55Z" fill="#1490F5"/>
<path d="M60.3029 85.6626L21 46.2767V45L21.7751 45.5L60 83.5L73 63.4465L122 39L165.5 44.5L210.444 88.987L235.657 63.7206V65.2741L210.444 90.5405L165.5 45.5L122 40L73.5 64.5L60.3029 85.6626Z" fill="#EDAE1D"/>
<path d="M46.5 123.107L21 72.8302V70.5L21.7751 72.0535L47.2751 122.553L71.2751 149.053L90.2751 143.553L117.275 54L139.775 62.0535L203.775 55.5535V56.5535L139.775 63.0535L118 55.5L91 144.5L71 150.204L46.5 123.107Z" fill="#2CBAA4"/>
<path d="M21.3536 17.6465C21.1583 17.4512 20.8417 17.4512 20.6465 17.6465L17.4645 20.8284C17.2692 21.0237 17.2692 21.3403 17.4645 21.5355C17.6597 21.7308 17.9763 21.7308 18.1716 21.5355L21 18.7071L23.8284 21.5355C24.0237 21.7308 24.3403 21.7308 24.5355 21.5355C24.7308 21.3403 24.7308 21.0237 24.5355 20.8284L21.3536 17.6465ZM21.5 172L21.5 18L20.5 18L20.5 172L21.5 172Z" fill="black"/>
<path d="M338.354 172.354C338.549 172.158 338.549 171.842 338.354 171.646L335.172 168.464C334.976 168.269 334.66 168.269 334.464 168.464C334.269 168.66 334.269 168.976 334.464 169.172L337.293 172L334.464 174.828C334.269 175.024 334.269 175.34 334.464 175.536C334.66 175.731 334.976 175.731 335.172 175.536L338.354 172.354ZM21 172.5H338V171.5H21V172.5Z" fill="black"/>
</svg>
