<svg width="36" height="36" viewBox="0 0 36 36" fill="none" xmlns="http://www.w3.org/2000/svg">
<path d="M0.750002 17.25C0.330003 17.25 3.8147e-06 17.58 3.8147e-06 18C3.8147e-06 18.42 0.330003 18.75 0.750002 18.75H1.5V17.25H0.750002Z" fill="#003968"/>
<path d="M17.25 17.25H1.49999V18.75H17.25V17.25Z" fill="#003968"/>
<path d="M3.75 36H18C17.58 36 17.25 35.67 17.25 35.25V34.5H3.75C2.505 34.5 1.5 33.495 1.5 32.25V18.75H0.75C0.33 18.75 0 18.42 0 18V32.25C0 34.32 1.68 36 3.75 36Z" fill="#003968"/>
<path d="M0 3.75V18C0 17.58 0.33 17.25 0.75 17.25H1.5V3.75C1.5 2.505 2.505 1.5 3.75 1.5H17.25V0.75C17.25 0.33 17.58 0 18 0H3.75C1.68 0 0 1.68 0 3.75Z" fill="#003968"/>
<path d="M5.99999 9C5.57999 9 5.24999 9.33 5.24999 9.75C5.24999 10.17 5.57999 10.5 5.99999 10.5H12C12.42 10.5 12.75 10.17 12.75 9.75C12.75 9.33 12.42 9 12 9H5.99999Z" fill="#003968"/>
<path d="M5.99999 24C5.57999 24 5.24999 24.33 5.24999 24.75C5.24999 25.17 5.57999 25.5 5.99999 25.5H12C12.42 25.5 12.75 25.17 12.75 24.75C12.75 24.33 12.42 24 12 24H5.99999Z" fill="#003968"/>
<path d="M5.99999 28.5C5.57999 28.5 5.24999 28.83 5.24999 29.25C5.24999 29.67 5.57999 30 5.99999 30H12C12.42 30 12.75 29.67 12.75 29.25C12.75 28.83 12.42 28.5 12 28.5H5.99999Z" fill="#003968"/>
<path d="M17.25 34.5V35.25C17.25 35.67 17.58 36 18 36C18.42 36 18.75 35.67 18.75 35.25V34.5H17.25Z" fill="#003968"/>
<path d="M18.75 18.75H17.25V34.5H18.75V18.75Z" fill="#003968"/>
<path d="M18.75 17.25H17.25V18.75H18.75V17.25Z" fill="#003968"/>
<path d="M18.75 1.5H17.25V17.25H18.75V1.5Z" fill="#003968"/>
<path d="M17.25 0.75V1.5H18.75V0.75C18.75 0.33 18.42 0 18 0C17.58 0 17.25 0.33 17.25 0.75Z" fill="#003968"/>
<path d="M34.5 17.25H18.75V18.75H34.5V17.25Z" fill="#003968"/>
<path d="M24 9C23.58 9 23.25 9.33 23.25 9.75C23.25 10.17 23.58 10.5 24 10.5H26.25V9H24Z" fill="#003968"/>
<path d="M24.225 28.725C23.925 29.01 23.925 29.49 24.225 29.775C24.36 29.925 24.555 30 24.75 30C24.945 30 25.14 29.925 25.275 29.775L27 28.05L25.95 27L24.225 28.725Z" fill="#003968"/>
<path d="M25.275 24.225C24.99 23.925 24.51 23.925 24.225 24.225C23.925 24.51 23.925 24.99 24.225 25.275L25.95 27L27 25.95L25.275 24.225Z" fill="#003968"/>
<path d="M28.0544 26.9985L27.0044 25.9485L25.9543 26.9985L27.0044 28.0486L28.0544 26.9985Z" fill="#003968"/>
<path d="M26.25 10.5V12.75C26.25 13.17 26.58 13.5 27 13.5C27.42 13.5 27.75 13.17 27.75 12.75V10.5H26.25Z" fill="#003968"/>
<path d="M27.75 9H26.25V10.5H27.75V9Z" fill="#003968"/>
<path d="M26.25 6.75V9H27.75V6.75C27.75 6.33 27.42 6 27 6C26.58 6 26.25 6.33 26.25 6.75Z" fill="#003968"/>
<path d="M27 25.95L28.05 27L29.775 25.275C30.075 24.99 30.075 24.51 29.775 24.225C29.49 23.925 29.01 23.925 28.725 24.225L27 25.95Z" fill="#003968"/>
<path d="M27.75 9V10.5H30C30.42 10.5 30.75 10.17 30.75 9.75C30.75 9.33 30.42 9 30 9H27.75Z" fill="#003968"/>
<path d="M28.725 29.775C28.86 29.925 29.055 30 29.25 30C29.445 30 29.64 29.925 29.775 29.775C30.075 29.49 30.075 29.01 29.775 28.725L28.05 27L27 28.05L28.725 29.775Z" fill="#003968"/>
<path d="M34.5 17.25V18.75H35.25C35.67 18.75 36 18.42 36 18C36 17.58 35.67 17.25 35.25 17.25H34.5Z" fill="#003968"/>
<path d="M36 3.75C36 1.68 34.32 0 32.25 0H18C18.42 0 18.75 0.33 18.75 0.75V1.5H32.25C33.495 1.5 34.5 2.505 34.5 3.75V17.25H35.25C35.67 17.25 36 17.58 36 18V3.75Z" fill="#003968"/>
<path d="M34.5 32.25C34.5 33.495 33.495 34.5 32.25 34.5H18.75V35.25C18.75 35.67 18.42 36 18 36H32.25C34.32 36 36 34.32 36 32.25V18C36 18.42 35.67 18.75 35.25 18.75H34.5V32.25Z" fill="#003968"/>
</svg>
