<svg width="41" height="37" viewBox="0 0 41 37" fill="none" xmlns="http://www.w3.org/2000/svg">
<path d="M40.3913 6.85002C39.8986 6.26512 39.1775 5.92959 38.4126 5.92959H36.577C35.762 4.49498 34.238 3.59394 32.5588 3.59394H32.1791V0.800788C32.1791 0.358513 31.8206 0 31.3783 0C28.3934 0 25.9649 2.42847 25.9649 5.41341V7.91579C25.9649 9.65742 25.0034 11.2355 23.4557 12.0342L20.8411 13.3832C20.4481 13.5861 20.2938 14.069 20.4966 14.4621C20.6387 14.7376 20.9187 14.8959 21.2089 14.8959C21.3325 14.8959 21.458 14.8672 21.5754 14.8066L24.19 13.4575C26.2728 12.3828 27.5665 10.2594 27.5665 7.91587V5.41333C27.5665 3.58617 28.859 2.05506 30.5776 1.68614V4.39472C30.5776 4.837 30.9361 5.19551 31.3783 5.19551H32.5588C33.7763 5.19551 34.8691 5.92031 35.3427 7.04197C35.468 7.3385 35.7585 7.53125 36.0804 7.53125H38.4126C38.7039 7.53125 38.9787 7.65906 39.1664 7.88192C39.3541 8.10477 39.4334 8.39722 39.3839 8.68439L39.0875 10.4035C38.8994 11.4939 37.9599 12.2853 36.8535 12.2853H33.2884C33.28 12.2853 33.2719 12.2862 33.2636 12.2866C33.2552 12.2863 33.2471 12.2853 33.2387 12.2853C32.7965 12.2853 32.4379 12.6438 32.4379 13.0861V17.0015C32.4379 19.8341 31.8912 22.5958 30.8129 25.2102C30.7464 25.3712 30.7344 25.5495 30.7784 25.7181L32.7481 33.251C32.7825 33.3825 32.8498 33.5031 32.9437 33.6015L33.6475 34.3385C33.7748 34.4718 33.7416 34.6137 33.7105 34.6863C33.6793 34.759 33.5997 34.881 33.4154 34.881H30.7476L27.3062 25.9641V22.2609C27.3062 21.8187 26.9476 21.4602 26.5054 21.4602C26.0631 21.4602 25.7046 21.8187 25.7046 22.2609V26.1133C25.7046 26.2119 25.7228 26.3096 25.7583 26.4017L29.031 34.8809H26.214C25.8274 32.3757 23.6568 30.4515 21.0451 30.4515H20.1413L19.7838 28.3304C19.4018 26.0634 17.7018 24.2904 15.4528 23.8134L13.9381 23.4922C13.5058 23.4005 13.0803 23.6767 12.9886 24.1093C12.8968 24.542 13.1732 24.967 13.6058 25.0588L15.1206 25.3801C16.7219 25.7197 17.9324 26.9822 18.2044 28.5965L18.5171 30.4514H13.5832C13.141 30.4514 12.7824 30.8099 12.7824 31.2522C12.7824 31.6945 13.141 32.053 13.5832 32.053H21.0451C22.7709 32.053 24.2191 33.2639 24.5846 34.8808H13.4523C9.44597 34.8808 6.18652 31.6214 6.18652 27.615C6.18652 24.6121 7.84423 21.8914 10.5128 20.5145L15.1724 18.1102C15.5653 17.9075 15.7196 17.4244 15.5168 17.0314C15.3141 16.6384 14.8308 16.4841 14.438 16.687L9.77837 19.0913C8.5 19.7509 7.41565 20.6679 6.57314 21.7603C6.48465 21.3405 6.43965 20.9101 6.43965 20.471C6.43965 18.2351 7.65116 16.1626 9.60132 15.0625C10.1296 14.7645 10.3802 14.1675 10.2251 13.5769C10.0619 12.9551 9.5033 12.5201 8.86459 12.5151C8.86091 12.515 8.85739 12.5146 8.8537 12.5146C8.85138 12.5146 8.84898 12.5146 8.84658 12.5146C8.84562 12.5146 8.84474 12.5148 8.84377 12.5148C4.06235 12.5201 0.0966887 16.4581 0.00171528 21.298C-0.06459 24.6752 1.79612 27.8216 4.7652 29.399C5.59314 33.4363 9.1737 36.4824 13.4523 36.4824H33.4155C34.198 36.4824 34.8752 36.0355 35.183 35.316C35.4908 34.5966 35.3462 33.7981 34.8058 33.2321L34.2451 32.6451L32.3951 25.57C33.4863 22.8355 34.0394 19.9541 34.0394 17.0014V13.8868H36.8535C38.7416 13.8868 40.3449 12.5363 40.6657 10.6755L40.9621 8.95633C41.0921 8.20263 40.8841 7.43492 40.3913 6.85002ZM1.60305 21.3295C1.67568 17.6285 4.49646 14.5697 8.04635 14.1623C6.04774 15.6219 4.83823 17.9647 4.83823 20.471C4.83823 21.5503 5.053 22.5896 5.47638 23.5665C4.92824 24.747 4.61874 26.0468 4.58871 27.3986C2.69685 25.9943 1.55588 23.733 1.60305 21.3295Z" fill="#916500"/>
<path d="M33.3693 8.48192C33.5182 8.33298 33.6039 8.12638 33.6039 7.91577C33.6039 7.70517 33.5183 7.49856 33.3693 7.34962C33.2204 7.20067 33.0137 7.11499 32.8032 7.11499C32.5918 7.11499 32.386 7.20067 32.237 7.34962C32.0873 7.49856 32.0024 7.70517 32.0024 7.91577C32.0024 8.12638 32.0873 8.33298 32.237 8.48192C32.386 8.63087 32.5926 8.71655 32.8032 8.71655C33.0137 8.71655 33.2196 8.63087 33.3693 8.48192Z" fill="#916500"/>
<path d="M18.0061 16.5474C18.2168 16.5474 18.4225 16.4625 18.5723 16.3136C18.7212 16.1638 18.8069 15.958 18.8069 15.7474C18.8069 15.5368 18.7213 15.3302 18.5723 15.1805C18.4233 15.0315 18.2168 14.9467 18.0061 14.9467C17.7947 14.9467 17.5881 15.0315 17.4393 15.1805C17.2903 15.3294 17.2054 15.536 17.2054 15.7474C17.2054 15.958 17.2903 16.1646 17.4393 16.3136C17.5882 16.4625 17.7948 16.5474 18.0061 16.5474Z" fill="#916500"/>
</svg>
