<svg width="32" height="23" viewBox="0 0 32 23" fill="none" xmlns="http://www.w3.org/2000/svg">
<path d="M1 21.6281L31.1921 21.4978" stroke="#C4C4C4"/>
<path d="M30.6679 21.6279V9.96596" stroke="#C4C4C4"/>
<line x1="20.2635" y1="9.46582" x2="31.1912" y2="9.46582" stroke="#C4C4C4"/>
<path d="M20.7234 1.12973L20.761 9.97003" stroke="#C4C4C4"/>
<path d="M10.7189 1.13037H21.2474" stroke="#C4C4C4"/>
<path d="M11.225 8.46851L11.2437 0.999876" stroke="#C4C4C4"/>
<path d="M1 8.01929H11.7642" stroke="#C4C4C4"/>
<path d="M1.52728 22.0967L1.52728 7.7195" stroke="#C4C4C4"/>
<path d="M7.00288 12.1677C7.00288 11.9437 6.86688 11.8317 6.59488 11.8317C6.42688 11.8317 6.24088 11.8677 6.03688 11.9397C5.83688 12.0077 5.67688 12.0777 5.55688 12.1497L5.38288 12.2517L5.54488 11.3937C5.70088 11.3097 5.88888 11.2357 6.10888 11.1717C6.32888 11.1037 6.52288 11.0697 6.69088 11.0697C7.03088 11.0697 7.30288 11.1577 7.50688 11.3337C7.71488 11.5057 7.81888 11.7357 7.81888 12.0237C7.81888 12.4117 7.61488 12.8157 7.20688 13.2357L6.16288 14.3157L8.03488 14.2077L7.93288 15.0057L6.68488 14.9517L5.26888 14.9937L5.36488 14.3637L6.62488 12.9117C6.87688 12.6277 7.00288 12.3797 7.00288 12.1677Z" fill="#C4C4C4"/>
<path d="M24.3665 14.0627C24.7025 13.9427 25.0365 13.8827 25.3685 13.8827C25.7005 13.8827 25.9725 13.9667 26.1845 14.1347C26.3965 14.3027 26.5025 14.5147 26.5025 14.7707C26.5025 14.9707 26.4505 15.1467 26.3465 15.2987C26.2425 15.4467 26.0945 15.5587 25.9025 15.6347C26.1825 15.7387 26.3845 15.8687 26.5085 16.0247C26.6325 16.1767 26.6945 16.3707 26.6945 16.6067C26.6945 16.9667 26.5545 17.2647 26.2745 17.5007C25.9985 17.7327 25.6465 17.8487 25.2185 17.8487C25.0145 17.8487 24.8145 17.8227 24.6185 17.7707C24.4265 17.7147 24.2845 17.6587 24.1925 17.6027L24.0545 17.5187L24.3065 16.7927C24.3425 16.8247 24.3905 16.8647 24.4505 16.9127C24.5105 16.9607 24.6245 17.0267 24.7925 17.1107C24.9645 17.1907 25.1365 17.2307 25.3085 17.2307C25.4805 17.2307 25.6305 17.1847 25.7585 17.0927C25.8865 16.9967 25.9505 16.8627 25.9505 16.6907C25.9505 16.5187 25.8745 16.3767 25.7225 16.2647C25.5745 16.1527 25.3685 16.0967 25.1045 16.0967H24.5885L24.6965 15.5147H25.0265C25.2465 15.5147 25.4185 15.4647 25.5425 15.3647C25.6665 15.2647 25.7285 15.1367 25.7285 14.9807C25.7285 14.8247 25.6765 14.7047 25.5725 14.6207C25.4685 14.5327 25.3425 14.4887 25.1945 14.4887C25.0505 14.4887 24.9005 14.5147 24.7445 14.5667C24.5925 14.6147 24.4245 14.6887 24.2405 14.7887L24.3665 14.0627Z" fill="#C4C4C4"/>
<path d="M16.5578 3.56851L16.4678 5.90851L16.5398 7.46851H15.6998L15.7718 6.01051L15.7238 4.51651L14.8838 4.52251V4.13251L16.5578 3.56851Z" fill="#C4C4C4"/>
</svg>
