<svg width="40" height="34" viewBox="0 0 40 34" fill="none" xmlns="http://www.w3.org/2000/svg">
<path d="M40 10.9996C40 8.02303 38.8341 5.2353 36.7171 3.14985C36.4863 2.92242 36.1153 2.92579 35.8884 3.15753C35.6618 3.3892 35.6652 3.76151 35.8962 3.98902C37.7869 5.85158 38.8281 8.34125 38.8281 10.9996C38.8281 15.2699 36.0677 19.0434 32.0576 20.3452L26.614 8.4568C26.3452 7.87 25.7786 7.50545 25.135 7.50545C24.4915 7.50545 23.9248 7.87 23.656 8.4568L20.3862 15.5979C19.6399 14.1878 19.2491 12.6177 19.2491 10.9995C19.2491 5.58276 23.6407 1.17596 29.0386 1.17596C30.6752 1.17596 32.2946 1.58904 33.7216 2.37066C34.0056 2.52636 34.3615 2.4213 34.5166 2.13625C34.6716 1.8512 34.567 1.49402 34.283 1.33848C32.6844 0.462858 30.8709 0 29.0386 0C24.5705 0 20.7188 2.69695 19.0137 6.55347L11.3713 2.12582C11.19 2.02077 10.9666 2.02077 10.7853 2.12582L0.292969 8.20468C0.272109 8.21675 0.252578 8.23024 0.233828 8.24442C0.228906 8.24819 0.224219 8.25211 0.219375 8.25603C0.205 8.26755 0.191328 8.27963 0.178281 8.29233C0.174219 8.29632 0.170078 8.30017 0.166094 8.30432C0.133125 8.33835 0.104687 8.37566 0.08125 8.4158C0.0786719 8.42019 0.0764063 8.42474 0.0739844 8.42921C0.0651563 8.4452 0.0571094 8.46159 0.0498438 8.47828C0.0473437 8.48409 0.0447656 8.48981 0.0424219 8.49569C0.034375 8.51599 0.0271094 8.53661 0.0213281 8.55762C0.0210156 8.5588 0.0205469 8.5599 0.0202344 8.56107C0.0142969 8.58334 0.01 8.60607 0.00664063 8.62897C0.00578125 8.635 0.00515625 8.64112 0.00445312 8.64723C0.00226562 8.66605 0.00101562 8.68494 0.000703125 8.70391C0.000625 8.70713 0 8.71042 0 8.71379V20.8715C0 21.0816 0.111719 21.2756 0.292969 21.3807L10.7853 27.4595C10.808 27.4726 10.8313 27.4842 10.8551 27.494C10.9273 27.524 11.0029 27.5385 11.0777 27.5385C11.1033 27.5385 11.1287 27.5368 11.1538 27.5335C11.1587 27.5328 11.1636 27.5314 11.1685 27.5306C11.1884 27.5274 11.2084 27.524 11.2279 27.5188C11.237 27.5164 11.2457 27.5127 11.2547 27.5099C11.27 27.505 11.2854 27.5005 11.3002 27.4944C11.3073 27.4915 11.3141 27.4875 11.3211 27.4843C11.3375 27.4768 11.354 27.4693 11.3698 27.4603C11.3703 27.46 11.3709 27.4599 11.3713 27.4595L16.249 24.6336L13.9482 29.6582C13.913 29.7352 13.8947 29.8189 13.8947 29.9037C13.8947 31.133 15.1132 32.184 17.4185 32.9431C19.4883 33.6246 22.2287 34 25.135 34C28.0413 34 30.7817 33.6246 32.8516 32.9431C35.1569 32.184 36.3754 31.133 36.3754 29.9037C36.3754 29.8189 36.3572 29.7352 36.3219 29.6582L35.456 27.7671C35.3209 27.4721 34.973 27.3426 34.679 27.4783C34.3848 27.6138 34.2561 27.9629 34.3911 28.258L35.1938 30.0111C34.9788 31.2205 31.1918 32.824 25.1349 32.824C19.078 32.824 15.291 31.2206 15.0761 30.0111L24.7209 8.94765C24.8309 8.70728 25.0471 8.68126 25.1349 8.68126C25.2227 8.68126 25.439 8.7072 25.549 8.94765L31.2053 21.3007C31.2055 21.301 31.2055 21.3013 31.2057 21.3016L33.2491 25.7644C33.3843 26.0594 33.732 26.1889 34.0263 26.0532C34.3203 25.9176 34.4491 25.5684 34.3141 25.2734L32.5505 21.4217C36.9698 19.9246 40 15.7342 40 10.9996ZM11.0783 14.1137L5.39109 10.8188C5.11078 10.6562 4.7525 10.7527 4.5907 11.034C4.42891 11.3152 4.52492 11.6748 4.80516 11.8371L10.4923 15.1321V25.932L1.17188 20.532V9.73225L2.60961 10.5653C2.88984 10.7277 3.24812 10.6313 3.41 10.3501C3.5718 10.0689 3.47578 9.70928 3.19555 9.54692L1.75781 8.71379L11.0783 3.31386L18.5921 7.66711C18.3518 8.42403 18.1913 9.21632 18.1201 10.0339L11.0783 14.1137ZM17.0952 22.7855L11.6642 25.9321V15.1321L18.085 11.4121C18.157 13.3701 18.7423 15.2534 19.7893 16.9017L17.0952 22.7855Z" fill="#006354"/>
</svg>
