<svg width="25" height="25" viewBox="0 0 25 25" fill="none" xmlns="http://www.w3.org/2000/svg">
<path d="M0.5 24.3997V17.7383H3.64994V24.3997H0.5Z" stroke="#C4C4C4"/>
<path d="M5.57217 24.3995V15.8228H8.72212V24.3995H5.57217Z" stroke="#C4C4C4"/>
<path d="M11.1054 24.3996V11.0344H13.7942V24.3996H11.1054Z" stroke="#C4C4C4"/>
<path d="M16.0551 24.3996V14.1394H19.3275V24.3996H16.0551Z" stroke="#C4C4C4"/>
<path d="M21.2497 24.3998V6.62036H24.3997V24.3998H21.2497Z" stroke="#C4C4C4"/>
<line y1="-0.5" x2="6.7501" y2="-0.5" transform="matrix(0.923266 -0.384161 0.359973 0.932963 1.495 11.8311)" stroke="#C4C4C4"/>
<line y1="-0.5" x2="6.72988" y2="-0.5" transform="matrix(-0.822192 0.56921 -0.540232 -0.841516 12.4498 4.78833)" stroke="#C4C4C4"/>
<line y1="-0.5" x2="5.96067" y2="-0.5" transform="matrix(-0.862757 -0.505619 0.47749 -0.878637 17.5925 7.80225)" stroke="#C4C4C4"/>
<line y1="-0.5" x2="9.45063" y2="-0.5" transform="matrix(-0.585491 0.810679 -0.788944 -0.614466 22.5941 0)" stroke="#C4C4C4"/>
<ellipse cx="7.83877" cy="8.6193" rx="0.922209" ry="0.957679" fill="#C4C4C4"/>
<ellipse cx="12.4498" cy="5.74601" rx="0.922209" ry="0.957679" fill="#C4C4C4"/>
<ellipse cx="17.0609" cy="7.66154" rx="0.922209" ry="0.957679" fill="#C4C4C4"/>
</svg>
