<svg width="25" height="25" viewBox="0 0 25 25" fill="none" xmlns="http://www.w3.org/2000/svg">
<path d="M10.9368 3.42855e-07C10.8085 6.83022e-05 10.6844 0.0457054 10.5866 0.128774C10.4888 0.211842 10.4237 0.326942 10.4029 0.453548L9.87633 3.67701C9.24319 3.86118 8.63945 4.10967 8.07045 4.41918L5.41026 2.51936C5.3061 2.44499 5.17897 2.40992 5.05142 2.42037C4.92387 2.43082 4.80414 2.48612 4.71349 2.57645L2.60733 4.68032C2.51732 4.77037 2.46194 4.88927 2.45092 5.01611C2.4399 5.14295 2.47394 5.26962 2.54706 5.37385L4.4185 8.05073C4.10419 8.62301 3.85017 9.2301 3.66147 9.86915L0.451472 10.403C0.325243 10.4243 0.21063 10.4896 0.127979 10.5873C0.0453277 10.6851 -1.45062e-05 10.8089 8.9209e-07 10.9369V13.9141C-0.000229996 14.0413 0.0443644 14.1646 0.125957 14.2622C0.207549 14.3598 0.320925 14.4256 0.446186 14.448L3.65829 15.0168C3.84597 15.6547 4.09838 16.2622 4.41321 16.8352L2.51851 19.4856C2.44414 19.5898 2.40907 19.7169 2.41952 19.8444C2.42997 19.972 2.48527 20.0917 2.57561 20.1823L4.68071 22.2883C4.77058 22.3782 4.88922 22.4336 5.01584 22.4448C5.14246 22.456 5.26898 22.4223 5.37325 22.3496L8.05565 20.472C8.62632 20.7834 9.23154 21.0337 9.86682 21.2195L10.4029 24.4472C10.4239 24.5736 10.4891 24.6884 10.5869 24.7713C10.6847 24.8541 10.8087 24.8996 10.9368 24.8997H13.9142C14.0416 24.8998 14.165 24.8551 14.2626 24.7733C14.3603 24.6915 14.426 24.5779 14.4481 24.4524L15.0223 21.2121C15.6549 21.0234 16.2573 20.7694 16.825 20.4562L19.5253 22.3507C19.6296 22.4238 19.7563 22.4578 19.8831 22.4468C20.01 22.4358 20.1289 22.3804 20.2189 22.2904L22.324 20.1834C22.4148 20.0925 22.4702 19.9723 22.4805 19.8443C22.4907 19.7163 22.4552 19.5888 22.3801 19.4846L20.4547 16.8119C20.7626 16.247 21.0106 15.6483 21.1948 15.0199L24.4524 14.449C24.5779 14.4269 24.6915 14.3612 24.7733 14.2635C24.8551 14.1659 24.8998 14.0425 24.8997 13.9151V10.938C24.8996 10.8097 24.8539 10.6856 24.7709 10.5878C24.6878 10.49 24.5727 10.4249 24.4461 10.4041L21.1938 9.87232C21.0083 9.24472 20.7596 8.64707 20.4515 8.08245L22.3505 5.37702C22.4236 5.27279 22.4576 5.14612 22.4466 5.01928C22.4356 4.89244 22.3802 4.77355 22.2902 4.68349L20.184 2.57856C20.0931 2.48785 19.9729 2.43241 19.8449 2.42214C19.7169 2.41188 19.5894 2.44746 19.4852 2.52253L16.8197 4.43927C16.2518 4.12729 15.649 3.8746 15.0149 3.68758L14.4481 0.448262C14.4262 0.322624 14.3606 0.208763 14.2629 0.126755C14.1653 0.0447466 14.0417 -0.00014313 13.9142 3.42855e-07H10.9368ZM11.3978 1.08259H13.4596L13.9988 4.16016C14.0167 4.26338 14.0642 4.35918 14.1356 4.43593C14.2069 4.51268 14.2989 4.5671 14.4006 4.59257C15.1923 4.78985 15.9359 5.10256 16.6146 5.5134C16.7053 5.56838 16.8102 5.59549 16.9162 5.59135C17.0222 5.58721 17.1247 5.55202 17.2109 5.49015L19.7442 3.66961L21.2022 5.12752L19.3985 7.69762C19.3382 7.78336 19.3042 7.88473 19.3004 7.98945C19.2966 8.09417 19.3234 8.19772 19.3773 8.28755C19.7841 8.96467 20.0927 9.70349 20.2898 10.4908C20.3154 10.5933 20.3706 10.6861 20.4484 10.7577C20.5261 10.8293 20.6232 10.8765 20.7275 10.8936L23.817 11.399V13.4605L20.7212 14.0039C20.6179 14.0222 20.5221 14.0701 20.4455 14.1418C20.3689 14.2135 20.3148 14.3059 20.2898 14.4078C20.095 15.1941 19.7862 15.9329 19.3794 16.61C19.3248 16.7007 19.298 16.8054 19.3024 16.9112C19.3067 17.017 19.3419 17.1192 19.4038 17.2052L21.2329 19.7436L19.7749 21.2026L17.2088 19.4021C17.1226 19.3418 17.0207 19.3078 16.9156 19.3044C16.8104 19.3011 16.7066 19.3284 16.6167 19.3831C15.9414 19.7939 15.197 20.1081 14.408 20.3081C14.3068 20.3336 14.2152 20.3878 14.1441 20.4642C14.073 20.5405 14.0255 20.6357 14.0072 20.7384L13.4606 23.8171H11.3957L10.8861 20.7522C10.8687 20.6479 10.8212 20.551 10.7495 20.4734C10.6777 20.3958 10.5848 20.341 10.4822 20.3155C9.68998 20.1203 8.94306 19.8081 8.25971 19.3979C8.16999 19.3442 8.06663 19.3176 7.96212 19.3213C7.85761 19.3251 7.75642 19.359 7.67079 19.419L5.12478 21.2026L3.66569 19.7415L5.46524 17.2263C5.52674 17.1402 5.56162 17.0379 5.56556 16.9321C5.56951 16.8263 5.54235 16.7216 5.48744 16.6311C5.07276 15.946 4.75914 15.1992 4.56124 14.4036C4.53592 14.3022 4.48181 14.2104 4.40546 14.1391C4.3291 14.0678 4.23375 14.0201 4.13091 14.0018L1.08269 13.4605V11.3958L4.1288 10.8894C4.23293 10.8721 4.32974 10.8248 4.40732 10.7532C4.4849 10.6816 4.53987 10.589 4.56547 10.4866C4.76507 9.68821 5.07854 8.94154 5.49167 8.25795C5.54615 8.1682 5.57335 8.06456 5.56998 7.95963C5.5666 7.8547 5.53278 7.75302 5.47264 7.66696L3.69424 5.1254L5.15439 3.66644L7.67819 5.47006C7.76405 5.53128 7.86592 5.56609 7.97129 5.57022C8.07666 5.57435 8.18095 5.54762 8.27134 5.49332C8.95108 5.0851 9.69973 4.77536 10.4927 4.58094C10.5958 4.55556 10.6892 4.50044 10.7612 4.42243C10.8332 4.34442 10.8807 4.24697 10.8977 4.14219L11.3978 1.08259ZM12.4498 8.11945C10.0644 8.11945 8.11908 10.0646 8.11908 12.4498C8.11908 14.835 10.0644 16.7802 12.4498 16.7802C14.8352 16.7802 16.7806 14.835 16.7806 12.4498C16.7806 10.0646 14.8352 8.11945 12.4498 8.11945ZM12.4498 9.20205C14.2501 9.20205 15.6979 10.6497 15.6979 12.4498C15.6979 14.2499 14.2501 15.6976 12.4498 15.6976C10.6496 15.6976 9.20177 14.2499 9.20177 12.4498C9.20177 10.6497 10.6496 9.20205 12.4498 9.20205Z" fill="#3347FF"/>
</svg>
