<svg width="201" height="116" viewBox="0 0 201 116" fill="none" xmlns="http://www.w3.org/2000/svg">
<path d="M161.496 100.746C178.853 100.746 192.922 86.7052 192.922 69.3855C192.922 52.0658 178.853 38.0254 161.496 38.0254C144.14 38.0254 130.071 52.0658 130.071 69.3855C130.071 86.7052 144.14 100.746 161.496 100.746Z" fill="#2CBAA4"/>
<path d="M141.712 71.903C142.492 70.9706 143.469 70.2205 144.571 69.7059C145.674 69.1912 146.877 68.9244 148.094 68.9244C149.312 68.9244 150.514 69.1912 151.617 69.7059C152.72 70.2205 153.696 70.9706 154.477 71.903C155.812 70.6308 156.735 68.9885 157.127 67.188C157.518 65.3874 157.361 63.5111 156.674 61.8008C155.987 60.0905 154.803 58.6246 153.274 57.5921C151.745 56.5596 149.941 56.0078 148.094 56.0078C146.248 56.0078 144.444 56.5596 142.915 57.5921C141.385 58.6246 140.201 60.0905 139.514 61.8008C138.828 63.5111 138.67 65.3874 139.062 67.188C139.453 68.9885 140.376 70.6308 141.712 71.903Z" fill="white"/>
<path d="M166.668 71.903C167.448 70.9706 168.425 70.2205 169.527 69.7059C170.63 69.1912 171.833 68.9244 173.05 68.9244C174.268 68.9244 175.47 69.1912 176.573 69.7059C177.676 70.2205 178.652 70.9706 179.433 71.903C180.768 70.6307 181.691 68.9885 182.083 67.188C182.475 65.3874 182.317 63.5111 181.63 61.8008C180.943 60.0905 179.759 58.6246 178.23 57.5921C176.701 56.5596 174.897 56.0078 173.05 56.0078C171.204 56.0078 169.4 56.5596 167.871 57.5921C166.342 58.6246 165.157 60.0905 164.47 61.8008C163.784 63.5111 163.626 65.3874 164.018 67.188C164.409 68.9885 165.332 70.6307 166.668 71.903Z" fill="white"/>
<path d="M144.941 65.2631C146.697 65.2631 148.121 63.8426 148.121 62.0903C148.121 60.338 146.697 58.9175 144.941 58.9175C143.185 58.9175 141.762 60.338 141.762 62.0903C141.762 63.8426 143.185 65.2631 144.941 65.2631Z" fill="black"/>
<path d="M169.896 65.2631C171.652 65.2631 173.076 63.8426 173.076 62.0903C173.076 60.338 171.652 58.9175 169.896 58.9175C168.14 58.9175 166.717 60.338 166.717 62.0903C166.717 63.8426 168.14 65.2631 169.896 65.2631Z" fill="black"/>
<path d="M140.074 80.915C142.116 80.915 143.771 79.2632 143.771 77.2256C143.771 75.1879 142.116 73.5361 140.074 73.5361C138.032 73.5361 136.376 75.1879 136.376 77.2256C136.376 79.2632 138.032 80.915 140.074 80.915Z" fill="#EDAE1D"/>
<path d="M180.147 80.915C182.189 80.915 183.844 79.2632 183.844 77.2256C183.844 75.1879 182.189 73.5361 180.147 73.5361C178.105 73.5361 176.449 75.1879 176.449 77.2256C176.449 79.2632 178.105 80.915 180.147 80.915Z" fill="#EDAE1D"/>
<path d="M160.11 69.8467L157.337 81.8373L161.959 77.2256L160.11 69.8467Z" fill="#EDAE1D"/>
<path d="M174.358 115.965L171.21 113.328L171.283 115.965H170.305L170.227 113.177L165.977 115.965H164.198L170.196 112.03L169.963 103.769L169.79 97.5302L170.765 97.5034L170.941 103.769L171.173 112.023L175.878 115.965H174.358Z" fill="#2CBAA4"/>
<path d="M159.568 115.965L156.42 113.328L156.493 115.965H155.518L155.44 113.177L151.19 115.965H149.41L155.406 112.03L155.174 103.769L155 97.5302L155.978 97.5034L156.154 103.769L156.383 112.023L161.089 115.965H159.568Z" fill="#2CBAA4"/>
<path d="M161.959 35.7192C161.096 35.7192 160.336 36.3876 159.827 37.4143C159.379 35.8705 158.437 34.7969 157.337 34.7969C157.263 34.8043 157.188 34.8167 157.115 34.8341C156.693 33.1858 155.71 32.0298 154.564 32.0298C153.033 32.0298 151.792 34.0946 151.792 36.6416C151.792 39.1886 153.033 41.2534 154.564 41.2534C154.639 41.2459 154.713 41.2335 154.786 41.2161C155.209 42.8644 156.192 44.0204 157.337 44.0204C158.2 44.0204 158.96 43.352 159.469 42.3253C159.917 43.8692 160.859 44.9428 161.959 44.9428C163.49 44.9428 164.732 42.878 164.732 40.331C164.732 37.784 163.49 35.7192 161.959 35.7192Z" fill="#28AA96"/>
<path d="M131.999 81.2695C130.785 81.2695 129.584 81.031 128.462 80.5674C127.341 80.1039 126.322 79.4245 125.464 78.568C124.605 77.7115 123.924 76.6947 123.46 75.5757C122.995 74.4566 122.756 73.2572 122.756 72.046V67.4342C122.756 64.9879 123.73 62.6419 125.464 60.9121C127.197 59.1824 129.548 58.2106 131.999 58.2106V81.2695Z" fill="#EDAE1D"/>
<path d="M190.994 58.2104C192.208 58.2104 193.41 58.449 194.531 58.9125C195.652 59.3761 196.671 60.0555 197.53 60.912C198.388 61.7684 199.069 62.7852 199.533 63.9043C199.998 65.0233 200.237 66.2227 200.237 67.434V72.0458C200.237 73.257 199.998 74.4564 199.533 75.5755C199.069 76.6945 198.388 77.7113 197.53 78.5678C196.671 79.4243 195.652 80.1037 194.531 80.5672C193.41 81.0308 192.208 81.2693 190.994 81.2693V58.2104H190.994Z" fill="#EDAE1D"/>
<path d="M195.837 68.159H194.371C194.371 49.5995 179.24 34.5001 160.641 34.5001C142.042 34.5001 126.911 49.5995 126.911 68.159H125.445C125.445 48.7925 141.234 33.0366 160.641 33.0366C180.048 33.0366 195.837 48.7925 195.837 68.159Z" fill="#EDAE1D"/>
<rect x="0.65" y="0.65" width="100.7" height="52.7" rx="9.35" fill="#EB5757" fill-opacity="0.5" stroke="#EB5757" stroke-width="1.3"/>
<path d="M116.5 54.9999C106.5 49.9999 101.377 38.503 101.5 39.5C101.623 40.497 101 47.9998 100 48.9999C99.0001 50 126.5 59.9999 116.5 54.9999Z" fill="#EB5757" fill-opacity="0.5" stroke="#EB5757"/>
<path d="M22.582 23L20.1758 15.1592H20.1143C20.2008 16.7542 20.2441 17.8184 20.2441 18.3516V23H18.3506V13.0059H21.2354L23.6006 20.6484H23.6416L26.1504 13.0059H29.0352V23H27.0596V18.2695C27.0596 18.0462 27.0618 17.7887 27.0664 17.4971C27.0755 17.2054 27.1074 16.4307 27.1621 15.1729H27.1006L24.5234 23H22.582ZM36.2471 23L35.8438 21.9609H35.7891C35.4382 22.403 35.0758 22.7106 34.7021 22.8838C34.333 23.0524 33.8499 23.1367 33.2529 23.1367C32.5192 23.1367 31.9404 22.9271 31.5166 22.5078C31.0973 22.0885 30.8877 21.4915 30.8877 20.7168C30.8877 19.9056 31.1702 19.3086 31.7354 18.9258C32.305 18.5384 33.1618 18.3242 34.3057 18.2832L35.6318 18.2422V17.9072C35.6318 17.1325 35.2354 16.7451 34.4424 16.7451C33.8317 16.7451 33.1139 16.9297 32.2891 17.2988L31.5986 15.8906C32.4782 15.4303 33.4535 15.2002 34.5244 15.2002C35.5498 15.2002 36.3359 15.4235 36.8828 15.8701C37.4297 16.3167 37.7031 16.9958 37.7031 17.9072V23H36.2471ZM35.6318 19.459L34.8252 19.4863C34.2191 19.5046 33.7679 19.6139 33.4717 19.8145C33.1755 20.015 33.0273 20.3203 33.0273 20.7305C33.0273 21.3184 33.3646 21.6123 34.0391 21.6123C34.5221 21.6123 34.9072 21.4733 35.1943 21.1953C35.486 20.9173 35.6318 20.5482 35.6318 20.0879V19.459ZM45.2705 23L44.9902 22.0225H44.8809C44.6576 22.3779 44.3408 22.6536 43.9307 22.8496C43.5205 23.041 43.0534 23.1367 42.5293 23.1367C41.6315 23.1367 40.9548 22.8975 40.499 22.4189C40.0433 21.9359 39.8154 21.2432 39.8154 20.3408V15.3574H41.9004V19.8213C41.9004 20.3727 41.9984 20.7874 42.1943 21.0654C42.3903 21.3389 42.7025 21.4756 43.1309 21.4756C43.7142 21.4756 44.1357 21.2819 44.3955 20.8945C44.6553 20.5026 44.7852 19.8555 44.7852 18.9531V15.3574H46.8701V23H45.2705ZM50.876 23L47.9639 15.3574H50.1445L51.6211 19.7119C51.7852 20.2633 51.8877 20.7852 51.9287 21.2773H51.9697C51.9925 20.8398 52.0951 20.318 52.2773 19.7119L53.7471 15.3574H55.9277L53.0156 23H50.876ZM61.8818 23L61.4785 21.9609H61.4238C61.0729 22.403 60.7106 22.7106 60.3369 22.8838C59.9678 23.0524 59.4847 23.1367 58.8877 23.1367C58.154 23.1367 57.5752 22.9271 57.1514 22.5078C56.7321 22.0885 56.5225 21.4915 56.5225 20.7168C56.5225 19.9056 56.805 19.3086 57.3701 18.9258C57.9398 18.5384 58.7965 18.3242 59.9404 18.2832L61.2666 18.2422V17.9072C61.2666 17.1325 60.8701 16.7451 60.0771 16.7451C59.4665 16.7451 58.7487 16.9297 57.9238 17.2988L57.2334 15.8906C58.113 15.4303 59.0882 15.2002 60.1592 15.2002C61.1846 15.2002 61.9707 15.4235 62.5176 15.8701C63.0645 16.3167 63.3379 16.9958 63.3379 17.9072V23H61.8818ZM61.2666 19.459L60.46 19.4863C59.8538 19.5046 59.4027 19.6139 59.1064 19.8145C58.8102 20.015 58.6621 20.3203 58.6621 20.7305C58.6621 21.3184 58.9993 21.6123 59.6738 21.6123C60.1569 21.6123 60.542 21.4733 60.8291 21.1953C61.1208 20.9173 61.2666 20.5482 61.2666 20.0879V19.459ZM65.4023 13.3818C65.4023 12.7028 65.7806 12.3633 66.5371 12.3633C67.2936 12.3633 67.6719 12.7028 67.6719 13.3818C67.6719 13.7054 67.5762 13.9583 67.3848 14.1406C67.1979 14.3184 66.9154 14.4072 66.5371 14.4072C65.7806 14.4072 65.4023 14.0654 65.4023 13.3818ZM67.5762 23H65.4912V15.3574H67.5762V23ZM75.1025 20.7305C75.1025 21.5143 74.8291 22.1113 74.2822 22.5215C73.7399 22.9316 72.9264 23.1367 71.8418 23.1367C71.2858 23.1367 70.8118 23.098 70.4199 23.0205C70.028 22.9476 69.6611 22.8382 69.3193 22.6924V20.9697C69.7067 21.152 70.1419 21.3047 70.625 21.4277C71.1126 21.5508 71.541 21.6123 71.9102 21.6123C72.6667 21.6123 73.0449 21.3936 73.0449 20.9561C73.0449 20.792 72.9948 20.6598 72.8945 20.5596C72.7943 20.4548 72.6211 20.3385 72.375 20.2109C72.1289 20.0788 71.8008 19.9261 71.3906 19.7529C70.8027 19.5068 70.3698 19.279 70.0918 19.0693C69.8184 18.8597 69.6178 18.6204 69.4902 18.3516C69.3672 18.0781 69.3057 17.7432 69.3057 17.3467C69.3057 16.6676 69.5677 16.1436 70.0918 15.7744C70.6204 15.4007 71.3678 15.2139 72.334 15.2139C73.2546 15.2139 74.1501 15.4144 75.0205 15.8154L74.3916 17.3193C74.0088 17.1553 73.651 17.0208 73.3184 16.916C72.9857 16.8112 72.6462 16.7588 72.2998 16.7588C71.6846 16.7588 71.377 16.9251 71.377 17.2578C71.377 17.4447 71.4749 17.6064 71.6709 17.7432C71.8714 17.8799 72.3066 18.0827 72.9766 18.3516C73.5736 18.5931 74.0111 18.8187 74.2891 19.0283C74.5671 19.238 74.7721 19.4795 74.9043 19.7529C75.0365 20.0264 75.1025 20.3522 75.1025 20.7305ZM79.8945 16.6973C79.4525 16.6973 79.1061 16.8385 78.8555 17.1211C78.6048 17.3991 78.4613 17.7956 78.4248 18.3105H81.3506C81.3415 17.7956 81.207 17.3991 80.9473 17.1211C80.6875 16.8385 80.3366 16.6973 79.8945 16.6973ZM80.1885 23.1367C78.958 23.1367 77.9964 22.7972 77.3037 22.1182C76.611 21.4391 76.2646 20.4775 76.2646 19.2334C76.2646 17.9528 76.5837 16.9639 77.2217 16.2666C77.8643 15.5648 78.7507 15.2139 79.8809 15.2139C80.9609 15.2139 81.8018 15.5215 82.4033 16.1367C83.0049 16.752 83.3057 17.6019 83.3057 18.6865V19.6982H78.377C78.3997 20.2907 78.5752 20.7533 78.9033 21.0859C79.2314 21.4186 79.6917 21.585 80.2842 21.585C80.7445 21.585 81.1797 21.5371 81.5898 21.4414C82 21.3457 82.4284 21.193 82.875 20.9834V22.5967C82.5104 22.779 82.1208 22.9134 81.7061 23C81.2913 23.0911 80.7855 23.1367 80.1885 23.1367ZM27.5654 34.2139C27.848 34.2139 28.0827 34.2344 28.2695 34.2754L28.1123 36.2305C27.9437 36.1849 27.7386 36.1621 27.4971 36.1621C26.8317 36.1621 26.3122 36.333 25.9385 36.6748C25.5693 37.0166 25.3848 37.4951 25.3848 38.1104V42H23.2998V34.3574H24.8789L25.1865 35.6426H25.2891C25.526 35.2142 25.8451 34.8701 26.2461 34.6104C26.6517 34.346 27.0915 34.2139 27.5654 34.2139ZM32.8223 35.6973C32.3802 35.6973 32.0339 35.8385 31.7832 36.1211C31.5326 36.3991 31.389 36.7956 31.3525 37.3105H34.2783C34.2692 36.7956 34.1348 36.3991 33.875 36.1211C33.6152 35.8385 33.2643 35.6973 32.8223 35.6973ZM33.1162 42.1367C31.8857 42.1367 30.9242 41.7972 30.2314 41.1182C29.5387 40.4391 29.1924 39.4775 29.1924 38.2334C29.1924 36.9528 29.5114 35.9639 30.1494 35.2666C30.792 34.5648 31.6784 34.2139 32.8086 34.2139C33.8887 34.2139 34.7295 34.5215 35.3311 35.1367C35.9326 35.752 36.2334 36.6019 36.2334 37.6865V38.6982H31.3047C31.3275 39.2907 31.5029 39.7533 31.8311 40.0859C32.1592 40.4186 32.6195 40.585 33.2119 40.585C33.6722 40.585 34.1074 40.5371 34.5176 40.4414C34.9277 40.3457 35.3561 40.193 35.8027 39.9834V41.5967C35.4382 41.779 35.0485 41.9134 34.6338 42C34.2191 42.0911 33.7132 42.1367 33.1162 42.1367ZM31.6191 33.5166V33.332C32.403 32.4206 32.9385 31.7347 33.2256 31.2744H35.5635V31.418C35.3265 31.6549 34.9209 32.0081 34.3467 32.4775C33.777 32.9424 33.3304 33.2887 33.0068 33.5166H31.6191ZM42.126 42.1367C41.2282 42.1367 40.5241 41.8109 40.0137 41.1592H39.9043C39.9772 41.7972 40.0137 42.1663 40.0137 42.2666V45.3633H37.9287V34.3574H39.624L39.918 35.3486H40.0137C40.5013 34.5921 41.2236 34.2139 42.1807 34.2139C43.083 34.2139 43.7894 34.5625 44.2998 35.2598C44.8102 35.957 45.0654 36.9255 45.0654 38.165C45.0654 38.9808 44.9447 39.6895 44.7031 40.291C44.4661 40.8926 44.1266 41.3506 43.6846 41.665C43.2425 41.9795 42.723 42.1367 42.126 42.1367ZM41.5107 35.8818C40.9958 35.8818 40.6198 36.0413 40.3828 36.3604C40.1458 36.6748 40.0228 37.1966 40.0137 37.9258V38.1514C40.0137 38.9717 40.1344 39.5596 40.376 39.915C40.6221 40.2705 41.0094 40.4482 41.5381 40.4482C42.4723 40.4482 42.9395 39.6781 42.9395 38.1377C42.9395 37.3857 42.8232 36.8229 42.5908 36.4492C42.363 36.071 42.0029 35.8818 41.5107 35.8818ZM48.4492 38.165C48.4492 38.9215 48.5723 39.4935 48.8184 39.8809C49.069 40.2682 49.4746 40.4619 50.0352 40.4619C50.5911 40.4619 50.9899 40.2705 51.2314 39.8877C51.4775 39.5003 51.6006 38.9261 51.6006 38.165C51.6006 37.4085 51.4775 36.8411 51.2314 36.4629C50.9854 36.0846 50.582 35.8955 50.0215 35.8955C49.4655 35.8955 49.0645 36.0846 48.8184 36.4629C48.5723 36.8366 48.4492 37.404 48.4492 38.165ZM53.7334 38.165C53.7334 39.4092 53.4053 40.3822 52.749 41.084C52.0928 41.7858 51.179 42.1367 50.0078 42.1367C49.2741 42.1367 48.627 41.9772 48.0664 41.6582C47.5059 41.3346 47.0752 40.8721 46.7744 40.2705C46.4736 39.6689 46.3232 38.9671 46.3232 38.165C46.3232 36.9163 46.6491 35.9456 47.3008 35.2529C47.9525 34.5602 48.8685 34.2139 50.0488 34.2139C50.7826 34.2139 51.4297 34.3734 51.9902 34.6924C52.5508 35.0114 52.9814 35.4694 53.2822 36.0664C53.583 36.6634 53.7334 37.363 53.7334 38.165ZM62.5107 42H60.4258V37.5361C60.4258 36.9847 60.3278 36.5723 60.1318 36.2988C59.9359 36.0208 59.6237 35.8818 59.1953 35.8818C58.612 35.8818 58.1904 36.0778 57.9307 36.4697C57.6709 36.8571 57.541 37.502 57.541 38.4043V42H55.4561V34.3574H57.0488L57.3291 35.335H57.4453C57.6777 34.9658 57.9967 34.6878 58.4023 34.501C58.8125 34.3096 59.2773 34.2139 59.7969 34.2139C60.6855 34.2139 61.36 34.4554 61.8203 34.9385C62.2806 35.417 62.5107 36.1097 62.5107 37.0166V42ZM69.9893 39.7305C69.9893 40.5143 69.7158 41.1113 69.1689 41.5215C68.6266 41.9316 67.8132 42.1367 66.7285 42.1367C66.1725 42.1367 65.6986 42.098 65.3066 42.0205C64.9147 41.9476 64.5479 41.8382 64.2061 41.6924V39.9697C64.5934 40.152 65.0286 40.3047 65.5117 40.4277C65.9993 40.5508 66.4277 40.6123 66.7969 40.6123C67.5534 40.6123 67.9316 40.3936 67.9316 39.9561C67.9316 39.792 67.8815 39.6598 67.7812 39.5596C67.681 39.4548 67.5078 39.3385 67.2617 39.2109C67.0156 39.0788 66.6875 38.9261 66.2773 38.7529C65.6895 38.5068 65.2565 38.279 64.9785 38.0693C64.7051 37.8597 64.5046 37.6204 64.377 37.3516C64.2539 37.0781 64.1924 36.7432 64.1924 36.3467C64.1924 35.6676 64.4544 35.1436 64.9785 34.7744C65.5072 34.4007 66.2546 34.2139 67.2207 34.2139C68.1413 34.2139 69.0368 34.4144 69.9072 34.8154L69.2783 36.3193C68.8955 36.1553 68.5378 36.0208 68.2051 35.916C67.8724 35.8112 67.5329 35.7588 67.1865 35.7588C66.5713 35.7588 66.2637 35.9251 66.2637 36.2578C66.2637 36.4447 66.3617 36.6064 66.5576 36.7432C66.7581 36.8799 67.1934 37.0827 67.8633 37.3516C68.4603 37.5931 68.8978 37.8187 69.1758 38.0283C69.4538 38.238 69.6589 38.4795 69.791 38.7529C69.9232 39.0264 69.9893 39.3522 69.9893 39.7305ZM74.7812 35.6973C74.3392 35.6973 73.9928 35.8385 73.7422 36.1211C73.4915 36.3991 73.348 36.7956 73.3115 37.3105H76.2373C76.2282 36.7956 76.0938 36.3991 75.834 36.1211C75.5742 35.8385 75.2233 35.6973 74.7812 35.6973ZM75.0752 42.1367C73.8447 42.1367 72.8831 41.7972 72.1904 41.1182C71.4977 40.4391 71.1514 39.4775 71.1514 38.2334C71.1514 36.9528 71.4704 35.9639 72.1084 35.2666C72.751 34.5648 73.6374 34.2139 74.7676 34.2139C75.8477 34.2139 76.6885 34.5215 77.29 35.1367C77.8916 35.752 78.1924 36.6019 78.1924 37.6865V38.6982H73.2637C73.2865 39.2907 73.4619 39.7533 73.79 40.0859C74.1182 40.4186 74.5785 40.585 75.1709 40.585C75.6312 40.585 76.0664 40.5371 76.4766 40.4414C76.8867 40.3457 77.3151 40.193 77.7617 39.9834V41.5967C77.3971 41.779 77.0075 41.9134 76.5928 42C76.1781 42.0911 75.6722 42.1367 75.0752 42.1367Z" fill="#EB5757"/>
</svg>
