<svg width="117" height="116" viewBox="0 0 117 116" fill="none" xmlns="http://www.w3.org/2000/svg">
<ellipse cx="58.5" cy="57.5513" rx="58.5" ry="57.5513" fill="#1490F5"/>
<path d="M10.0912 24.9956C4.16267 33.6392 0.707135 43.7377 0.0974622 54.2014C-0.512211 64.665 1.74713 75.0965 6.63166 84.3702C11.5162 93.6438 18.8405 101.408 27.8141 106.824C36.7877 112.24 47.07 115.102 57.5514 115.103V64.8622L10.0912 24.9956Z" fill="#2CBAA4"/>
<path d="M57.5514 1.16829e-05C48.2045 -0.00594673 38.9971 2.26732 30.7271 6.62285C22.4571 10.9784 15.3739 17.2848 10.0912 24.9956L57.5514 64.8623V1.16829e-05Z" fill="#EDAE1D"/>
<path d="M82.9427 54.4907C83.3567 54.4907 83.6858 54.6069 83.93 54.8394C84.1761 55.0718 84.2991 55.3901 84.2991 55.7944C84.2991 56.2729 84.1517 56.6411 83.8567 56.8989C83.5618 57.1567 83.1399 57.2856 82.5911 57.2856C82.1146 57.2856 81.7298 57.2085 81.4368 57.0542V56.272C81.5911 56.354 81.7708 56.4214 81.9759 56.4741C82.181 56.5249 82.3753 56.5503 82.5589 56.5503C83.1116 56.5503 83.388 56.3237 83.388 55.8706C83.388 55.439 83.1019 55.2231 82.5296 55.2231C82.4261 55.2231 82.3118 55.2339 82.1868 55.2554C82.0618 55.2749 81.9603 55.2964 81.8821 55.3198L81.5218 55.1265L81.6829 52.9438H84.0062V53.7114H82.4769L82.3978 54.5522L82.5003 54.5317C82.6194 54.5044 82.7669 54.4907 82.9427 54.4907ZM87.7825 55.0854C87.7825 55.8335 87.6595 56.3872 87.4134 56.7466C87.1692 57.106 86.7923 57.2856 86.2825 57.2856C85.7884 57.2856 85.4153 57.1001 85.1634 56.729C84.9134 56.3579 84.7884 55.8101 84.7884 55.0854C84.7884 54.3296 84.9105 53.7729 85.1546 53.4155C85.3987 53.0562 85.7747 52.8765 86.2825 52.8765C86.7767 52.8765 87.1497 53.064 87.4017 53.439C87.6556 53.814 87.7825 54.3628 87.7825 55.0854ZM85.6878 55.0854C85.6878 55.6108 85.7327 55.9878 85.8226 56.2163C85.9144 56.4429 86.0677 56.5562 86.2825 56.5562C86.4935 56.5562 86.6458 56.4409 86.7396 56.2104C86.8333 55.98 86.8802 55.605 86.8802 55.0854C86.8802 54.5601 86.8323 54.1831 86.7366 53.9546C86.6429 53.7241 86.4915 53.6089 86.2825 53.6089C86.0696 53.6089 85.9173 53.7241 85.8255 53.9546C85.7337 54.1831 85.6878 54.5601 85.6878 55.0854ZM88.9222 54.2271C88.9222 54.4751 88.9437 54.6606 88.9866 54.7837C89.0315 54.9048 89.1028 54.9653 89.2005 54.9653C89.388 54.9653 89.4817 54.7192 89.4817 54.2271C89.4817 53.7388 89.388 53.4946 89.2005 53.4946C89.1028 53.4946 89.0315 53.5552 88.9866 53.6763C88.9437 53.7954 88.9222 53.979 88.9222 54.2271ZM90.22 54.2212C90.22 54.6704 90.1331 55.0083 89.9593 55.2349C89.7855 55.4595 89.5306 55.5718 89.1946 55.5718C88.8724 55.5718 88.6233 55.4565 88.4476 55.2261C88.2718 54.9937 88.1839 54.6587 88.1839 54.2212C88.1839 53.3286 88.5208 52.8823 89.1946 52.8823C89.5247 52.8823 89.7776 52.9985 89.9534 53.231C90.1312 53.4614 90.22 53.7915 90.22 54.2212ZM92.2357 52.9438L89.8597 57.2271H89.1565L91.5325 52.9438H92.2357ZM91.9222 55.938C91.9222 56.186 91.9437 56.3716 91.9866 56.4946C92.0315 56.6157 92.1028 56.6763 92.2005 56.6763C92.388 56.6763 92.4817 56.4302 92.4817 55.938C92.4817 55.4497 92.388 55.2056 92.2005 55.2056C92.1028 55.2056 92.0315 55.2661 91.9866 55.3872C91.9437 55.5063 91.9222 55.6899 91.9222 55.938ZM93.22 55.9321C93.22 56.3794 93.1331 56.7163 92.9593 56.9429C92.7855 57.1675 92.5306 57.2798 92.1946 57.2798C91.8724 57.2798 91.6233 57.1646 91.4476 56.9341C91.2718 56.7017 91.1839 56.3677 91.1839 55.9321C91.1839 55.0396 91.5208 54.5933 92.1946 54.5933C92.5247 54.5933 92.7776 54.7095 92.9534 54.9419C93.1312 55.1724 93.22 55.5024 93.22 55.9321ZM79.0667 61.6382C78.7249 61.6382 78.4603 61.7671 78.2728 62.0249C78.0853 62.2808 77.9915 62.6382 77.9915 63.0972C77.9915 64.0522 78.3499 64.5298 79.0667 64.5298C79.3675 64.5298 79.7317 64.4546 80.1595 64.3042V65.0659C79.8079 65.2124 79.4153 65.2856 78.9817 65.2856C78.3587 65.2856 77.8821 65.0972 77.5521 64.7202C77.222 64.3413 77.0569 63.7983 77.0569 63.0913C77.0569 62.646 77.138 62.2563 77.3001 61.9224C77.4622 61.5864 77.6946 61.3296 77.9974 61.1519C78.3021 60.9722 78.6585 60.8823 79.0667 60.8823C79.4827 60.8823 79.9007 60.9829 80.3206 61.1841L80.0276 61.9224C79.8675 61.8462 79.7064 61.7798 79.5442 61.7231C79.3821 61.6665 79.223 61.6382 79.0667 61.6382ZM83.0833 65.2271L82.9105 64.7817H82.887C82.7366 64.9712 82.5814 65.103 82.4212 65.1772C82.263 65.2495 82.056 65.2856 81.8001 65.2856C81.4857 65.2856 81.2376 65.1958 81.056 65.0161C80.8763 64.8364 80.7864 64.5806 80.7864 64.2485C80.7864 63.9009 80.9075 63.645 81.1497 63.481C81.3939 63.3149 81.761 63.2231 82.2513 63.2056L82.8196 63.188V63.0444C82.8196 62.7124 82.6497 62.5464 82.3099 62.5464C82.0482 62.5464 81.7405 62.6255 81.387 62.7837L81.0911 62.1802C81.4681 61.9829 81.886 61.8843 82.345 61.8843C82.7845 61.8843 83.1214 61.98 83.3558 62.1714C83.5901 62.3628 83.7073 62.6538 83.7073 63.0444V65.2271H83.0833ZM82.8196 63.7095L82.4739 63.7212C82.2142 63.729 82.0208 63.7759 81.8939 63.8618C81.7669 63.9478 81.7034 64.0786 81.7034 64.2544C81.7034 64.5063 81.848 64.6323 82.137 64.6323C82.344 64.6323 82.5091 64.5728 82.6321 64.4536C82.7571 64.3345 82.8196 64.1763 82.8196 63.979V63.7095ZM85.5237 65.2271H84.6302V60.6685H85.5237V65.2271ZM87.7942 65.2856C86.7747 65.2856 86.2649 64.7261 86.2649 63.6069C86.2649 63.0503 86.4036 62.6255 86.681 62.3325C86.9583 62.0376 87.3558 61.8901 87.8733 61.8901C88.2523 61.8901 88.5921 61.9644 88.8929 62.1128L88.6292 62.8042C88.4886 62.7476 88.3577 62.7017 88.2366 62.6665C88.1155 62.6294 87.9944 62.6108 87.8733 62.6108C87.4085 62.6108 87.1761 62.9409 87.1761 63.6011C87.1761 64.2417 87.4085 64.562 87.8733 64.562C88.0452 64.562 88.2044 64.5396 88.3509 64.4946C88.4974 64.4478 88.6439 64.3755 88.7903 64.2778V65.0425C88.6458 65.1343 88.4993 65.1978 88.3509 65.2329C88.2044 65.2681 88.0189 65.2856 87.7942 65.2856ZM91.8724 65.2271L91.7523 64.8081H91.7054C91.6097 64.9604 91.4739 65.0786 91.2982 65.1626C91.1224 65.2446 90.9222 65.2856 90.6976 65.2856C90.3128 65.2856 90.0228 65.1831 89.8274 64.978C89.6321 64.771 89.5345 64.4741 89.5345 64.0874V61.9517H90.428V63.8647C90.428 64.1011 90.47 64.2788 90.554 64.3979C90.638 64.5151 90.7718 64.5737 90.9554 64.5737C91.2054 64.5737 91.386 64.4907 91.4974 64.3247C91.6087 64.1567 91.6644 63.8794 91.6644 63.4927V61.9517H92.5579V65.2271H91.8724ZM94.389 65.2271H93.4954V60.6685H94.389V65.2271ZM97.6146 64.2544C97.6146 64.5903 97.4974 64.8462 97.263 65.022C97.0306 65.1978 96.6819 65.2856 96.2171 65.2856C95.9788 65.2856 95.7757 65.269 95.6077 65.2358C95.4398 65.2046 95.2825 65.1577 95.136 65.0952V64.3569C95.3021 64.4351 95.4886 64.5005 95.6956 64.5532C95.9046 64.606 96.0882 64.6323 96.2464 64.6323C96.5706 64.6323 96.7327 64.5386 96.7327 64.3511C96.7327 64.2808 96.7112 64.2241 96.6683 64.1812C96.6253 64.1362 96.5511 64.0864 96.4456 64.0317C96.3401 63.9751 96.1995 63.9097 96.0237 63.8354C95.7718 63.73 95.5862 63.6323 95.4671 63.5425C95.3499 63.4526 95.264 63.3501 95.2093 63.2349C95.1565 63.1177 95.1302 62.9741 95.1302 62.8042C95.1302 62.5132 95.2425 62.2886 95.4671 62.1304C95.6937 61.9702 96.014 61.8901 96.428 61.8901C96.8226 61.8901 97.2064 61.9761 97.5794 62.1479L97.3099 62.7925C97.1458 62.7222 96.9925 62.6646 96.8499 62.6196C96.7073 62.5747 96.5618 62.5522 96.4134 62.5522C96.1497 62.5522 96.0179 62.6235 96.0179 62.7661C96.0179 62.8462 96.0599 62.9155 96.1439 62.9741C96.2298 63.0327 96.4163 63.1196 96.7034 63.2349C96.9593 63.3384 97.1468 63.4351 97.2659 63.5249C97.3851 63.6147 97.473 63.7183 97.5296 63.8354C97.5862 63.9526 97.6146 64.0923 97.6146 64.2544Z" fill="white"/>
<path d="M38.7196 28.1353H37.8144V25.6567L37.8232 25.2495L37.8378 24.8042C37.6874 24.9546 37.5829 25.0532 37.5243 25.1001L37.0321 25.4956L36.5956 24.9507L37.9755 23.8521H38.7196V28.1353ZM41.4677 25.3989C41.8818 25.3989 42.2109 25.5151 42.455 25.7476C42.7011 25.98 42.8241 26.2983 42.8241 26.7026C42.8241 27.1812 42.6767 27.5493 42.3818 27.8071C42.0868 28.0649 41.665 28.1938 41.1161 28.1938C40.6396 28.1938 40.2548 28.1167 39.9618 27.9624V27.1802C40.1161 27.2622 40.2958 27.3296 40.5009 27.3823C40.706 27.4331 40.9003 27.4585 41.0839 27.4585C41.6366 27.4585 41.913 27.2319 41.913 26.7788C41.913 26.3472 41.6269 26.1313 41.0546 26.1313C40.9511 26.1313 40.8368 26.1421 40.7118 26.1636C40.5868 26.1831 40.4853 26.2046 40.4071 26.228L40.0468 26.0347L40.2079 23.8521H42.5312V24.6196H41.0019L40.9228 25.4604L41.0253 25.4399C41.1445 25.4126 41.2919 25.3989 41.4677 25.3989ZM44.0195 25.1353C44.0195 25.3833 44.0409 25.5688 44.0839 25.6919C44.1288 25.813 44.2001 25.8735 44.2978 25.8735C44.4853 25.8735 44.579 25.6274 44.579 25.1353C44.579 24.647 44.4853 24.4028 44.2978 24.4028C44.2001 24.4028 44.1288 24.4634 44.0839 24.5845C44.0409 24.7036 44.0195 24.8872 44.0195 25.1353ZM45.3173 25.1294C45.3173 25.5786 45.2304 25.9165 45.0566 26.1431C44.8827 26.3677 44.6279 26.48 44.2919 26.48C43.9696 26.48 43.7206 26.3647 43.5448 26.1343C43.3691 25.9019 43.2812 25.5669 43.2812 25.1294C43.2812 24.2368 43.6181 23.7905 44.2919 23.7905C44.622 23.7905 44.8749 23.9067 45.0507 24.1392C45.2284 24.3696 45.3173 24.6997 45.3173 25.1294ZM47.3329 23.8521L44.957 28.1353H44.2538L46.6298 23.8521H47.3329ZM47.0195 26.8462C47.0195 27.0942 47.0409 27.2798 47.0839 27.4028C47.1288 27.5239 47.2001 27.5845 47.2978 27.5845C47.4853 27.5845 47.579 27.3384 47.579 26.8462C47.579 26.3579 47.4853 26.1138 47.2978 26.1138C47.2001 26.1138 47.1288 26.1743 47.0839 26.2954C47.0409 26.4146 47.0195 26.5981 47.0195 26.8462ZM48.3173 26.8403C48.3173 27.2876 48.2304 27.6245 48.0566 27.8511C47.8827 28.0757 47.6279 28.188 47.2919 28.188C46.9696 28.188 46.7206 28.0728 46.5448 27.8423C46.3691 27.6099 46.2812 27.2759 46.2812 26.8403C46.2812 25.9478 46.6181 25.5015 47.2919 25.5015C47.622 25.5015 47.8749 25.6177 48.0507 25.8501C48.2284 26.0806 48.3173 26.4106 48.3173 26.8403ZM33.162 36.1353L32.8515 35.1157H31.29L30.9794 36.1353H30.0009L31.5126 31.8345H32.623L34.1405 36.1353H33.162ZM32.6347 34.354C32.3476 33.4302 32.1855 32.9077 32.1484 32.7866C32.1132 32.6655 32.0878 32.5698 32.0722 32.4995C32.0077 32.7495 31.8232 33.3677 31.5185 34.354H32.6347ZM37.6357 36.1353H36.7421V34.2222C36.7421 33.9858 36.7001 33.8091 36.6161 33.6919C36.5321 33.5728 36.3984 33.5132 36.2148 33.5132C35.9648 33.5132 35.7841 33.5972 35.6728 33.7651C35.5614 33.9312 35.5058 34.2075 35.5058 34.5942V36.1353H34.6122V32.8599H35.2948L35.415 33.2788H35.4648C35.5644 33.1206 35.7011 33.0015 35.8749 32.9214C36.0507 32.8394 36.2499 32.7983 36.4726 32.7983C36.8534 32.7983 37.1425 32.9019 37.3398 33.1089C37.537 33.314 37.6357 33.6108 37.6357 33.9995V36.1353ZM38.5175 32.0132C38.5175 31.7222 38.6796 31.5767 39.0038 31.5767C39.328 31.5767 39.4902 31.7222 39.4902 32.0132C39.4902 32.1519 39.4491 32.2603 39.3671 32.3384C39.287 32.4146 39.1659 32.4526 39.0038 32.4526C38.6796 32.4526 38.5175 32.3062 38.5175 32.0132ZM39.4491 36.1353H38.5556V32.8599H39.4491V36.1353ZM43.3222 36.1353H42.4286V34.2222C42.4286 33.9858 42.3886 33.8091 42.3085 33.6919C42.2304 33.5728 42.1064 33.5132 41.9364 33.5132C41.7079 33.5132 41.5419 33.5972 41.4384 33.7651C41.3349 33.9331 41.2831 34.2095 41.2831 34.5942V36.1353H40.3896V32.8599H41.0722L41.1923 33.2788H41.2421C41.33 33.1284 41.457 33.0112 41.623 32.9272C41.789 32.8413 41.9794 32.7983 42.1943 32.7983C42.6845 32.7983 43.0165 32.9585 43.1904 33.2788H43.2695C43.3573 33.1265 43.4863 33.0083 43.6562 32.9243C43.828 32.8403 44.0214 32.7983 44.2363 32.7983C44.6073 32.7983 44.8876 32.894 45.0771 33.0854C45.2685 33.2749 45.3642 33.5796 45.3642 33.9995V36.1353H44.4677V34.2222C44.4677 33.9858 44.4277 33.8091 44.3476 33.6919C44.2695 33.5728 44.1454 33.5132 43.9755 33.5132C43.7568 33.5132 43.5927 33.5913 43.4833 33.7476C43.3759 33.9038 43.3222 34.1519 43.3222 34.4917V36.1353ZM48.3642 36.1353L48.1913 35.6899H48.1679C48.0175 35.8794 47.8622 36.0112 47.7021 36.0854C47.5439 36.1577 47.3368 36.1938 47.081 36.1938C46.7665 36.1938 46.5185 36.104 46.3368 35.9243C46.1572 35.7446 46.0673 35.4888 46.0673 35.1567C46.0673 34.8091 46.1884 34.5532 46.4306 34.3892C46.6747 34.2231 47.0419 34.1313 47.5322 34.1138L48.1005 34.0962V33.9526C48.1005 33.6206 47.9306 33.4546 47.5907 33.4546C47.329 33.4546 47.0214 33.5337 46.6679 33.6919L46.372 33.0884C46.7489 32.8911 47.1669 32.7925 47.6259 32.7925C48.0654 32.7925 48.4023 32.8882 48.6366 33.0796C48.871 33.271 48.9882 33.562 48.9882 33.9526V36.1353H48.3642ZM48.1005 34.6177L47.7548 34.6294C47.495 34.6372 47.3017 34.6841 47.1747 34.77C47.0478 34.856 46.9843 34.9868 46.9843 35.1626C46.9843 35.4146 47.1288 35.5405 47.4179 35.5405C47.6249 35.5405 47.79 35.481 47.913 35.3618C48.038 35.2427 48.1005 35.0845 48.1005 34.8872V34.6177ZM49.873 32.0132C49.873 31.7222 50.0351 31.5767 50.3593 31.5767C50.6835 31.5767 50.8456 31.7222 50.8456 32.0132C50.8456 32.1519 50.8046 32.2603 50.7226 32.3384C50.6425 32.4146 50.5214 32.4526 50.3593 32.4526C50.0351 32.4526 49.873 32.3062 49.873 32.0132ZM50.8046 36.1353H49.9111V32.8599H50.8046V36.1353ZM52.4159 34.4624L51.3613 32.8599H52.3749L53.0107 33.9028L53.6523 32.8599H54.6659L53.5995 34.4624L54.7157 36.1353H53.6991L53.0107 35.0132L52.3193 36.1353H51.3056L52.4159 34.4624Z" fill="white"/>
<path d="M33.9329 67.8154C33.9329 68.083 33.8518 68.3105 33.6897 68.498C33.5276 68.6855 33.3 68.8145 33.0071 68.8848V68.9023C33.3528 68.9453 33.6145 69.0508 33.7922 69.2188C33.97 69.3848 34.0588 69.6094 34.0588 69.8926C34.0588 70.3047 33.9094 70.626 33.6106 70.8564C33.3118 71.085 32.885 71.1992 32.3303 71.1992C31.8655 71.1992 31.4534 71.1221 31.094 70.9678V70.1973C31.26 70.2812 31.4426 70.3496 31.6418 70.4023C31.8411 70.4551 32.0383 70.4814 32.2336 70.4814C32.5325 70.4814 32.7532 70.4307 32.8958 70.3291C33.0383 70.2275 33.1096 70.0645 33.1096 69.8398C33.1096 69.6387 33.0276 69.4961 32.8635 69.4121C32.6995 69.3281 32.4377 69.2861 32.0784 69.2861H31.7532V68.5918H32.0842C32.4163 68.5918 32.6584 68.5488 32.8108 68.4629C32.9651 68.375 33.0422 68.2256 33.0422 68.0146C33.0422 67.6904 32.8391 67.5283 32.4329 67.5283C32.2922 67.5283 32.1487 67.5518 32.0022 67.5986C31.8577 67.6455 31.6965 67.7266 31.5188 67.8418L31.0999 67.2178C31.4905 66.9365 31.9563 66.7959 32.4973 66.7959C32.9407 66.7959 33.2903 66.8857 33.5461 67.0654C33.804 67.2451 33.9329 67.4951 33.9329 67.8154ZM36.092 68.4043C36.5061 68.4043 36.8352 68.5205 37.0793 68.7529C37.3254 68.9854 37.4485 69.3037 37.4485 69.708C37.4485 70.1865 37.301 70.5547 37.0061 70.8125C36.7112 71.0703 36.2893 71.1992 35.7405 71.1992C35.2639 71.1992 34.8791 71.1221 34.5862 70.9678V70.1855C34.7405 70.2676 34.9202 70.335 35.1252 70.3877C35.3303 70.4385 35.5247 70.4639 35.7083 70.4639C36.261 70.4639 36.5374 70.2373 36.5374 69.7842C36.5374 69.3525 36.2512 69.1367 35.679 69.1367C35.5754 69.1367 35.4612 69.1475 35.3362 69.1689C35.2112 69.1885 35.1096 69.21 35.0315 69.2334L34.6711 69.04L34.8323 66.8574H37.1555V67.625H35.6262L35.5471 68.4658L35.6497 68.4453C35.7688 68.418 35.9163 68.4043 36.092 68.4043ZM38.6438 68.1406C38.6438 68.3887 38.6653 68.5742 38.7083 68.6973C38.7532 68.8184 38.8245 68.8789 38.9221 68.8789C39.1096 68.8789 39.2034 68.6328 39.2034 68.1406C39.2034 67.6523 39.1096 67.4082 38.9221 67.4082C38.8245 67.4082 38.7532 67.4688 38.7083 67.5898C38.6653 67.709 38.6438 67.8926 38.6438 68.1406ZM39.9416 68.1348C39.9416 68.584 39.8547 68.9219 39.6809 69.1484C39.5071 69.373 39.2522 69.4854 38.9163 69.4854C38.594 69.4854 38.345 69.3701 38.1692 69.1396C37.9934 68.9072 37.9055 68.5723 37.9055 68.1348C37.9055 67.2422 38.2424 66.7959 38.9163 66.7959C39.2463 66.7959 39.4993 66.9121 39.675 67.1445C39.8528 67.375 39.9416 67.7051 39.9416 68.1348ZM41.9573 66.8574L39.5813 71.1406H38.8782L41.2541 66.8574H41.9573ZM41.6438 69.8516C41.6438 70.0996 41.6653 70.2852 41.7083 70.4082C41.7532 70.5293 41.8245 70.5898 41.9221 70.5898C42.1096 70.5898 42.2034 70.3438 42.2034 69.8516C42.2034 69.3633 42.1096 69.1191 41.9221 69.1191C41.8245 69.1191 41.7532 69.1797 41.7083 69.3008C41.6653 69.4199 41.6438 69.6035 41.6438 69.8516ZM42.9416 69.8457C42.9416 70.293 42.8547 70.6299 42.6809 70.8564C42.5071 71.0811 42.2522 71.1934 41.9163 71.1934C41.594 71.1934 41.345 71.0781 41.1692 70.8477C40.9934 70.6152 40.9055 70.2812 40.9055 69.8457C40.9055 68.9531 41.2424 68.5068 41.9163 68.5068C42.2463 68.5068 42.4993 68.623 42.675 68.8555C42.8528 69.0859 42.9416 69.416 42.9416 69.8457ZM23.2834 76.7354H24.9827V78.9561C24.7073 79.0459 24.4475 79.1084 24.2034 79.1436C23.9612 79.1807 23.7131 79.1992 23.4592 79.1992C22.8127 79.1992 22.3186 79.0098 21.9768 78.6309C21.637 78.25 21.467 77.7041 21.467 76.9932C21.467 76.3018 21.6643 75.7627 22.0588 75.376C22.4553 74.9893 23.0041 74.7959 23.7053 74.7959C24.1448 74.7959 24.5686 74.8838 24.9768 75.0596L24.675 75.7861C24.3625 75.6299 24.0374 75.5518 23.6995 75.5518C23.3069 75.5518 22.9924 75.6836 22.7561 75.9473C22.5198 76.2109 22.4016 76.5654 22.4016 77.0107C22.4016 77.4756 22.4963 77.8311 22.6858 78.0771C22.8772 78.3213 23.1545 78.4434 23.5178 78.4434C23.7073 78.4434 23.8997 78.4238 24.095 78.3848V77.4912H23.2834V76.7354ZM27.2913 76.4395C27.1018 76.4395 26.9534 76.5 26.8459 76.6211C26.7385 76.7402 26.677 76.9102 26.6614 77.1309H27.9153C27.9114 76.9102 27.8538 76.7402 27.7424 76.6211C27.6311 76.5 27.4807 76.4395 27.2913 76.4395ZM27.4172 79.1992C26.8899 79.1992 26.4778 79.0537 26.1809 78.7627C25.884 78.4717 25.7356 78.0596 25.7356 77.5264C25.7356 76.9775 25.8723 76.5537 26.1458 76.2549C26.4211 75.9541 26.801 75.8037 27.2854 75.8037C27.7483 75.8037 28.1086 75.9355 28.3665 76.1992C28.6243 76.4629 28.7532 76.8271 28.7532 77.292V77.7256H26.6409C26.6506 77.9795 26.7258 78.1777 26.8665 78.3203C27.0071 78.4629 27.2043 78.5342 27.4583 78.5342C27.6555 78.5342 27.842 78.5137 28.0178 78.4727C28.1936 78.4316 28.3772 78.3662 28.5686 78.2764V78.9678C28.4124 79.0459 28.2454 79.1035 28.0676 79.1406C27.8899 79.1797 27.6731 79.1992 27.4172 79.1992ZM26.7756 75.5049V75.4258C27.1116 75.0352 27.3411 74.7412 27.4641 74.5439H28.4661V74.6055C28.3645 74.707 28.1907 74.8584 27.9446 75.0596C27.7004 75.2588 27.509 75.4072 27.3704 75.5049H26.7756ZM30.1916 77.4971C30.1916 77.8213 30.2444 78.0664 30.3499 78.2324C30.4573 78.3984 30.6311 78.4814 30.8713 78.4814C31.1096 78.4814 31.2805 78.3994 31.384 78.2354C31.4895 78.0693 31.5422 77.8232 31.5422 77.4971C31.5422 77.1729 31.4895 76.9297 31.384 76.7676C31.2786 76.6055 31.1057 76.5244 30.8655 76.5244C30.6272 76.5244 30.4553 76.6055 30.3499 76.7676C30.2444 76.9277 30.1916 77.1709 30.1916 77.4971ZM32.4563 77.4971C32.4563 78.0303 32.3157 78.4473 32.0344 78.748C31.7532 79.0488 31.3616 79.1992 30.8596 79.1992C30.5452 79.1992 30.2678 79.1309 30.0276 78.9941C29.7874 78.8555 29.6028 78.6572 29.4739 78.3994C29.345 78.1416 29.2805 77.8408 29.2805 77.4971C29.2805 76.9619 29.4202 76.5459 29.6995 76.249C29.9788 75.9521 30.3713 75.8037 30.8772 75.8037C31.1916 75.8037 31.469 75.8721 31.7092 76.0088C31.9495 76.1455 32.134 76.3418 32.2629 76.5977C32.3918 76.8535 32.4563 77.1533 32.4563 77.4971ZM36.1272 79.1406H35.2336V77.2275C35.2336 76.9912 35.1936 76.8145 35.1135 76.6973C35.0354 76.5781 34.9114 76.5186 34.7415 76.5186C34.5129 76.5186 34.3469 76.6025 34.2434 76.7705C34.1399 76.9385 34.0881 77.2148 34.0881 77.5996V79.1406H33.1946V75.8652H33.8772L33.9973 76.2842H34.0471C34.135 76.1338 34.262 76.0166 34.428 75.9326C34.594 75.8467 34.7844 75.8037 34.9993 75.8037C35.4895 75.8037 35.8215 75.9639 35.9954 76.2842H36.0745C36.1624 76.1318 36.2913 76.0137 36.4612 75.9297C36.6331 75.8457 36.8264 75.8037 37.0413 75.8037C37.4124 75.8037 37.6926 75.8994 37.8821 76.0908C38.0735 76.2803 38.1692 76.585 38.1692 77.0049V79.1406H37.2727V77.2275C37.2727 76.9912 37.2327 76.8145 37.1526 76.6973C37.0745 76.5781 36.9504 76.5186 36.7805 76.5186C36.5618 76.5186 36.3977 76.5967 36.2883 76.7529C36.1809 76.9092 36.1272 77.1572 36.1272 77.4971V79.1406ZM40.4456 76.4395C40.2561 76.4395 40.1077 76.5 40.0002 76.6211C39.8928 76.7402 39.8313 76.9102 39.8157 77.1309H41.0696C41.0657 76.9102 41.0081 76.7402 40.8967 76.6211C40.7854 76.5 40.635 76.4395 40.4456 76.4395ZM40.5715 79.1992C40.0442 79.1992 39.6321 79.0537 39.3352 78.7627C39.0383 78.4717 38.8899 78.0596 38.8899 77.5264C38.8899 76.9775 39.0266 76.5537 39.3 76.2549C39.5754 75.9541 39.9553 75.8037 40.4397 75.8037C40.9026 75.8037 41.2629 75.9355 41.5208 76.1992C41.7786 76.4629 41.9075 76.8271 41.9075 77.292V77.7256H39.7952C39.8049 77.9795 39.8801 78.1777 40.0208 78.3203C40.1614 78.4629 40.3586 78.5342 40.6125 78.5342C40.8098 78.5342 40.9963 78.5137 41.1721 78.4727C41.3479 78.4316 41.5315 78.3662 41.7229 78.2764V78.9678C41.5666 79.0459 41.3997 79.1035 41.2219 79.1406C41.0442 79.1797 40.8274 79.1992 40.5715 79.1992ZM44.0139 78.4873C44.1702 78.4873 44.3577 78.4531 44.5764 78.3848V79.0498C44.3538 79.1494 44.0803 79.1992 43.7561 79.1992C43.3987 79.1992 43.1379 79.1094 42.9739 78.9297C42.8118 78.748 42.7307 78.4766 42.7307 78.1152V76.5361H42.303V76.1582L42.7952 75.8594L43.053 75.168H43.6243V75.8652H44.5413V76.5361H43.6243V78.1152C43.6243 78.2422 43.6594 78.3359 43.7297 78.3965C43.802 78.457 43.8967 78.4873 44.0139 78.4873ZM47.0696 75.8037C47.1907 75.8037 47.2913 75.8125 47.3713 75.8301L47.304 76.668C47.2317 76.6484 47.1438 76.6387 47.0403 76.6387C46.7551 76.6387 46.5325 76.7119 46.3723 76.8584C46.2141 77.0049 46.135 77.21 46.135 77.4736V79.1406H45.2415V75.8652H45.9182L46.05 76.416H46.094C46.1956 76.2324 46.3323 76.085 46.5041 75.9736C46.678 75.8604 46.8665 75.8037 47.0696 75.8037ZM47.928 75.0186C47.928 74.7275 48.0901 74.582 48.4143 74.582C48.7385 74.582 48.9006 74.7275 48.9006 75.0186C48.9006 75.1572 48.8596 75.2656 48.7776 75.3438C48.6975 75.4199 48.5764 75.458 48.4143 75.458C48.0901 75.458 47.928 75.3115 47.928 75.0186ZM48.8596 79.1406H47.9661V75.8652H48.8596V79.1406ZM51.1565 76.4395C50.967 76.4395 50.8186 76.5 50.7112 76.6211C50.6038 76.7402 50.5422 76.9102 50.5266 77.1309H51.7805C51.7766 76.9102 51.719 76.7402 51.6077 76.6211C51.4963 76.5 51.3459 76.4395 51.1565 76.4395ZM51.2825 79.1992C50.7551 79.1992 50.343 79.0537 50.0461 78.7627C49.7493 78.4717 49.6008 78.0596 49.6008 77.5264C49.6008 76.9775 49.7375 76.5537 50.011 76.2549C50.2864 75.9541 50.6663 75.8037 51.1506 75.8037C51.6135 75.8037 51.9739 75.9355 52.2317 76.1992C52.4895 76.4629 52.6184 76.8271 52.6184 77.292V77.7256H50.5061C50.5159 77.9795 50.5911 78.1777 50.7317 78.3203C50.8723 78.4629 51.0696 78.5342 51.3235 78.5342C51.5208 78.5342 51.7073 78.5137 51.8831 78.4727C52.0588 78.4316 52.2424 78.3662 52.4338 78.2764V78.9678C52.2776 79.0459 52.1106 79.1035 51.9329 79.1406C51.7551 79.1797 51.5383 79.1992 51.2825 79.1992Z" fill="white"/>
</svg>
