<svg width="192" height="180" viewBox="0 0 192 180" fill="none" xmlns="http://www.w3.org/2000/svg">
<g clip-path="url(#clip0)">
<path d="M111.567 117.646V180H192V117.646H111.567ZM181.497 134.321H175.267V128.109H181.497V134.321Z" fill="#3F3D56"/>
<path d="M104.822 117.646H0V133.946H104.822V117.646Z" fill="#3F3D56"/>
<path d="M104.822 140.673H0V156.973H104.822V140.673Z" fill="#3F3D56"/>
<path d="M104.822 163.7H0V180H104.822V163.7Z" fill="#3F3D56"/>
<path d="M23.8703 38.9922H18.6812V45.7192H23.8703V38.9922Z" fill="#3F3D56"/>
<path d="M158.53 96.689V91.5144H151.784V96.689H158.53Z" fill="#3F3D56"/>
<path d="M73.676 140.673H104.821V156.973H64.2393L73.676 140.673Z" fill="white"/>
<path d="M60.3427 163.7H104.822V180H50.9062L60.3427 163.7Z" fill="white"/>
<path d="M77.0261 80.1179C76.5794 79.6713 76.136 79.2101 75.708 78.7469L76.1723 78.3203C76.5946 78.7778 77.0321 79.2329 77.4728 79.6734L77.0261 80.1179Z" fill="#3F3D56"/>
<path d="M73.1995 75.7937C72.4074 74.7792 71.6487 73.7198 70.9445 72.6448L71.4727 72.3005C72.1676 73.361 72.9161 74.4063 73.6975 75.407L73.1995 75.7937ZM68.9591 69.3202C68.3465 68.1902 67.7738 67.0202 67.257 65.8432L67.8352 65.5907C68.345 66.752 68.9098 67.9061 69.5142 69.0208L68.9591 69.3202ZM65.8498 62.2375C65.4332 61.0241 65.0616 59.7766 64.7451 58.5293L65.357 58.3748C65.6691 59.6056 66.0359 60.8365 66.4468 62.0336L65.8498 62.2375ZM64.569 54.6386L63.9468 54.7431C63.7326 53.4743 63.5686 52.1833 63.4592 50.9062L64.0881 50.8526C64.196 52.1128 64.3578 53.3866 64.569 54.6386V54.6386ZM63.9198 47.0403L63.2887 47.042C63.2854 45.7573 63.3359 44.4569 63.439 43.1767L64.0682 43.227C63.9663 44.4901 63.9165 45.773 63.9198 47.0403V47.0403ZM64.5331 39.439L63.9104 39.3367C64.1199 38.0688 64.3856 36.7935 64.7 35.5464L65.3121 35.6999C65.0018 36.9302 64.7397 38.1882 64.5331 39.439V39.439ZM149.037 21.2255C148.331 20.1729 147.571 19.136 146.779 18.1434L147.273 17.7516C148.076 18.7577 148.846 19.8088 149.561 20.8756L149.037 21.2255ZM66.3984 32.0381L65.8012 31.8349C66.2173 30.6196 66.6897 29.4059 67.2053 28.2272L67.7837 28.4788C67.2751 29.6417 66.8089 30.8393 66.3984 32.0381V32.0381ZM144.275 15.2574C143.404 14.3345 142.484 13.436 141.54 12.5869L141.963 12.1195C142.92 12.9802 143.852 13.8909 144.734 14.8263L144.275 15.2574ZM69.4576 25.0451L68.9017 24.747C69.5122 23.6153 70.1771 22.4952 70.8782 21.4175L71.4075 21.7598C70.7159 22.8232 70.0598 23.9285 69.4576 25.0451ZM138.595 10.1486C137.584 9.37923 136.529 8.64241 135.459 7.95855L135.8 7.42871C136.884 8.12186 137.954 8.86861 138.978 9.64824L138.595 10.1486ZM73.6204 18.645L73.1209 18.2606C73.9078 17.2438 74.747 16.2469 75.6149 15.2976L76.0813 15.7216C75.2249 16.6583 74.3969 17.6418 73.6204 18.645L73.6204 18.645ZM132.155 6.03176C131.032 5.43726 129.87 4.88194 128.702 4.38145L128.952 3.80314C130.135 4.31058 131.312 4.87325 132.451 5.47578L132.155 6.03176ZM78.7735 13.0099L78.3437 12.5492C79.2874 11.6738 80.2786 10.8276 81.2897 10.0341L81.68 10.5287C80.6824 11.3115 79.7046 12.1463 78.7735 13.0099ZM125.126 3.01945C123.919 2.61589 122.682 2.25817 121.449 1.95624L121.599 1.34493C122.849 1.65113 124.103 2.01377 125.327 2.42263L125.126 3.01945ZM84.7813 8.29548L84.4333 7.77056C85.5077 7.06252 86.6246 6.39091 87.7532 5.7745L88.0563 6.32652C86.943 6.93451 85.8411 7.59698 84.7813 8.29548ZM117.696 1.19971C116.441 1.00045 115.162 0.851281 113.893 0.756457L113.941 0.128987C115.226 0.225045 116.523 0.376178 117.795 0.578213L117.696 1.19971ZM91.4861 4.63385L91.23 4.05871C92.4057 3.53776 93.6194 3.05912 94.8371 2.63589L95.0448 3.23018C93.8435 3.64777 92.6462 4.11996 91.4861 4.63385ZM110.067 0.629286C108.799 0.639471 107.512 0.702854 106.244 0.817852L106.187 0.191031C107.473 0.0746164 108.776 0.0102208 110.062 0L110.067 0.629286ZM98.7073 2.12372L98.5491 1.51444C99.7943 1.19296 101.074 0.917877 102.341 0.698068L102.449 1.3182C101.198 1.53499 99.9362 1.8066 98.7073 2.12372Z" fill="#3F3D56"/>
<path d="M151.93 26.1844C151.651 25.6282 151.356 25.07 151.054 24.5255L151.606 24.2207C151.912 24.7728 152.211 25.3385 152.494 25.9024L151.93 26.1844Z" fill="#3F3D56"/>
<path d="M168.856 180L139.368 129.072L132.752 117.646L117.475 91.2556L109.881 78.1406L102.286 91.2556L87.0095 117.646L80.3932 129.072L77.5703 133.946H104.821V117.646H111.567V180H168.856ZM131.02 153.747C131.768 153.747 132.501 153.968 133.123 154.383C133.746 154.798 134.231 155.388 134.518 156.078C134.805 156.768 134.88 157.527 134.733 158.259C134.587 158.992 134.227 159.665 133.697 160.193C133.168 160.721 132.493 161.08 131.758 161.226C131.024 161.372 130.262 161.297 129.57 161.011C128.878 160.725 128.287 160.241 127.871 159.62C127.455 159 127.233 158.269 127.233 157.523C127.234 156.521 127.633 155.562 128.343 154.854C129.053 154.146 130.016 153.748 131.02 153.747ZM109.177 104.145L104.928 99.6021L109.484 95.365L113.733 99.9077L109.177 104.145Z" fill="white"/>
<path d="M105.046 68.029C106.789 68.029 108.202 66.6202 108.202 64.8823C108.202 63.1444 106.789 61.7356 105.046 61.7356C103.303 61.7356 101.891 63.1444 101.891 64.8823C101.891 66.6202 103.303 68.029 105.046 68.029Z" fill="white"/>
<path d="M108.678 19.3591C102.631 20.5206 97.0655 23.4441 92.685 27.7599C88.3044 32.0756 85.3055 37.5898 84.0677 43.6051C82.8298 49.6204 83.4085 55.8666 85.7306 61.5539C88.0527 67.2412 92.0139 72.1142 97.1133 75.5565C102.213 78.9989 108.221 80.8561 114.379 80.8932C120.537 80.9303 126.567 79.1458 131.708 75.7651C136.849 72.3845 140.869 67.5597 143.26 61.9008C145.651 56.2419 146.305 50.0031 145.14 43.9734C144.367 39.9697 142.81 36.1572 140.559 32.7535C138.308 29.3498 135.407 26.4215 132.021 24.1358C128.635 21.8502 124.831 20.2519 120.826 19.4323C116.821 18.6127 112.693 18.5879 108.678 19.3591ZM105.762 68.5901C105.027 68.7314 104.266 68.652 103.576 68.362C102.885 68.0721 102.297 67.5845 101.885 66.961C101.472 66.3376 101.255 65.6062 101.259 64.8594C101.264 64.1125 101.49 63.3838 101.91 62.7654C102.33 62.1469 102.924 61.6665 103.618 61.3849C104.311 61.1033 105.073 61.0331 105.807 61.1832C106.541 61.3333 107.213 61.697 107.74 62.2283C108.266 62.7596 108.622 63.4346 108.764 64.1679C108.953 65.1512 108.743 66.169 108.18 66.998C107.617 67.827 106.748 68.3996 105.762 68.5901ZM126.743 41.0386L120.626 42.2136L119.448 36.1138L125.565 34.9388L126.743 41.0386Z" fill="white"/>
<path d="M49.3088 105.884C60.6291 105.884 69.8061 96.7333 69.8061 85.4448C69.8061 74.1563 60.6291 65.0051 49.3088 65.0051C37.9885 65.0051 28.8115 74.1563 28.8115 85.4448C28.8115 96.7333 37.9885 105.884 49.3088 105.884Z" fill="#2F2E41"/>
<path d="M41.3923 113.435L35.2646 112.329L37.2521 99.5703L43.3795 100.676L41.3923 113.435Z" fill="#2F2E41"/>
<path d="M55.6343 102.889L49.5068 101.782L47.5194 112.73L53.6469 113.836L55.6343 102.889Z" fill="#2F2E41"/>
<path d="M55.6115 118.003C56.3061 117.185 55.0962 115.025 52.9092 113.178C50.7222 111.331 48.3862 110.497 47.6917 111.315C46.9971 112.133 48.207 114.293 50.394 116.14C52.581 117.987 54.917 118.821 55.6115 118.003Z" fill="#2F2E41"/>
<path d="M43.612 117.648C44.3066 116.83 43.0967 114.67 40.9097 112.823C38.7227 110.976 36.3867 110.142 35.6922 110.96C34.9976 111.778 36.2075 113.938 38.3945 115.785C40.5815 117.632 42.9174 118.466 43.612 117.648Z" fill="#2F2E41"/>
<path d="M50.7437 87.4307C54.6127 87.4307 57.7491 84.303 57.7491 80.4449C57.7491 76.5868 54.6127 73.4592 50.7437 73.4592C46.8747 73.4592 43.7383 76.5868 43.7383 80.4449C43.7383 84.303 46.8747 87.4307 50.7437 87.4307Z" fill="white"/>
<path d="M53.6227 80.2695C54.9124 80.2695 55.9579 79.2269 55.9579 77.9409C55.9579 76.6548 54.9124 75.6123 53.6227 75.6123C52.3331 75.6123 51.2876 76.6548 51.2876 77.9409C51.2876 79.2269 52.3331 80.2695 53.6227 80.2695Z" fill="#3F3D56"/>
<path d="M33.1389 63.2086C32.8306 55.6416 39.3708 49.2322 47.7466 48.8929C56.1225 48.5537 63.1624 54.4129 63.4706 61.98C63.7789 69.5471 57.9566 71.2664 49.5807 71.6057C41.2048 71.9449 33.4471 70.7757 33.1389 63.2086Z" fill="white"/>
<path d="M68.9536 84.8483C74.4707 83.5872 78.6213 81.1649 78.2243 79.4377C77.8274 77.7106 73.033 77.3328 67.5159 78.5939C61.9989 79.8549 57.8482 82.2773 58.2452 84.0044C58.6422 85.7315 63.4365 86.1094 68.9536 84.8483Z" fill="#2F2E41"/>
<path d="M28.7183 91.5204C34.2353 90.2594 38.386 87.837 37.989 86.1099C37.592 84.3828 32.7977 84.0049 27.2806 85.266C21.7635 86.527 17.6128 88.9494 18.0098 90.6765C18.4068 92.4036 23.2012 92.7815 28.7183 91.5204Z" fill="#2F2E41"/>
<path d="M43.6792 93.4998C43.5699 94.1016 43.5806 94.7189 43.7106 95.3166C43.8407 95.9143 44.0874 96.4806 44.4369 96.9832C45.1428 97.9981 46.224 98.692 47.4428 98.912C48.6617 99.132 49.9182 98.8602 50.9361 98.1564C51.9539 97.4525 52.6497 96.3743 52.8703 95.1589C53.3298 92.628 51.3675 91.7324 48.8294 91.2743C46.2913 90.8161 44.1386 90.9688 43.6792 93.4998Z" fill="white"/>
</g>
<defs>
<clipPath id="clip0">
<rect width="192" height="180" fill="white"/>
</clipPath>
</defs>
</svg>
