<svg width="92" height="121" viewBox="0 0 92 121" fill="none" xmlns="http://www.w3.org/2000/svg">
<path d="M0.646447 18.6464C0.451184 18.8417 0.451184 19.1583 0.646447 19.3536L3.82843 22.5355C4.02369 22.7308 4.34027 22.7308 4.53553 22.5355C4.7308 22.3403 4.7308 22.0237 4.53553 21.8284L1.70711 19L4.53553 16.1716C4.7308 15.9763 4.7308 15.6597 4.53553 15.4645C4.34027 15.2692 4.02369 15.2692 3.82843 15.4645L0.646447 18.6464ZM91.3536 19.3536C91.5488 19.1583 91.5488 18.8417 91.3536 18.6464L88.1716 15.4645C87.9763 15.2692 87.6597 15.2692 87.4645 15.4645C87.2692 15.6597 87.2692 15.9763 87.4645 16.1716L90.2929 19L87.4645 21.8284C87.2692 22.0237 87.2692 22.3403 87.4645 22.5355C87.6597 22.7308 87.9763 22.7308 88.1716 22.5355L91.3536 19.3536ZM1 19.5L91 19.5L91 18.5L1 18.5L1 19.5Z" fill="black"/>
<rect x="1" y="31" width="90" height="90" fill="black"/>
<path d="M38.4512 11H33.4609V9.9502L35.2529 8.13867C35.7835 7.59505 36.1302 7.21908 36.293 7.01074C36.4557 6.79915 36.5729 6.60384 36.6445 6.4248C36.7161 6.24577 36.752 6.06022 36.752 5.86816C36.752 5.58171 36.6722 5.36849 36.5127 5.22852C36.3564 5.08854 36.1465 5.01855 35.8828 5.01855C35.6061 5.01855 35.3376 5.08203 35.0771 5.20898C34.8167 5.33594 34.5449 5.5166 34.2617 5.75098L33.4414 4.7793C33.793 4.47982 34.0843 4.26823 34.3154 4.14453C34.5465 4.02083 34.7988 3.92643 35.0723 3.86133C35.3457 3.79297 35.6517 3.75879 35.9902 3.75879C36.4362 3.75879 36.8301 3.84017 37.1719 4.00293C37.5137 4.16569 37.779 4.39355 37.9678 4.68652C38.1566 4.97949 38.251 5.31478 38.251 5.69238C38.251 6.02116 38.1924 6.3304 38.0752 6.62012C37.9613 6.90658 37.7822 7.20117 37.5381 7.50391C37.2972 7.80664 36.8708 8.23796 36.2588 8.79785L35.3408 9.66211V9.73047H38.4512V11ZM46.9668 11.0977C45.2676 11.0977 44.418 10.165 44.418 8.2998C44.418 7.37207 44.6491 6.66406 45.1113 6.17578C45.5736 5.68424 46.236 5.43848 47.0986 5.43848C47.7301 5.43848 48.2965 5.56217 48.7979 5.80957L48.3584 6.96191C48.124 6.86751 47.9059 6.79102 47.7041 6.73242C47.5023 6.67057 47.3005 6.63965 47.0986 6.63965C46.3239 6.63965 45.9365 7.18978 45.9365 8.29004C45.9365 9.35775 46.3239 9.8916 47.0986 9.8916C47.3851 9.8916 47.6504 9.85417 47.8945 9.7793C48.1387 9.70117 48.3828 9.58073 48.627 9.41797V10.6924C48.3861 10.8454 48.1419 10.9512 47.8945 11.0098C47.6504 11.0684 47.3411 11.0977 46.9668 11.0977ZM54.7842 11H53.2949V7.81152C53.2949 7.41764 53.2282 7.12305 53.0947 6.92773C52.9645 6.72917 52.7578 6.62988 52.4746 6.62988C52.0938 6.62988 51.8171 6.76986 51.6445 7.0498C51.472 7.32975 51.3857 7.79036 51.3857 8.43164V11H49.8965V5.54102H51.0342L51.2344 6.23926H51.3174C51.4639 5.98861 51.6755 5.79329 51.9521 5.65332C52.2288 5.51009 52.5462 5.43848 52.9043 5.43848C53.7214 5.43848 54.2747 5.7054 54.5645 6.23926H54.6963C54.8428 5.98535 55.0576 5.78841 55.3408 5.64844C55.6273 5.50846 55.9495 5.43848 56.3076 5.43848C56.9261 5.43848 57.3932 5.59798 57.709 5.91699C58.028 6.23275 58.1875 6.74056 58.1875 7.44043V11H56.6934V7.81152C56.6934 7.41764 56.6266 7.12305 56.4932 6.92773C56.363 6.72917 56.1562 6.62988 55.873 6.62988C55.5085 6.62988 55.235 6.76009 55.0527 7.02051C54.8737 7.28092 54.7842 7.69434 54.7842 8.26074V11Z" fill="black"/>
</svg>
