<svg width="92" height="121" viewBox="0 0 92 121" fill="none" xmlns="http://www.w3.org/2000/svg">
<path d="M0.646447 18.6464C0.451184 18.8417 0.451184 19.1583 0.646447 19.3536L3.82843 22.5355C4.02369 22.7308 4.34027 22.7308 4.53553 22.5355C4.7308 22.3403 4.7308 22.0237 4.53553 21.8284L1.70711 19L4.53553 16.1716C4.7308 15.9763 4.7308 15.6597 4.53553 15.4645C4.34027 15.2692 4.02369 15.2692 3.82843 15.4645L0.646447 18.6464ZM91.3536 19.3536C91.5488 19.1583 91.5488 18.8417 91.3536 18.6464L88.1716 15.4645C87.9763 15.2692 87.6597 15.2692 87.4645 15.4645C87.2692 15.6597 87.2692 15.9763 87.4645 16.1716L90.2929 19L87.4645 21.8284C87.2692 22.0237 87.2692 22.3403 87.4645 22.5355C87.6597 22.7308 87.9763 22.7308 88.1716 22.5355L91.3536 19.3536ZM1 19.5L91 19.5L91 18.5L1 18.5L1 19.5Z" fill="black"/>
<rect x="1" y="31" width="90" height="90" fill="black"/>
<path d="M36.0586 6.43945C36.7487 6.43945 37.2972 6.63314 37.7041 7.02051C38.1143 7.40788 38.3193 7.93848 38.3193 8.6123C38.3193 9.40983 38.0736 10.0234 37.582 10.4531C37.0905 10.8828 36.3874 11.0977 35.4727 11.0977C34.6784 11.0977 34.0371 10.9691 33.5488 10.7119V9.4082C33.806 9.54492 34.1055 9.65723 34.4473 9.74512C34.7891 9.82975 35.113 9.87207 35.4189 9.87207C36.3402 9.87207 36.8008 9.49447 36.8008 8.73926C36.8008 8.01986 36.3239 7.66016 35.3701 7.66016C35.1976 7.66016 35.0072 7.67806 34.7988 7.71387C34.5905 7.74642 34.4212 7.78223 34.291 7.82129L33.6904 7.49902L33.959 3.86133H37.8311V5.14062H35.2822L35.1504 6.54199L35.3213 6.50781C35.5199 6.46224 35.7656 6.43945 36.0586 6.43945ZM46.9668 11.0977C45.2676 11.0977 44.418 10.165 44.418 8.2998C44.418 7.37207 44.6491 6.66406 45.1113 6.17578C45.5736 5.68424 46.236 5.43848 47.0986 5.43848C47.7301 5.43848 48.2965 5.56217 48.7979 5.80957L48.3584 6.96191C48.124 6.86751 47.9059 6.79102 47.7041 6.73242C47.5023 6.67057 47.3005 6.63965 47.0986 6.63965C46.3239 6.63965 45.9365 7.18978 45.9365 8.29004C45.9365 9.35775 46.3239 9.8916 47.0986 9.8916C47.3851 9.8916 47.6504 9.85417 47.8945 9.7793C48.1387 9.70117 48.3828 9.58073 48.627 9.41797V10.6924C48.3861 10.8454 48.1419 10.9512 47.8945 11.0098C47.6504 11.0684 47.3411 11.0977 46.9668 11.0977ZM54.7842 11H53.2949V7.81152C53.2949 7.41764 53.2282 7.12305 53.0947 6.92773C52.9645 6.72917 52.7578 6.62988 52.4746 6.62988C52.0938 6.62988 51.8171 6.76986 51.6445 7.0498C51.472 7.32975 51.3857 7.79036 51.3857 8.43164V11H49.8965V5.54102H51.0342L51.2344 6.23926H51.3174C51.4639 5.98861 51.6755 5.79329 51.9521 5.65332C52.2288 5.51009 52.5462 5.43848 52.9043 5.43848C53.7214 5.43848 54.2747 5.7054 54.5645 6.23926H54.6963C54.8428 5.98535 55.0576 5.78841 55.3408 5.64844C55.6273 5.50846 55.9495 5.43848 56.3076 5.43848C56.9261 5.43848 57.3932 5.59798 57.709 5.91699C58.028 6.23275 58.1875 6.74056 58.1875 7.44043V11H56.6934V7.81152C56.6934 7.41764 56.6266 7.12305 56.4932 6.92773C56.363 6.72917 56.1562 6.62988 55.873 6.62988C55.5085 6.62988 55.235 6.76009 55.0527 7.02051C54.8737 7.28092 54.7842 7.69434 54.7842 8.26074V11Z" fill="black"/>
</svg>
