<svg width="133" height="117" viewBox="0 0 133 117" fill="none" xmlns="http://www.w3.org/2000/svg">
<path d="M8.33751 29.5387L58.5 0.57735L108.662 29.5387V87.4613L58.5 116.423L8.33751 87.4613V29.5387Z" fill="black" stroke="black"/>
<path d="M116.646 84.4262C116.842 84.6214 117.158 84.6214 117.354 84.4262L120.536 81.2442C120.731 81.0489 120.731 80.7324 120.536 80.5371C120.34 80.3418 120.024 80.3418 119.828 80.5371L117 83.3655L114.172 80.5371C113.976 80.3418 113.66 80.3418 113.464 80.5371C113.269 80.7324 113.269 81.0489 113.464 81.2442L116.646 84.4262ZM117.354 28.6464C117.158 28.4511 116.842 28.4511 116.646 28.6464L113.464 31.8284C113.269 32.0236 113.269 32.3402 113.464 32.5355C113.66 32.7308 113.976 32.7308 114.172 32.5355L117 29.7071L119.828 32.5355C120.024 32.7308 120.34 32.7308 120.536 32.5355C120.731 32.3402 120.731 32.0236 120.536 31.8284L117.354 28.6464ZM117.5 84.0726L117.5 29H116.5L116.5 84.0726H117.5Z" fill="black"/>
<path d="M122 51.0488V46.0586H123.05L124.861 47.8506C125.405 48.3812 125.781 48.7279 125.989 48.8906C126.201 49.0534 126.396 49.1706 126.575 49.2422C126.754 49.3138 126.94 49.3496 127.132 49.3496C127.418 49.3496 127.632 49.2699 127.771 49.1104C127.911 48.9541 127.981 48.7441 127.981 48.4805C127.981 48.2038 127.918 47.9352 127.791 47.6748C127.664 47.4144 127.483 47.1426 127.249 46.8594L128.221 46.0391C128.52 46.3906 128.732 46.682 128.855 46.9131C128.979 47.1442 129.074 47.3965 129.139 47.6699C129.207 47.9434 129.241 48.2493 129.241 48.5879C129.241 49.0339 129.16 49.4277 128.997 49.7695C128.834 50.1113 128.606 50.3766 128.313 50.5654C128.021 50.7542 127.685 50.8486 127.308 50.8486C126.979 50.8486 126.67 50.79 126.38 50.6729C126.093 50.5589 125.799 50.3799 125.496 50.1357C125.193 49.8949 124.762 49.4684 124.202 48.8564L123.338 47.9385H123.27V51.0488H122ZM121.902 54.3691C121.902 52.6699 122.835 51.8203 124.7 51.8203C125.628 51.8203 126.336 52.0514 126.824 52.5137C127.316 52.9759 127.562 53.6383 127.562 54.501C127.562 55.1325 127.438 55.6989 127.19 56.2002L126.038 55.7607C126.132 55.5264 126.209 55.3083 126.268 55.1064C126.329 54.9046 126.36 54.7028 126.36 54.501C126.36 53.7262 125.81 53.3389 124.71 53.3389C123.642 53.3389 123.108 53.7262 123.108 54.501C123.108 54.7874 123.146 55.0527 123.221 55.2969C123.299 55.541 123.419 55.7852 123.582 56.0293H122.308C122.155 55.7884 122.049 55.5443 121.99 55.2969C121.932 55.0527 121.902 54.7435 121.902 54.3691ZM122 62.1865V60.6973H125.188C125.582 60.6973 125.877 60.6305 126.072 60.4971C126.271 60.3669 126.37 60.1602 126.37 59.877C126.37 59.4961 126.23 59.2194 125.95 59.0469C125.67 58.8743 125.21 58.7881 124.568 58.7881H122V57.2988H127.459V58.4365L126.761 58.6367V58.7197C127.011 58.8662 127.207 59.0778 127.347 59.3545C127.49 59.6312 127.562 59.9486 127.562 60.3066C127.562 61.1237 127.295 61.6771 126.761 61.9668V62.0986C127.015 62.2451 127.212 62.46 127.352 62.7432C127.492 63.0296 127.562 63.3519 127.562 63.71C127.562 64.3285 127.402 64.7956 127.083 65.1113C126.767 65.4303 126.259 65.5898 125.56 65.5898H122V64.0957H125.188C125.582 64.0957 125.877 64.029 126.072 63.8955C126.271 63.7653 126.37 63.5586 126.37 63.2754C126.37 62.9108 126.24 62.6374 125.979 62.4551C125.719 62.276 125.306 62.1865 124.739 62.1865H122Z" fill="black"/>
</svg>
