<svg width="196" height="91" viewBox="0 0 196 91" fill="none" xmlns="http://www.w3.org/2000/svg">
<path d="M83.6464 16.6464C83.4512 16.8417 83.4512 17.1583 83.6464 17.3536L86.8284 20.5355C87.0237 20.7308 87.3403 20.7308 87.5355 20.5355C87.7308 20.3403 87.7308 20.0237 87.5355 19.8284L84.7071 17L87.5355 14.1716C87.7308 13.9763 87.7308 13.6597 87.5355 13.4645C87.3403 13.2692 87.0237 13.2692 86.8284 13.4645L83.6464 16.6464ZM171.354 17.3536C171.549 17.1583 171.549 16.8417 171.354 16.6464L168.172 13.4645C167.976 13.2692 167.66 13.2692 167.464 13.4645C167.269 13.6597 167.269 13.9763 167.464 14.1716L170.293 17L167.464 19.8284C167.269 20.0237 167.269 20.3403 167.464 20.5355C167.66 20.7308 167.976 20.7308 168.172 20.5355L171.354 17.3536ZM84 17.5L171 17.5V16.5L84 16.5V17.5Z" fill="black"/>
<path d="M19.8536 29.6406C19.6583 29.4453 19.3417 29.4453 19.1464 29.6406L15.9645 32.8226C15.7692 33.0178 15.7692 33.3344 15.9645 33.5297C16.1597 33.7249 16.4763 33.7249 16.6716 33.5297L19.5 30.7012L22.3284 33.5297C22.5237 33.7249 22.8403 33.7249 23.0355 33.5297C23.2308 33.3344 23.2308 33.0178 23.0355 32.8226L19.8536 29.6406ZM19.1464 74.3591C19.3417 74.5543 19.6583 74.5543 19.8536 74.3591L23.0355 71.1771C23.2308 70.9818 23.2308 70.6652 23.0355 70.47C22.8403 70.2747 22.5237 70.2747 22.3284 70.47L19.5 73.2984L16.6716 70.47C16.4763 70.2747 16.1597 70.2747 15.9645 70.47C15.7692 70.6652 15.7692 70.9818 15.9645 71.1771L19.1464 74.3591ZM19 29.9941L19 74.0055H20L20 29.9941H19Z" fill="black"/>
<path d="M177.564 35.9867C177.557 35.7107 177.327 35.4928 177.051 35.5002L172.552 35.6199C172.276 35.6272 172.059 35.8569 172.066 36.133C172.073 36.409 172.303 36.6269 172.579 36.6195L176.578 36.5131L176.684 40.5117C176.691 40.7878 176.921 41.0056 177.197 40.9982C177.473 40.9909 177.691 40.7612 177.684 40.4851L177.564 35.9867ZM140.5 74.0489C140.508 74.325 140.737 74.5428 141.013 74.5355L145.512 74.4158C145.788 74.4084 146.006 74.1787 145.998 73.9027C145.991 73.6266 145.761 73.4088 145.485 73.4161L141.487 73.5225L141.38 69.5239C141.373 69.2479 141.143 69.0301 140.867 69.0374C140.591 69.0448 140.373 69.2745 140.38 69.5505L140.5 74.0489ZM176.701 35.656L140.637 73.6916L141.363 74.3797L177.427 36.344L176.701 35.656Z" fill="black"/>
<path d="M122.591 73.2266L37.1003 73.2266L79.3076 30.3021L165.874 30.3021L122.591 73.2266Z" fill="black"/>
<path d="M107.169 11L109.85 5.14062H106.329V3.87109H111.451V4.81836L108.751 11H107.169ZM119.967 11.0977C118.268 11.0977 117.418 10.165 117.418 8.2998C117.418 7.37207 117.649 6.66406 118.111 6.17578C118.574 5.68424 119.236 5.43848 120.099 5.43848C120.73 5.43848 121.297 5.56217 121.798 5.80957L121.358 6.96191C121.124 6.86751 120.906 6.79102 120.704 6.73242C120.502 6.67057 120.3 6.63965 120.099 6.63965C119.324 6.63965 118.937 7.18978 118.937 8.29004C118.937 9.35775 119.324 9.8916 120.099 9.8916C120.385 9.8916 120.65 9.85417 120.895 9.7793C121.139 9.70117 121.383 9.58073 121.627 9.41797V10.6924C121.386 10.8454 121.142 10.9512 120.895 11.0098C120.65 11.0684 120.341 11.0977 119.967 11.0977ZM127.784 11H126.295V7.81152C126.295 7.41764 126.228 7.12305 126.095 6.92773C125.965 6.72917 125.758 6.62988 125.475 6.62988C125.094 6.62988 124.817 6.76986 124.645 7.0498C124.472 7.32975 124.386 7.79036 124.386 8.43164V11H122.896V5.54102H124.034L124.234 6.23926H124.317C124.464 5.98861 124.675 5.79329 124.952 5.65332C125.229 5.51009 125.546 5.43848 125.904 5.43848C126.721 5.43848 127.275 5.7054 127.564 6.23926H127.696C127.843 5.98535 128.058 5.78841 128.341 5.64844C128.627 5.50846 128.95 5.43848 129.308 5.43848C129.926 5.43848 130.393 5.59798 130.709 5.91699C131.028 6.23275 131.188 6.74056 131.188 7.44043V11H129.693V7.81152C129.693 7.41764 129.627 7.12305 129.493 6.92773C129.363 6.72917 129.156 6.62988 128.873 6.62988C128.508 6.62988 128.235 6.76009 128.053 7.02051C127.874 7.28092 127.784 7.69434 127.784 8.26074V11Z" fill="black"/>
<path d="M11 58.5488L11 63.5391H9.9502L8.13867 61.7471C7.59505 61.2165 7.21908 60.8698 7.01074 60.707C6.79915 60.5443 6.60384 60.4271 6.4248 60.3555C6.24577 60.2839 6.06022 60.248 5.86816 60.248C5.58171 60.248 5.36849 60.3278 5.22852 60.4873C5.08854 60.6436 5.01855 60.8535 5.01855 61.1172C5.01855 61.3939 5.08203 61.6624 5.20898 61.9229C5.33594 62.1833 5.5166 62.4551 5.75098 62.7383L4.7793 63.5586C4.47982 63.207 4.26823 62.9157 4.14453 62.6846C4.02083 62.4535 3.92643 62.2012 3.86133 61.9277C3.79297 61.6543 3.75879 61.3483 3.75879 61.0098C3.75879 60.5638 3.84017 60.1699 4.00293 59.8281C4.16569 59.4863 4.39355 59.221 4.68652 59.0322C4.97949 58.8434 5.31478 58.749 5.69238 58.749C6.02116 58.749 6.3304 58.8076 6.62012 58.9248C6.90658 59.0387 7.20117 59.2178 7.50391 59.4619C7.80664 59.7028 8.23796 60.1292 8.79785 60.7412L9.66211 61.6592H9.73047V58.5488H11ZM11.0977 50.0332C11.0977 51.7324 10.165 52.582 8.2998 52.582C7.37207 52.582 6.66406 52.3509 6.17578 51.8887C5.68424 51.4264 5.43848 50.764 5.43848 49.9014C5.43848 49.2699 5.56217 48.7035 5.80957 48.2021L6.96191 48.6416C6.86751 48.876 6.79102 49.0941 6.73242 49.2959C6.67057 49.4977 6.63965 49.6995 6.63965 49.9014C6.63965 50.6761 7.18978 51.0635 8.29004 51.0635C9.35775 51.0635 9.8916 50.6761 9.8916 49.9014C9.8916 49.6149 9.85417 49.3496 9.7793 49.1055C9.70117 48.8613 9.58073 48.6172 9.41797 48.373H10.6924C10.8454 48.6139 10.9512 48.8581 11.0098 49.1055C11.0684 49.3496 11.0977 49.6589 11.0977 50.0332ZM11 42.2158L11 43.7051H7.81152C7.41764 43.7051 7.12305 43.7718 6.92773 43.9053C6.72917 44.0355 6.62988 44.2422 6.62988 44.5254C6.62988 44.9062 6.76986 45.1829 7.0498 45.3555C7.32975 45.528 7.79036 45.6143 8.43164 45.6143H11V47.1035H5.54102V45.9658L6.23926 45.7656L6.23926 45.6826C5.98861 45.5361 5.79329 45.3245 5.65332 45.0479C5.51009 44.7712 5.43848 44.4538 5.43848 44.0957C5.43848 43.2786 5.7054 42.7253 6.23926 42.4355V42.3037C5.98535 42.1572 5.78841 41.9424 5.64844 41.6592C5.50846 41.3727 5.43848 41.0505 5.43848 40.6924C5.43848 40.0739 5.59798 39.6068 5.91699 39.291C6.23275 38.972 6.74056 38.8125 7.44043 38.8125H11V40.3066H7.81152C7.41764 40.3066 7.12305 40.3734 6.92773 40.5068C6.72917 40.637 6.62988 40.8438 6.62988 41.127C6.62988 41.4915 6.76009 41.765 7.02051 41.9473C7.28092 42.1263 7.69434 42.2158 8.26074 42.2158H11Z" fill="black"/>
<path d="M159.658 64.8316C159.982 65.1385 160.164 65.4975 160.205 65.9085C160.246 66.3196 160.141 66.7426 159.89 67.1776L159.911 67.1977C160.359 66.8289 160.787 66.6334 161.194 66.6111C161.599 66.5865 161.972 66.7366 162.315 67.0614C162.813 67.534 163.03 68.0832 162.966 68.7089C162.9 69.3324 162.549 69.9795 161.912 70.6503C161.379 71.2125 160.813 71.6224 160.215 71.88L159.283 70.9964C159.575 70.8919 159.867 70.7495 160.159 70.569C160.451 70.3886 160.71 70.1803 160.934 69.9441C161.276 69.5827 161.468 69.2575 161.509 68.9686C161.549 68.6797 161.434 68.4065 161.162 68.1489C160.919 67.9182 160.652 67.8539 160.363 67.956C160.073 68.058 159.722 68.3264 159.31 68.761L158.937 69.1543L158.097 68.358L158.477 67.9576C158.858 67.5561 159.083 67.2139 159.154 66.9311C159.225 66.6437 159.133 66.3791 158.878 66.1372C158.486 65.7653 158.057 65.8251 157.591 66.3164C157.429 66.4864 157.293 66.6869 157.182 66.9178C157.073 67.1464 156.986 67.4342 156.921 67.7813L155.686 67.5723C155.794 66.7774 156.158 66.0527 156.779 65.3985C157.287 64.8623 157.797 64.5425 158.308 64.4392C158.821 64.3335 159.271 64.4643 159.658 64.8316ZM169.801 62.3312C168.632 63.5642 167.371 63.539 166.017 62.2555C165.344 61.6171 164.99 60.9622 164.953 60.2909C164.915 59.6172 165.192 58.9674 165.786 58.3415C166.22 57.8833 166.7 57.5574 167.224 57.3639L167.758 58.4757C167.528 58.5808 167.323 58.6864 167.141 58.7925C166.958 58.8964 166.796 59.0216 166.657 59.168C166.124 59.7302 166.257 60.3898 167.055 61.1469C167.83 61.8816 168.484 61.9679 169.017 61.4057C169.214 61.1978 169.37 60.9796 169.483 60.7509C169.594 60.52 169.675 60.26 169.725 59.9708L170.65 60.8477C170.595 61.1278 170.504 61.3778 170.376 61.5976C170.251 61.8151 170.059 62.0596 169.801 62.3312ZM175.11 56.5916L174.085 57.6723L171.771 55.4783C171.486 55.2072 171.226 55.053 170.992 55.0154C170.759 54.9733 170.544 55.0549 170.349 55.2604C170.087 55.5368 169.999 55.8339 170.083 56.1517C170.167 56.4695 170.442 56.849 170.908 57.2903L172.771 59.0576L171.746 60.1382L167.785 56.3819L168.568 55.5564L169.213 55.8916L169.27 55.8313C169.189 55.5526 169.193 55.2646 169.281 54.9675C169.368 54.6682 169.534 54.3886 169.781 54.1288C170.343 53.536 170.917 53.3181 171.504 53.4752L171.595 53.3795C171.511 53.0985 171.516 52.8071 171.61 52.5053C171.705 52.2011 171.876 51.9191 172.122 51.6593C172.548 51.2105 172.985 50.9813 173.434 50.9717C173.883 50.9575 174.361 51.1912 174.869 51.6728L177.452 54.1221L176.423 55.2063L174.11 53.0123C173.824 52.7413 173.564 52.587 173.331 52.5494C173.097 52.5073 172.883 52.589 172.688 52.7945C172.437 53.059 172.343 53.347 172.407 53.6585C172.473 53.9676 172.711 54.317 173.122 54.7068L175.11 56.5916Z" fill="black"/>
</svg>
