<svg width="183" height="91" viewBox="0 0 183 91" fill="none" xmlns="http://www.w3.org/2000/svg">
<rect x="48" y="28" width="134" height="62" fill="black"/>
<path d="M47.6464 15.6464C47.4512 15.8417 47.4512 16.1583 47.6464 16.3536L50.8284 19.5355C51.0237 19.7308 51.3403 19.7308 51.5355 19.5355C51.7308 19.3403 51.7308 19.0237 51.5355 18.8284L48.7071 16L51.5355 13.1716C51.7308 12.9763 51.7308 12.6597 51.5355 12.4645C51.3403 12.2692 51.0237 12.2692 50.8284 12.4645L47.6464 15.6464ZM182.354 16.3536C182.549 16.1583 182.549 15.8417 182.354 15.6464L179.172 12.4645C178.976 12.2692 178.66 12.2692 178.464 12.4645C178.269 12.6597 178.269 12.9763 178.464 13.1716L181.293 16L178.464 18.8284C178.269 19.0237 178.269 19.3403 178.464 19.5355C178.66 19.7308 178.976 19.7308 179.172 19.5355L182.354 16.3536ZM48 16.5H182V15.5H48V16.5Z" fill="black"/>
<path d="M34.3536 27.6464C34.1583 27.4512 33.8417 27.4512 33.6464 27.6464L30.4645 30.8284C30.2692 31.0237 30.2692 31.3403 30.4645 31.5355C30.6597 31.7308 30.9763 31.7308 31.1716 31.5355L34 28.7071L36.8284 31.5355C37.0237 31.7308 37.3403 31.7308 37.5355 31.5355C37.7308 31.3403 37.7308 31.0237 37.5355 30.8284L34.3536 27.6464ZM33.6464 90.3536C33.8417 90.5488 34.1583 90.5488 34.3536 90.3536L37.5355 87.1716C37.7308 86.9763 37.7308 86.6597 37.5355 86.4645C37.3403 86.2692 37.0237 86.2692 36.8284 86.4645L34 89.2929L31.1716 86.4645C30.9763 86.2692 30.6597 86.2692 30.4645 86.4645C30.2692 86.6597 30.2692 86.9763 30.4645 87.1716L33.6464 90.3536ZM33.5 28L33.5 90H34.5L34.5 28H33.5Z" fill="black"/>
<path d="M86.7109 7.96777C86.7109 6.55501 87.0088 5.50358 87.6045 4.81348C88.2035 4.12337 89.0986 3.77832 90.29 3.77832C90.6969 3.77832 91.016 3.80273 91.2471 3.85156V5.05762C90.9574 4.99251 90.6709 4.95996 90.3877 4.95996C89.8701 4.95996 89.4469 5.03809 89.1182 5.19434C88.7926 5.35059 88.5485 5.58171 88.3857 5.8877C88.223 6.19368 88.127 6.62826 88.0977 7.19141H88.1611C88.4834 6.63802 88.9993 6.36133 89.709 6.36133C90.347 6.36133 90.8467 6.56152 91.208 6.96191C91.5693 7.3623 91.75 7.91569 91.75 8.62207C91.75 9.38379 91.5352 9.98763 91.1055 10.4336C90.6758 10.8763 90.0801 11.0977 89.3184 11.0977C88.791 11.0977 88.3304 10.9756 87.9365 10.7314C87.5459 10.4873 87.2432 10.1309 87.0283 9.66211C86.8167 9.19336 86.7109 8.62858 86.7109 7.96777ZM89.2891 9.8916C89.6113 9.8916 89.8587 9.78418 90.0312 9.56934C90.2038 9.35124 90.29 9.04199 90.29 8.6416C90.29 8.29329 90.2087 8.01986 90.0459 7.82129C89.8864 7.61947 89.6439 7.51855 89.3184 7.51855C89.0124 7.51855 88.7503 7.61784 88.5322 7.81641C88.3174 8.01497 88.21 8.24609 88.21 8.50977C88.21 8.89714 88.3109 9.22428 88.5127 9.49121C88.7178 9.75814 88.9766 9.8916 89.2891 9.8916ZM97.668 11.0977C95.9688 11.0977 95.1191 10.165 95.1191 8.2998C95.1191 7.37207 95.3503 6.66406 95.8125 6.17578C96.2747 5.68424 96.9372 5.43848 97.7998 5.43848C98.4313 5.43848 98.9977 5.56217 99.499 5.80957L99.0596 6.96191C98.8252 6.86751 98.6071 6.79102 98.4053 6.73242C98.2035 6.67057 98.0016 6.63965 97.7998 6.63965C97.0251 6.63965 96.6377 7.18978 96.6377 8.29004C96.6377 9.35775 97.0251 9.8916 97.7998 9.8916C98.0863 9.8916 98.3516 9.85417 98.5957 9.7793C98.8398 9.70117 99.084 9.58073 99.3281 9.41797V10.6924C99.0872 10.8454 98.8431 10.9512 98.5957 11.0098C98.3516 11.0684 98.0423 11.0977 97.668 11.0977ZM105.485 11H103.996V7.81152C103.996 7.41764 103.929 7.12305 103.796 6.92773C103.666 6.72917 103.459 6.62988 103.176 6.62988C102.795 6.62988 102.518 6.76986 102.346 7.0498C102.173 7.32975 102.087 7.79036 102.087 8.43164V11H100.598V5.54102H101.735L101.936 6.23926H102.019C102.165 5.98861 102.377 5.79329 102.653 5.65332C102.93 5.51009 103.247 5.43848 103.605 5.43848C104.423 5.43848 104.976 5.7054 105.266 6.23926H105.397C105.544 5.98535 105.759 5.78841 106.042 5.64844C106.328 5.50846 106.651 5.43848 107.009 5.43848C107.627 5.43848 108.094 5.59798 108.41 5.91699C108.729 6.23275 108.889 6.74056 108.889 7.44043V11H107.395V7.81152C107.395 7.41764 107.328 7.12305 107.194 6.92773C107.064 6.72917 106.857 6.62988 106.574 6.62988C106.21 6.62988 105.936 6.76009 105.754 7.02051C105.575 7.28092 105.485 7.69434 105.485 8.26074V11Z" fill="black"/>
<path d="M5.45801 62.0283C5.90397 62.0283 6.2832 62.1634 6.5957 62.4336C6.9082 62.7038 7.12305 63.083 7.24023 63.5713H7.26953C7.34115 62.9951 7.51693 62.5589 7.79688 62.2627C8.07357 61.9665 8.44792 61.8184 8.91992 61.8184C9.60677 61.8184 10.1423 62.0674 10.5264 62.5654C10.9072 63.0635 11.0977 63.7747 11.0977 64.6992C11.0977 65.474 10.9691 66.1608 10.7119 66.7598H9.42773C9.56771 66.4831 9.68164 66.1787 9.76953 65.8467C9.85742 65.5146 9.90137 65.1859 9.90137 64.8604C9.90137 64.3623 9.81673 63.9945 9.64746 63.7568C9.47819 63.5192 9.20638 63.4004 8.83203 63.4004C8.49674 63.4004 8.25911 63.5371 8.11914 63.8105C7.97917 64.084 7.90918 64.5202 7.90918 65.1191V65.6611H6.75195V65.1094C6.75195 64.556 6.68034 64.1523 6.53711 63.8984C6.39063 63.6413 6.1416 63.5127 5.79004 63.5127C5.24967 63.5127 4.97949 63.8512 4.97949 64.5283C4.97949 64.7627 5.01855 65.002 5.09668 65.2461C5.1748 65.487 5.3099 65.7555 5.50195 66.0518L4.46191 66.75C3.99316 66.099 3.75879 65.3226 3.75879 64.4209C3.75879 63.682 3.90853 63.0993 4.20801 62.6729C4.50749 62.2432 4.92415 62.0283 5.45801 62.0283ZM11.0977 55.832C11.0977 57.5312 10.165 58.3809 8.2998 58.3809C7.37207 58.3809 6.66406 58.1497 6.17578 57.6875C5.68424 57.2253 5.43848 56.5628 5.43848 55.7002C5.43848 55.0687 5.56217 54.5023 5.80957 54.001L6.96191 54.4404C6.86751 54.6748 6.79102 54.8929 6.73242 55.0947C6.67057 55.2965 6.63965 55.4984 6.63965 55.7002C6.63965 56.4749 7.18978 56.8623 8.29004 56.8623C9.35775 56.8623 9.8916 56.4749 9.8916 55.7002C9.8916 55.4137 9.85417 55.1484 9.7793 54.9043C9.70117 54.6602 9.58073 54.416 9.41797 54.1719H10.6924C10.8454 54.4128 10.9512 54.6569 11.0098 54.9043C11.0684 55.1484 11.0977 55.4577 11.0977 55.832ZM11 48.0146V49.5039H7.81152C7.41764 49.5039 7.12305 49.5706 6.92773 49.7041C6.72917 49.8343 6.62988 50.041 6.62988 50.3242C6.62988 50.7051 6.76986 50.9818 7.0498 51.1543C7.32975 51.3268 7.79036 51.4131 8.43164 51.4131H11V52.9023H5.54102V51.7646L6.23926 51.5645V51.4814C5.98861 51.335 5.79329 51.1234 5.65332 50.8467C5.51009 50.57 5.43848 50.2526 5.43848 49.8945C5.43848 49.0775 5.7054 48.5241 6.23926 48.2344V48.1025C5.98535 47.9561 5.78841 47.7412 5.64844 47.458C5.50846 47.1715 5.43848 46.8493 5.43848 46.4912C5.43848 45.8727 5.59798 45.4056 5.91699 45.0898C6.23275 44.7708 6.74056 44.6113 7.44043 44.6113H11V46.1055H7.81152C7.41764 46.1055 7.12305 46.1722 6.92773 46.3057C6.72917 46.4359 6.62988 46.6426 6.62988 46.9258C6.62988 47.2904 6.76009 47.5638 7.02051 47.7461C7.28092 47.9251 7.69434 48.0146 8.26074 48.0146H11Z" fill="black"/>
</svg>
