<svg width="168" height="119" viewBox="0 0 168 119" fill="none" xmlns="http://www.w3.org/2000/svg">
<path d="M3.39793 94.5L35.5097 28.5H107.49L139.602 94.5H3.39793Z" fill="black" stroke="black" stroke-width="3"/>
<path d="M29.6464 15.6464C29.4512 15.8417 29.4512 16.1583 29.6464 16.3536L32.8284 19.5355C33.0237 19.7308 33.3403 19.7308 33.5355 19.5355C33.7308 19.3403 33.7308 19.0237 33.5355 18.8284L30.7071 16L33.5355 13.1716C33.7308 12.9763 33.7308 12.6597 33.5355 12.4645C33.3403 12.2692 33.0237 12.2692 32.8284 12.4645L29.6464 15.6464ZM112.354 16.3536C112.549 16.1583 112.549 15.8417 112.354 15.6464L109.172 12.4645C108.976 12.2692 108.66 12.2692 108.464 12.4645C108.269 12.6597 108.269 12.9763 108.464 13.1716L111.293 16L108.464 18.8284C108.269 19.0237 108.269 19.3403 108.464 19.5355C108.66 19.7308 108.976 19.7308 109.172 19.5355L112.354 16.3536ZM30 16.5H112V15.5H30V16.5Z" fill="black"/>
<path d="M0.646447 105.646C0.451184 105.842 0.451184 106.158 0.646447 106.354L3.82843 109.536C4.02369 109.731 4.34027 109.731 4.53553 109.536C4.7308 109.34 4.7308 109.024 4.53553 108.828L1.70711 106L4.53553 103.172C4.7308 102.976 4.7308 102.66 4.53553 102.464C4.34027 102.269 4.02369 102.269 3.82843 102.464L0.646447 105.646ZM142.354 106.354C142.549 106.158 142.549 105.842 142.354 105.646L139.172 102.464C138.976 102.269 138.66 102.269 138.464 102.464C138.269 102.66 138.269 102.976 138.464 103.172L141.293 106L138.464 108.828C138.269 109.024 138.269 109.34 138.464 109.536C138.66 109.731 138.976 109.731 139.172 109.536L142.354 106.354ZM1 106.5H142V105.5H1V106.5Z" fill="black"/>
<path d="M156.354 30.6464C156.158 30.4512 155.842 30.4512 155.646 30.6464L152.464 33.8284C152.269 34.0237 152.269 34.3403 152.464 34.5355C152.66 34.7308 152.976 34.7308 153.172 34.5355L156 31.7071L158.828 34.5355C159.024 34.7308 159.34 34.7308 159.536 34.5355C159.731 34.3403 159.731 34.0237 159.536 33.8284L156.354 30.6464ZM155.646 100.354C155.842 100.549 156.158 100.549 156.354 100.354L159.536 97.1716C159.731 96.9763 159.731 96.6597 159.536 96.4645C159.34 96.2692 159.024 96.2692 158.828 96.4645L156 99.2929L153.172 96.4645C152.976 96.2692 152.66 96.2692 152.464 96.4645C152.269 96.6597 152.269 96.9763 152.464 97.1716L155.646 100.354ZM155.5 31V100H156.5V31H155.5Z" fill="black"/>
<path d="M66.0488 11H61.0586V9.9502L62.8506 8.13867C63.3812 7.59505 63.7279 7.21908 63.8906 7.01074C64.0534 6.79915 64.1706 6.60384 64.2422 6.4248C64.3138 6.24577 64.3496 6.06022 64.3496 5.86816C64.3496 5.58171 64.2699 5.36849 64.1104 5.22852C63.9541 5.08854 63.7441 5.01855 63.4805 5.01855C63.2038 5.01855 62.9352 5.08203 62.6748 5.20898C62.4144 5.33594 62.1426 5.5166 61.8594 5.75098L61.0391 4.7793C61.3906 4.47982 61.682 4.26823 61.9131 4.14453C62.1442 4.02083 62.3965 3.92643 62.6699 3.86133C62.9434 3.79297 63.2493 3.75879 63.5879 3.75879C64.0339 3.75879 64.4277 3.84017 64.7695 4.00293C65.1113 4.16569 65.3766 4.39355 65.5654 4.68652C65.7542 4.97949 65.8486 5.31478 65.8486 5.69238C65.8486 6.02116 65.79 6.3304 65.6729 6.62012C65.5589 6.90658 65.3799 7.20117 65.1357 7.50391C64.8949 7.80664 64.4684 8.23796 63.8564 8.79785L62.9385 9.66211V9.73047H66.0488V11ZM69.3691 11.0977C67.6699 11.0977 66.8203 10.165 66.8203 8.2998C66.8203 7.37207 67.0514 6.66406 67.5137 6.17578C67.9759 5.68424 68.6383 5.43848 69.501 5.43848C70.1325 5.43848 70.6989 5.56217 71.2002 5.80957L70.7607 6.96191C70.5264 6.86751 70.3083 6.79102 70.1064 6.73242C69.9046 6.67057 69.7028 6.63965 69.501 6.63965C68.7262 6.63965 68.3389 7.18978 68.3389 8.29004C68.3389 9.35775 68.7262 9.8916 69.501 9.8916C69.7874 9.8916 70.0527 9.85417 70.2969 9.7793C70.541 9.70117 70.7852 9.58073 71.0293 9.41797V10.6924C70.7884 10.8454 70.5443 10.9512 70.2969 11.0098C70.0527 11.0684 69.7435 11.0977 69.3691 11.0977ZM77.1865 11H75.6973V7.81152C75.6973 7.41764 75.6305 7.12305 75.4971 6.92773C75.3669 6.72917 75.1602 6.62988 74.877 6.62988C74.4961 6.62988 74.2194 6.76986 74.0469 7.0498C73.8743 7.32975 73.7881 7.79036 73.7881 8.43164V11H72.2988V5.54102H73.4365L73.6367 6.23926H73.7197C73.8662 5.98861 74.0778 5.79329 74.3545 5.65332C74.6312 5.51009 74.9486 5.43848 75.3066 5.43848C76.1237 5.43848 76.6771 5.7054 76.9668 6.23926H77.0986C77.2451 5.98535 77.46 5.78841 77.7432 5.64844C78.0296 5.50846 78.3519 5.43848 78.71 5.43848C79.3285 5.43848 79.7956 5.59798 80.1113 5.91699C80.4303 6.23275 80.5898 6.74056 80.5898 7.44043V11H79.0957V7.81152C79.0957 7.41764 79.029 7.12305 78.8955 6.92773C78.7653 6.72917 78.5586 6.62988 78.2754 6.62988C77.9108 6.62988 77.6374 6.76009 77.4551 7.02051C77.276 7.28092 77.1865 7.69434 77.1865 8.26074V11Z" fill="black"/>
<path d="M62.71 116.521H61.8506V118H60.376V116.521H57.3291V115.471L60.459 110.861H61.8506V115.349H62.71V116.521ZM60.376 115.349V114.138C60.376 113.936 60.3841 113.643 60.4004 113.259C60.4167 112.875 60.4297 112.652 60.4395 112.59H60.4004C60.2799 112.857 60.1351 113.117 59.9658 113.371L58.6572 115.349H60.376ZM65.8691 118.098C64.1699 118.098 63.3203 117.165 63.3203 115.3C63.3203 114.372 63.5514 113.664 64.0137 113.176C64.4759 112.684 65.1383 112.438 66.001 112.438C66.6325 112.438 67.1989 112.562 67.7002 112.81L67.2607 113.962C67.0264 113.868 66.8083 113.791 66.6064 113.732C66.4046 113.671 66.2028 113.64 66.001 113.64C65.2262 113.64 64.8389 114.19 64.8389 115.29C64.8389 116.358 65.2262 116.892 66.001 116.892C66.2874 116.892 66.5527 116.854 66.7969 116.779C67.041 116.701 67.2852 116.581 67.5293 116.418V117.692C67.2884 117.845 67.0443 117.951 66.7969 118.01C66.5527 118.068 66.2435 118.098 65.8691 118.098ZM73.6865 118H72.1973V114.812C72.1973 114.418 72.1305 114.123 71.9971 113.928C71.8669 113.729 71.6602 113.63 71.377 113.63C70.9961 113.63 70.7194 113.77 70.5469 114.05C70.3743 114.33 70.2881 114.79 70.2881 115.432V118H68.7988V112.541H69.9365L70.1367 113.239H70.2197C70.3662 112.989 70.5778 112.793 70.8545 112.653C71.1312 112.51 71.4486 112.438 71.8066 112.438C72.6237 112.438 73.1771 112.705 73.4668 113.239H73.5986C73.7451 112.985 73.96 112.788 74.2432 112.648C74.5296 112.508 74.8519 112.438 75.21 112.438C75.8285 112.438 76.2956 112.598 76.6113 112.917C76.9303 113.233 77.0898 113.741 77.0898 114.44V118H75.5957V114.812C75.5957 114.418 75.529 114.123 75.3955 113.928C75.2653 113.729 75.0586 113.63 74.7754 113.63C74.4108 113.63 74.1374 113.76 73.9551 114.021C73.776 114.281 73.6865 114.694 73.6865 115.261V118Z" fill="black"/>
<path d="M167 67.7109V69.2197H162.869L162.19 69.2051L161.448 69.1807C161.699 69.4313 161.863 69.6055 161.941 69.7031L162.601 70.5234L161.692 71.251L159.861 68.9512V67.7109H167ZM167.098 63.1309C167.098 64.8301 166.165 65.6797 164.3 65.6797C163.372 65.6797 162.664 65.4486 162.176 64.9863C161.684 64.5241 161.438 63.8617 161.438 62.999C161.438 62.3675 161.562 61.8011 161.81 61.2998L162.962 61.7393C162.868 61.9736 162.791 62.1917 162.732 62.3936C162.671 62.5954 162.64 62.7972 162.64 62.999C162.64 63.7738 163.19 64.1611 164.29 64.1611C165.358 64.1611 165.892 63.7738 165.892 62.999C165.892 62.7126 165.854 62.4473 165.779 62.2031C165.701 61.959 165.581 61.7148 165.418 61.4707H166.692C166.845 61.7116 166.951 61.9557 167.01 62.2031C167.068 62.4473 167.098 62.7565 167.098 63.1309ZM167 55.3135V56.8027H163.812C163.418 56.8027 163.123 56.8695 162.928 57.0029C162.729 57.1331 162.63 57.3398 162.63 57.623C162.63 58.0039 162.77 58.2806 163.05 58.4531C163.33 58.6257 163.79 58.7119 164.432 58.7119H167V60.2012H161.541V59.0635L162.239 58.8633V58.7803C161.989 58.6338 161.793 58.4222 161.653 58.1455C161.51 57.8688 161.438 57.5514 161.438 57.1934C161.438 56.3763 161.705 55.8229 162.239 55.5332V55.4014C161.985 55.2549 161.788 55.04 161.648 54.7568C161.508 54.4704 161.438 54.1481 161.438 53.79C161.438 53.1715 161.598 52.7044 161.917 52.3887C162.233 52.0697 162.741 51.9102 163.44 51.9102H167V53.4043H163.812C163.418 53.4043 163.123 53.471 162.928 53.6045C162.729 53.7347 162.63 53.9414 162.63 54.2246C162.63 54.5892 162.76 54.8626 163.021 55.0449C163.281 55.224 163.694 55.3135 164.261 55.3135H167Z" fill="black"/>
</svg>
