<svg width="152" height="145" viewBox="0 0 152 145" fill="none" xmlns="http://www.w3.org/2000/svg">
<path d="M9.64645 99.6464C9.45118 99.8417 9.45118 100.158 9.64645 100.354L12.8284 103.536C13.0237 103.731 13.3403 103.731 13.5355 103.536C13.7308 103.34 13.7308 103.024 13.5355 102.828L10.7071 100L13.5355 97.1716C13.7308 96.9763 13.7308 96.6597 13.5355 96.4645C13.3403 96.2692 13.0237 96.2692 12.8284 96.4645L9.64645 99.6464ZM144.354 100.354C144.549 100.158 144.549 99.8417 144.354 99.6464L141.172 96.4645C140.976 96.2692 140.66 96.2692 140.464 96.4645C140.269 96.6597 140.269 96.9763 140.464 97.1716L143.293 100L140.464 102.828C140.269 103.024 140.269 103.34 140.464 103.536C140.66 103.731 140.976 103.731 141.172 103.536L144.354 100.354ZM10 100.5H144V99.5H10V100.5Z" fill="black"/>
<path d="M71.0187 2.50035C70.7428 2.49 70.5107 2.70531 70.5004 2.98126L70.3317 7.4781C70.3214 7.75405 70.5367 7.98614 70.8126 7.99649C71.0886 8.00684 71.3207 7.79152 71.331 7.51558L71.4809 3.51839L75.4781 3.66828C75.7541 3.67863 75.9861 3.46332 75.9965 3.18737C76.0068 2.91142 75.7915 2.67933 75.5156 2.66898L71.0187 2.50035ZM147.981 86.4996C148.257 86.51 148.489 86.2947 148.5 86.0187L148.668 81.5219C148.679 81.2459 148.463 81.0139 148.187 81.0035C147.911 80.9932 147.679 81.2085 147.669 81.4844L147.519 85.4816L143.522 85.3317C143.246 85.3214 143.014 85.5367 143.004 85.8126C142.993 86.0886 143.208 86.3207 143.484 86.331L147.981 86.4996ZM70.6334 3.34006L147.633 86.3401L148.367 85.6599L71.3666 2.65994L70.6334 3.34006Z" fill="black"/>
<path d="M59.2123 8.00465C59.1446 7.73695 58.8727 7.57485 58.605 7.6426L54.2425 8.7466C53.9748 8.81435 53.8127 9.08629 53.8804 9.35399C53.9482 9.62169 54.2201 9.78379 54.4878 9.71604L58.3656 8.73471L59.3469 12.6125C59.4147 12.8802 59.6866 13.0423 59.9543 12.9745C60.222 12.9068 60.3841 12.6348 60.3164 12.3671L59.2123 8.00465ZM9.51593 89.9953C9.58368 90.263 9.85561 90.4251 10.1233 90.3574L14.4858 89.2534C14.7535 89.1856 14.9156 88.9137 14.8478 88.646C14.7801 88.3783 14.5082 88.2162 14.2405 88.2839L10.3627 89.2653L9.38137 85.3875C9.31362 85.1198 9.04168 84.9577 8.77398 85.0255C8.50627 85.0932 8.34418 85.3652 8.41193 85.6329L9.51593 89.9953ZM58.2981 7.87131L9.57116 89.6167L10.4301 90.1287L59.1571 8.38333L58.2981 7.87131Z" fill="black"/>
<path d="M22.7934 89.5431L133.667 87.8861L66.338 12.7634L22.7934 89.5431Z" fill="black"/>
<path d="M67.6123 114.521H66.7529V116H65.2783V114.521H62.2314V113.471L65.3613 108.861H66.7529V113.349H67.6123V114.521ZM65.2783 113.349V112.138C65.2783 111.936 65.2865 111.643 65.3027 111.259C65.319 110.875 65.332 110.652 65.3418 110.59H65.3027C65.1823 110.857 65.0374 111.117 64.8682 111.371L63.5596 113.349H65.2783ZM75.9668 116.098C74.2676 116.098 73.418 115.165 73.418 113.3C73.418 112.372 73.6491 111.664 74.1113 111.176C74.5736 110.684 75.236 110.438 76.0986 110.438C76.7301 110.438 77.2965 110.562 77.7979 110.81L77.3584 111.962C77.124 111.868 76.9059 111.791 76.7041 111.732C76.5023 111.671 76.3005 111.64 76.0986 111.64C75.3239 111.64 74.9365 112.19 74.9365 113.29C74.9365 114.358 75.3239 114.892 76.0986 114.892C76.3851 114.892 76.6504 114.854 76.8945 114.779C77.1387 114.701 77.3828 114.581 77.627 114.418V115.692C77.3861 115.845 77.1419 115.951 76.8945 116.01C76.6504 116.068 76.3411 116.098 75.9668 116.098ZM83.7842 116H82.2949V112.812C82.2949 112.418 82.2282 112.123 82.0947 111.928C81.9645 111.729 81.7578 111.63 81.4746 111.63C81.0938 111.63 80.8171 111.77 80.6445 112.05C80.472 112.33 80.3857 112.79 80.3857 113.432V116H78.8965V110.541H80.0342L80.2344 111.239H80.3174C80.4639 110.989 80.6755 110.793 80.9521 110.653C81.2288 110.51 81.5462 110.438 81.9043 110.438C82.7214 110.438 83.2747 110.705 83.5645 111.239H83.6963C83.8428 110.985 84.0576 110.788 84.3408 110.648C84.6273 110.508 84.9495 110.438 85.3076 110.438C85.9261 110.438 86.3932 110.598 86.709 110.917C87.028 111.233 87.1875 111.741 87.1875 112.44V116H85.6934V112.812C85.6934 112.418 85.6266 112.123 85.4932 111.928C85.363 111.729 85.1562 111.63 84.873 111.63C84.5085 111.63 84.235 111.76 84.0527 112.021C83.8737 112.281 83.7842 112.694 83.7842 113.261V116Z" fill="black"/>
<path d="M105.811 23.6995C106.859 22.7519 107.839 22.2675 108.75 22.2464C109.664 22.2277 110.52 22.6601 111.319 23.5437C111.592 23.8455 111.788 24.0985 111.907 24.3027L111.012 25.1117C110.866 24.8531 110.698 24.6188 110.508 24.4088C110.161 24.0249 109.819 23.7635 109.483 23.6245C109.149 23.4879 108.814 23.4618 108.477 23.5464C108.141 23.6309 107.755 23.8512 107.317 24.2072L107.36 24.2543C107.987 24.1221 108.538 24.3191 109.014 24.8454C109.442 25.3186 109.629 25.8235 109.574 26.3601C109.519 26.8966 109.23 27.4018 108.706 27.8756C108.141 28.3866 107.549 28.6323 106.93 28.6128C106.314 28.5911 105.75 28.2977 105.239 27.7328C104.885 27.3417 104.667 26.9182 104.584 26.4623C104.503 26.0088 104.564 25.5452 104.768 25.0715C104.973 24.6001 105.321 24.1428 105.811 23.6995ZM106.114 26.9021C106.33 27.1411 106.576 27.2525 106.851 27.2363C107.128 27.218 107.415 27.0745 107.712 26.806C107.971 26.5723 108.119 26.3286 108.157 26.0746C108.2 25.821 108.112 25.5734 107.894 25.332C107.688 25.1051 107.439 24.9773 107.145 24.9488C106.854 24.9226 106.61 24.998 106.415 25.1748C106.128 25.4347 105.953 25.729 105.89 26.0577C105.83 26.3889 105.904 26.6703 106.114 26.9021ZM112.582 35.8518C111.443 34.5916 111.564 33.3359 112.948 32.0847C113.636 31.4624 114.316 31.1589 114.988 31.1742C115.663 31.1873 116.289 31.5137 116.868 32.1535C117.292 32.6219 117.58 33.1249 117.733 33.6627L116.583 34.1097C116.496 33.8726 116.406 33.6595 116.314 33.4705C116.225 33.2794 116.112 33.1089 115.977 32.9592C115.457 32.3847 114.79 32.4664 113.974 33.2044C113.182 33.9206 113.046 34.566 113.565 35.1406C113.757 35.3531 113.963 35.5247 114.182 35.6556C114.404 35.7842 114.657 35.8845 114.942 35.9564L113.997 36.8113C113.722 36.7352 113.479 36.6251 113.27 36.4809C113.063 36.3392 112.834 36.1295 112.582 35.8518ZM117.899 41.5841L116.9 40.4796L119.264 38.3408C119.557 38.0766 119.73 37.8295 119.786 37.5995C119.845 37.3697 119.78 37.1498 119.59 36.9398C119.335 36.6573 119.046 36.546 118.722 36.6058C118.399 36.6657 117.999 36.9107 117.524 37.3408L115.619 39.0637L114.62 37.9591L118.669 34.2973L119.432 35.1411L119.048 35.7579L119.104 35.8195C119.388 35.76 119.675 35.7859 119.964 35.8972C120.256 36.0064 120.522 36.1937 120.762 36.4593C121.31 37.0653 121.484 37.6547 121.282 38.2277L121.37 38.3255C121.657 38.2638 121.947 38.291 122.241 38.4072C122.537 38.5257 122.805 38.7178 123.045 38.9834C123.46 39.4421 123.655 39.8955 123.63 40.3437C123.61 40.7921 123.341 41.251 122.821 41.7205L120.182 44.1082L119.179 43L121.544 40.8613C121.836 40.597 122.01 40.3499 122.065 40.1199C122.125 39.8902 122.06 39.6703 121.87 39.4602C121.626 39.1898 121.346 39.0744 121.03 39.1139C120.717 39.1558 120.35 39.3667 119.93 39.7466L117.899 41.5841Z" fill="black"/>
<path d="M18.6019 50.5815C18.9849 50.8099 19.2415 51.1201 19.3716 51.5122C19.5017 51.9043 19.492 52.34 19.3427 52.8195L19.3678 52.8345C19.7244 52.3762 20.0987 52.0916 20.4909 51.9805C20.8802 51.8677 21.2776 51.9322 21.683 52.1738C22.273 52.5255 22.6055 53.0136 22.6804 53.6381C22.7525 54.2609 22.5519 54.9694 22.0785 55.7635C21.6818 56.4289 21.2197 56.9531 20.6921 57.3359L19.589 56.6783C19.8509 56.5123 20.1046 56.3092 20.3501 56.069C20.5956 55.8288 20.8017 55.5689 20.9684 55.2893C21.2234 54.8615 21.3391 54.5022 21.3154 54.2114C21.2917 53.9207 21.119 53.6794 20.7975 53.4877C20.5095 53.3161 20.2353 53.3118 19.9751 53.475C19.7149 53.6382 19.4314 53.9771 19.1247 54.4915L18.8472 54.9571L17.8532 54.3645L18.1357 53.8906C18.419 53.4153 18.5642 53.0319 18.5712 52.7404C18.5771 52.4445 18.429 52.2066 18.127 52.0266C17.6629 51.7499 17.2574 51.9023 16.9107 52.4839C16.7907 52.6852 16.7018 52.9108 16.6439 53.1605C16.5876 53.4074 16.5662 53.7072 16.5794 54.06L15.3286 54.1272C15.2593 53.328 15.4555 52.5411 15.9172 51.7666C16.2956 51.1319 16.7226 50.7081 17.1981 50.4951C17.6754 50.2794 18.1433 50.3082 18.6019 50.5815ZM27.949 45.9156C27.0789 47.3752 25.8428 47.6274 24.2406 46.6724C23.4437 46.1973 22.9539 45.6363 22.7712 44.9892C22.5857 44.3405 22.7138 43.6456 23.1555 42.9047C23.4788 42.3622 23.8751 41.939 24.3443 41.6351L25.1091 42.6026C24.908 42.7556 24.7306 42.9038 24.577 43.0471C24.4205 43.1888 24.2906 43.3463 24.1872 43.5197C23.7905 44.1852 24.0647 44.7996 25.0098 45.363C25.9269 45.9097 26.5838 45.8503 26.9805 45.1848C27.1272 44.9388 27.2309 44.6917 27.2916 44.4437C27.3495 44.194 27.3711 43.9226 27.3563 43.6296L28.4509 44.2821C28.459 44.5674 28.4249 44.8312 28.3485 45.0737C28.2738 45.3135 28.1407 45.5941 27.949 45.9156ZM31.8679 39.1508L31.1054 40.43L28.3666 38.7974C28.0283 38.5957 27.7411 38.5022 27.505 38.5168C27.2677 38.527 27.0766 38.6537 26.9316 38.897C26.7366 39.2241 26.7151 39.5334 26.8672 39.825C27.0194 40.1165 27.3708 40.4265 27.9217 40.7548L30.1278 42.0699L29.3652 43.3491L24.6762 40.5539L25.2587 39.5767L25.961 39.7622L26.0035 39.6909C25.8632 39.4368 25.8038 39.155 25.8252 38.8457C25.8439 38.5347 25.9449 38.2254 26.1282 37.9178C26.5466 37.216 27.0592 36.8773 27.6661 36.9018L27.7336 36.7886C27.5906 36.5328 27.5314 36.2474 27.5562 35.9325C27.5826 35.6147 27.6875 35.3021 27.8709 34.9945C28.1876 34.4632 28.5638 34.1437 28.9995 34.0358C29.434 33.9235 29.9519 34.0465 30.5531 34.4048L33.6106 36.2275L32.8455 37.5109L30.1067 35.8783C29.7684 35.6766 29.4812 35.5831 29.2451 35.5977C29.0079 35.6079 28.8167 35.7346 28.6717 35.9778C28.485 36.291 28.4569 36.5925 28.5872 36.8825C28.7192 37.1696 29.0285 37.4582 29.515 37.7482L31.8679 39.1508Z" fill="black"/>
</svg>
