<svg width="135" height="133" viewBox="0 0 135 133" fill="none" xmlns="http://www.w3.org/2000/svg">
<path d="M34.5 14.3725L116.568 103.043H34.5V14.3725Z" fill="black" stroke="black" stroke-width="3"/>
<path d="M20.361 10.1975C20.1699 9.99813 19.8534 9.9914 19.654 10.1825L16.4051 13.296C16.2057 13.4871 16.199 13.8036 16.3901 14.003C16.5811 14.2024 16.8976 14.2091 17.097 14.018L19.985 11.2504L22.7526 14.1384C22.9436 14.3377 23.2602 14.3445 23.4595 14.1534C23.6589 13.9623 23.6656 13.6458 23.4746 13.4465L20.361 10.1975ZM17.639 104.889C17.8301 105.089 18.1466 105.096 18.346 104.904L21.5949 101.791C21.7943 101.6 21.801 101.283 21.6099 101.084C21.4189 100.885 21.1024 100.878 20.903 101.069L18.015 103.837L15.2474 100.949C15.0564 100.749 14.7398 100.742 14.5405 100.934C14.3411 101.125 14.3344 101.441 14.5254 101.64L17.639 104.889ZM19.5001 10.5328L17.5001 104.533L18.4999 104.554L20.4999 10.5541L19.5001 10.5328Z" fill="black"/>
<path d="M32.6464 114.19C32.4512 114.385 32.4512 114.702 32.6464 114.897L35.8284 118.079C36.0237 118.274 36.3403 118.274 36.5355 118.079C36.7308 117.884 36.7308 117.567 36.5355 117.372L33.7071 114.543L36.5355 111.715C36.7308 111.52 36.7308 111.203 36.5355 111.008C36.3403 110.813 36.0237 110.813 35.8284 111.008L32.6464 114.19ZM120.354 114.897C120.549 114.702 120.549 114.385 120.354 114.19L117.172 111.008C116.976 110.813 116.66 110.813 116.464 111.008C116.269 111.203 116.269 111.52 116.464 111.715L119.293 114.543L116.464 117.372C116.269 117.567 116.269 117.884 116.464 118.079C116.66 118.274 116.976 118.274 117.172 118.079L120.354 114.897ZM33 115.043L120 115.043L120 114.043L33 114.043L33 115.043Z" fill="black"/>
<path d="M9.52051 64.3335V65.1929H11V66.6675H9.52051V69.7144H8.4707L3.86133 66.5845L3.86133 65.1929H8.34863V64.3335H9.52051ZM8.34863 66.6675H7.1377C6.93587 66.6675 6.6429 66.6593 6.25879 66.6431C5.87467 66.6268 5.65169 66.6138 5.58984 66.604V66.6431C5.85677 66.7635 6.11719 66.9084 6.37109 67.0776L8.34863 68.3862V66.6675ZM11.0977 61.1743C11.0977 62.8735 10.165 63.7231 8.2998 63.7231C7.37207 63.7231 6.66406 63.492 6.17578 63.0298C5.68424 62.5675 5.43848 61.9051 5.43848 61.0425C5.43848 60.411 5.56217 59.8446 5.80957 59.3433L6.96191 59.7827C6.86751 60.0171 6.79102 60.2352 6.73242 60.437C6.67057 60.6388 6.63965 60.8407 6.63965 61.0425C6.63965 61.8172 7.18978 62.2046 8.29004 62.2046C9.35775 62.2046 9.8916 61.8172 9.8916 61.0425C9.8916 60.756 9.85417 60.4907 9.7793 60.2466C9.70117 60.0024 9.58073 59.7583 9.41797 59.5142H10.6924C10.8454 59.755 10.9512 59.9992 11.0098 60.2466C11.0684 60.4907 11.0977 60.8 11.0977 61.1743ZM11 53.3569V54.8462H7.81152C7.41764 54.8462 7.12305 54.9129 6.92773 55.0464C6.72917 55.1766 6.62988 55.3833 6.62988 55.6665C6.62988 56.0474 6.76986 56.3241 7.0498 56.4966C7.32975 56.6691 7.79036 56.7554 8.43164 56.7554H11V58.2446H5.54102V57.1069L6.23926 56.9067V56.8237C5.98861 56.6772 5.79329 56.4657 5.65332 56.189C5.51009 55.9123 5.43848 55.5949 5.43848 55.2368C5.43848 54.4198 5.7054 53.8664 6.23926 53.5767V53.4448C5.98535 53.2983 5.78841 53.0835 5.64844 52.8003C5.50846 52.5138 5.43848 52.1916 5.43848 51.8335C5.43848 51.215 5.59798 50.7479 5.91699 50.4321C6.23275 50.1131 6.74056 49.9536 7.44043 49.9536H11V51.4478H7.81152C7.41764 51.4478 7.12305 51.5145 6.92773 51.6479C6.72917 51.7782 6.62988 51.9849 6.62988 52.2681C6.62988 52.6326 6.76009 52.9061 7.02051 53.0884C7.28092 53.2674 7.69434 53.3569 8.26074 53.3569H11Z" fill="black"/>
<path d="M80.2705 120.001C80.2705 120.447 80.1354 120.827 79.8652 121.139C79.5951 121.452 79.2158 121.667 78.7275 121.784V121.813C79.3037 121.885 79.7399 122.06 80.0361 122.34C80.3324 122.617 80.4805 122.991 80.4805 123.463C80.4805 124.15 80.2314 124.686 79.7334 125.07C79.2354 125.451 78.5241 125.641 77.5996 125.641C76.8249 125.641 76.138 125.513 75.5391 125.255V123.971C75.8158 124.111 76.1201 124.225 76.4521 124.313C76.7842 124.401 77.113 124.445 77.4385 124.445C77.9365 124.445 78.3044 124.36 78.542 124.191C78.7796 124.022 78.8984 123.75 78.8984 123.375C78.8984 123.04 78.7617 122.803 78.4883 122.663C78.2148 122.523 77.7786 122.453 77.1797 122.453H76.6377V121.295H77.1895C77.7428 121.295 78.1465 121.224 78.4004 121.081C78.6576 120.934 78.7861 120.685 78.7861 120.333C78.7861 119.793 78.4476 119.523 77.7705 119.523C77.5361 119.523 77.2969 119.562 77.0527 119.64C76.8118 119.718 76.5433 119.853 76.2471 120.045L75.5488 119.005C76.1999 118.537 76.9762 118.302 77.8779 118.302C78.6169 118.302 79.1995 118.452 79.626 118.751C80.0557 119.051 80.2705 119.468 80.2705 120.001ZM83.8691 125.641C82.1699 125.641 81.3203 124.708 81.3203 122.843C81.3203 121.916 81.5514 121.208 82.0137 120.719C82.4759 120.228 83.1383 119.982 84.001 119.982C84.6325 119.982 85.1989 120.106 85.7002 120.353L85.2607 121.505C85.0264 121.411 84.8083 121.334 84.6064 121.276C84.4046 121.214 84.2028 121.183 84.001 121.183C83.2262 121.183 82.8389 121.733 82.8389 122.833C82.8389 123.901 83.2262 124.435 84.001 124.435C84.2874 124.435 84.5527 124.398 84.7969 124.323C85.041 124.245 85.2852 124.124 85.5293 123.961V125.236C85.2884 125.389 85.0443 125.495 84.7969 125.553C84.5527 125.612 84.2435 125.641 83.8691 125.641ZM91.6865 125.543H90.1973V122.355C90.1973 121.961 90.1305 121.667 89.9971 121.471C89.8669 121.273 89.6602 121.173 89.377 121.173C88.9961 121.173 88.7194 121.313 88.5469 121.593C88.3743 121.873 88.2881 122.334 88.2881 122.975V125.543H86.7988V120.084H87.9365L88.1367 120.783H88.2197C88.3662 120.532 88.5778 120.337 88.8545 120.197C89.1312 120.054 89.4486 119.982 89.8066 119.982C90.6237 119.982 91.1771 120.249 91.4668 120.783H91.5986C91.7451 120.529 91.96 120.332 92.2432 120.192C92.5296 120.052 92.8519 119.982 93.21 119.982C93.8285 119.982 94.2956 120.141 94.6113 120.46C94.9303 120.776 95.0898 121.284 95.0898 121.984V125.543H93.5957V122.355C93.5957 121.961 93.529 121.667 93.3955 121.471C93.2653 121.273 93.0586 121.173 92.7754 121.173C92.4108 121.173 92.1374 121.304 91.9551 121.564C91.776 121.824 91.6865 122.238 91.6865 122.804V125.543Z" fill="black"/>
<path d="M40.744 2.5002C40.468 2.49237 40.2379 2.70978 40.2301 2.98582L40.1024 7.484C40.0946 7.76004 40.312 7.99015 40.588 7.99799C40.864 8.00582 41.0942 7.7884 41.102 7.51237L41.2155 3.51398L45.2139 3.62746C45.4899 3.63529 45.72 3.41787 45.7278 3.14184C45.7357 2.86581 45.5183 2.63569 45.2422 2.62786L40.744 2.5002ZM130.986 99.0433C131.262 99.0511 131.492 98.8337 131.5 98.5576L131.627 94.0595C131.635 93.7834 131.418 93.5533 131.142 93.5455C130.866 93.5376 130.636 93.7551 130.628 94.0311L130.514 98.0295L126.516 97.916C126.24 97.9082 126.01 98.1256 126.002 98.4016C125.994 98.6777 126.212 98.9078 126.488 98.9156L130.986 99.0433ZM40.3664 3.34338L130.637 98.8868L131.363 98.2001L41.0933 2.65662L40.3664 3.34338Z" fill="black"/>
<path d="M88.3196 39.4388C88.7935 39.9405 89.0294 40.4722 89.0272 41.034C89.0273 41.5982 88.7824 42.1116 88.2926 42.5743C87.7128 43.122 87.098 43.3647 86.4481 43.3025C85.7982 43.2402 85.1592 42.8766 84.5311 42.2117C83.9856 41.6343 83.6387 41.0798 83.4904 40.5483L84.4381 39.653C84.5153 39.9339 84.6393 40.2287 84.8101 40.5375C84.9833 40.8441 85.175 41.1086 85.3851 41.331C86.0177 42.0007 86.6085 42.0762 87.1575 41.5576C87.6805 41.0636 87.6145 40.4699 86.9595 39.7766C86.841 39.6512 86.6972 39.525 86.5281 39.3982C86.3614 39.2691 86.2191 39.1706 86.1013 39.1028L85.9232 38.4449L88.752 36.1421L91.4109 38.9568L90.481 39.8354L88.7307 37.9825L87.6214 38.849L87.7636 38.9498C87.9331 39.0628 88.1185 39.2258 88.3196 39.4388ZM88.8565 46.7905C87.6897 45.5553 87.7842 44.2973 89.1401 43.0164C89.8145 42.3793 90.4879 42.0611 91.1602 42.0618C91.835 42.0603 92.4685 42.3731 93.0609 43.0002C93.4946 43.4592 93.7936 43.9559 93.958 44.4902L92.8186 44.9621C92.7262 44.7269 92.6321 44.5158 92.5361 44.3289C92.4424 44.1397 92.3263 43.9717 92.1877 43.825C91.6557 43.2618 90.9898 43.358 90.19 44.1136C89.4138 44.8468 89.2918 45.495 89.8238 46.0581C90.0205 46.2664 90.2299 46.4335 90.452 46.5596C90.6764 46.6834 90.9316 46.7782 91.2176 46.8439L90.2912 47.719C90.0145 47.649 89.77 47.5442 89.5575 47.4046C89.3472 47.2673 89.1136 47.0626 88.8565 46.7905ZM94.2958 52.4062L93.2731 51.3236L95.5909 49.134C95.8772 48.8636 96.0455 48.6127 96.0959 48.3816C96.1508 48.1506 96.081 47.9322 95.8866 47.7263C95.625 47.4494 95.3333 47.3444 95.0113 47.4112C94.6893 47.4781 94.2952 47.7317 93.8291 48.172L91.962 49.9357L90.9393 48.8531L94.9077 45.1044L95.6889 45.9315L95.3188 46.5565L95.3758 46.6168C95.6586 46.5512 95.9459 46.5709 96.2377 46.6759C96.5318 46.7787 96.8018 46.9602 97.0477 47.2205C97.6088 47.8144 97.7947 48.4 97.6056 48.9772L97.6962 49.0731C97.9813 49.0052 98.272 49.0261 98.5682 49.1359C98.8667 49.248 99.1389 49.4342 99.3848 49.6945C99.8095 50.1441 100.014 50.5932 99.9993 51.0418C99.9888 51.4905 99.7292 51.9552 99.2204 52.4358L96.6328 54.8802L95.6068 53.794L97.9246 51.6045C98.2109 51.334 98.3793 51.0832 98.4296 50.852C98.4845 50.621 98.4148 50.4026 98.2203 50.1967C97.9699 49.9317 97.6875 49.8223 97.373 49.8687C97.0608 49.9173 96.6988 50.1362 96.287 50.5251L94.2958 52.4062Z" fill="black"/>
</svg>
