<svg width="128" height="147" viewBox="0 0 128 147" fill="none" xmlns="http://www.w3.org/2000/svg">
<path d="M15.3559 109L59 4.88014L102.644 109H15.3559Z" fill="black" stroke="black" stroke-width="3"/>
<path d="M9.64645 117.646C9.45118 117.842 9.45118 118.158 9.64645 118.354L12.8284 121.536C13.0237 121.731 13.3403 121.731 13.5355 121.536C13.7308 121.34 13.7308 121.024 13.5355 120.828L10.7071 118L13.5355 115.172C13.7308 114.976 13.7308 114.66 13.5355 114.464C13.3403 114.269 13.0237 114.269 12.8284 114.464L9.64645 117.646ZM107.354 118.354C107.549 118.158 107.549 117.842 107.354 117.646L104.172 114.464C103.976 114.269 103.66 114.269 103.464 114.464C103.269 114.66 103.269 114.976 103.464 115.172L106.293 118L103.464 120.828C103.269 121.024 103.269 121.34 103.464 121.536C103.66 121.731 103.976 121.731 104.172 121.536L107.354 118.354ZM10 118.5H107V117.5H10V118.5Z" fill="black"/>
<path d="M112.354 5.64645C112.158 5.45118 111.842 5.45118 111.646 5.64645L108.464 8.82843C108.269 9.02369 108.269 9.34027 108.464 9.53553C108.66 9.7308 108.976 9.7308 109.172 9.53553L112 6.70711L114.828 9.53553C115.024 9.7308 115.34 9.7308 115.536 9.53553C115.731 9.34027 115.731 9.02369 115.536 8.82843L112.354 5.64645ZM111.646 118.354C111.842 118.549 112.158 118.549 112.354 118.354L115.536 115.172C115.731 114.976 115.731 114.66 115.536 114.464C115.34 114.269 115.024 114.269 114.828 114.464L112 117.293L109.172 114.464C108.976 114.269 108.66 114.269 108.464 114.464C108.269 114.66 108.269 114.976 108.464 115.172L111.646 118.354ZM111.5 6V118H112.5V6H111.5Z" fill="black"/>
<path d="M48.9425 1.80583C48.8353 1.55136 48.542 1.432 48.2876 1.53924L44.1408 3.28681C43.8863 3.39405 43.7669 3.68727 43.8742 3.94174C43.9814 4.19621 44.2746 4.31556 44.5291 4.20832L48.2152 2.65493L49.7686 6.34098C49.8758 6.59545 50.169 6.7148 50.4235 6.60756C50.678 6.50033 50.7973 6.2071 50.6901 5.95263L48.9425 1.80583ZM3.53924 111.475C3.64648 111.73 3.9397 111.849 4.19417 111.742L8.34098 109.994C8.59545 109.887 8.7148 109.594 8.60756 109.339C8.50032 109.085 8.2071 108.966 7.95263 109.073L4.26658 110.626L2.71319 106.94C2.60595 106.686 2.31273 106.566 2.05826 106.674C1.80379 106.781 1.68444 107.074 1.79168 107.329L3.53924 111.475ZM48.0186 1.8115L3.53689 111.093L4.4631 111.47L48.9449 2.1885L48.0186 1.8115Z" fill="black"/>
<path d="M15.7193 64.1703C14.4108 63.6376 13.5493 62.9654 13.1347 62.1534C12.7214 61.3385 12.7393 60.3793 13.1885 59.2758C13.3419 58.8989 13.4848 58.6126 13.6171 58.417L14.7342 58.8717C14.5647 59.1155 14.4265 59.3685 14.3197 59.6308C14.1246 60.1102 14.0374 60.5316 14.0582 60.8951C14.0801 61.2555 14.2022 61.5687 14.4242 61.8348C14.6462 62.101 15.0125 62.3537 15.5231 62.5932L15.547 62.5344C15.156 62.0273 15.0942 61.4451 15.3618 60.7878C15.6023 60.1969 15.9762 59.8096 16.4832 59.6259C16.9903 59.4422 17.571 59.4835 18.2252 59.7498C18.9307 60.037 19.409 60.4637 19.66 61.0298C19.9081 61.5947 19.8885 62.2299 19.6013 62.9354C19.4025 63.4238 19.1157 63.8044 18.7411 64.0772C18.3677 64.3469 17.9234 64.4929 17.4083 64.5152C16.8943 64.5344 16.3313 64.4195 15.7193 64.1703ZM18.4732 62.5078C18.5947 62.2093 18.5885 61.9397 18.4545 61.6989C18.3176 61.4568 18.0637 61.2604 17.6928 61.1094C17.3702 60.9781 17.0863 60.9504 16.841 61.0262C16.594 61.0979 16.4091 61.2844 16.2863 61.5859C16.171 61.8693 16.1641 62.1495 16.2658 62.4264C16.3687 62.7002 16.5423 62.8868 16.7865 62.9863C17.1453 63.1323 17.4863 63.1622 17.8096 63.0759C18.1342 62.9866 18.3554 62.7972 18.4732 62.5078ZM21.77 57.6079C21.1293 59.1817 19.9452 59.617 18.2176 58.9138C17.3583 58.564 16.7897 58.083 16.5118 57.4707C16.2308 56.8573 16.2529 56.1511 16.5781 55.3521C16.8162 54.7672 17.1444 54.2892 17.5625 53.9182L18.4641 54.7597C18.2883 54.9412 18.1352 55.1144 18.0049 55.2792C17.8715 55.4428 17.7668 55.6181 17.6907 55.805C17.3986 56.5226 17.762 57.0888 18.7811 57.5036C19.77 57.9062 20.4105 57.7487 20.7026 57.0311C20.8106 56.7658 20.876 56.5059 20.8987 56.2516C20.9184 55.996 20.8989 55.7245 20.8402 55.437L22.0205 55.9175C22.0714 56.1983 22.0774 56.4643 22.0383 56.7155C22.0006 56.9637 21.9111 57.2612 21.77 57.6079ZM24.6269 50.3306L24.0654 51.71L21.1123 50.5078C20.7474 50.3593 20.4494 50.3101 20.2182 50.36C19.9852 50.4058 19.8153 50.5598 19.7085 50.8221C19.5649 51.1748 19.5903 51.4839 19.7845 51.7492C19.9787 52.0146 20.3728 52.2681 20.9668 52.5099L23.3456 53.4783L22.7841 54.8576L17.728 52.7994L18.1569 51.7457L18.8791 51.8235L18.9104 51.7466C18.7335 51.5165 18.6324 51.2468 18.6071 50.9378C18.5787 50.6275 18.6321 50.3066 18.7671 49.9749C19.0751 49.2182 19.531 48.8062 20.1347 48.7392L20.1844 48.6171C20.0044 48.3857 19.903 48.1124 19.8802 47.7974C19.8585 47.4793 19.9152 47.1544 20.0502 46.8228C20.2834 46.2499 20.6073 45.8774 21.0218 45.7052C21.4345 45.5288 21.965 45.5725 22.6132 45.8364L25.9101 47.1785L25.3467 48.5624L22.3936 47.3602C22.0288 47.2117 21.7308 47.1624 21.4995 47.2124C21.2665 47.2581 21.0966 47.4122 20.9899 47.6745C20.8524 48.0121 20.8699 48.3145 21.0424 48.5815C21.2161 48.8455 21.5652 49.0843 22.0898 49.2979L24.6269 50.3306Z" fill="black"/>
<path d="M54.21 130.521H53.3506V132H51.876V130.521H48.8291V129.471L51.959 124.861H53.3506V129.349H54.21V130.521ZM51.876 129.349V128.138C51.876 127.936 51.8841 127.643 51.9004 127.259C51.9167 126.875 51.9297 126.652 51.9395 126.59H51.9004C51.7799 126.857 51.6351 127.117 51.4658 127.371L50.1572 129.349H51.876ZM57.3691 132.098C55.6699 132.098 54.8203 131.165 54.8203 129.3C54.8203 128.372 55.0514 127.664 55.5137 127.176C55.9759 126.684 56.6383 126.438 57.501 126.438C58.1325 126.438 58.6989 126.562 59.2002 126.81L58.7607 127.962C58.5264 127.868 58.3083 127.791 58.1064 127.732C57.9046 127.671 57.7028 127.64 57.501 127.64C56.7262 127.64 56.3389 128.19 56.3389 129.29C56.3389 130.358 56.7262 130.892 57.501 130.892C57.7874 130.892 58.0527 130.854 58.2969 130.779C58.541 130.701 58.7852 130.581 59.0293 130.418V131.692C58.7884 131.845 58.5443 131.951 58.2969 132.01C58.0527 132.068 57.7435 132.098 57.3691 132.098ZM65.1865 132H63.6973V128.812C63.6973 128.418 63.6305 128.123 63.4971 127.928C63.3669 127.729 63.1602 127.63 62.877 127.63C62.4961 127.63 62.2194 127.77 62.0469 128.05C61.8743 128.33 61.7881 128.79 61.7881 129.432V132H60.2988V126.541H61.4365L61.6367 127.239H61.7197C61.8662 126.989 62.0778 126.793 62.3545 126.653C62.6312 126.51 62.9486 126.438 63.3066 126.438C64.1237 126.438 64.6771 126.705 64.9668 127.239H65.0986C65.2451 126.985 65.46 126.788 65.7432 126.648C66.0296 126.508 66.3519 126.438 66.71 126.438C67.3285 126.438 67.7956 126.598 68.1113 126.917C68.4303 127.233 68.5898 127.741 68.5898 128.44V132H67.0957V128.812C67.0957 128.418 67.029 128.123 66.8955 127.928C66.7653 127.729 66.5586 127.63 66.2754 127.63C65.9108 127.63 65.6374 127.76 65.4551 128.021C65.276 128.281 65.1865 128.694 65.1865 129.261V132Z" fill="black"/>
<path d="M121.561 56.6562C121.561 57.3464 121.367 57.8949 120.979 58.3018C120.592 58.7119 120.062 58.917 119.388 58.917C118.59 58.917 117.977 58.6712 117.547 58.1797C117.117 57.6882 116.902 56.985 116.902 56.0703C116.902 55.276 117.031 54.6348 117.288 54.1465H118.592C118.455 54.4036 118.343 54.7031 118.255 55.0449C118.17 55.3867 118.128 55.7106 118.128 56.0166C118.128 56.9378 118.506 57.3984 119.261 57.3984C119.98 57.3984 120.34 56.9215 120.34 55.9678C120.34 55.7952 120.322 55.6048 120.286 55.3965C120.254 55.1882 120.218 55.0189 120.179 54.8887L120.501 54.2881L124.139 54.5566V58.4287H122.859V55.8799L121.458 55.748L121.492 55.9189C121.538 56.1175 121.561 56.3633 121.561 56.6562ZM116.902 62.3691C116.902 60.6699 117.835 59.8203 119.7 59.8203C120.628 59.8203 121.336 60.0514 121.824 60.5137C122.316 60.9759 122.562 61.6383 122.562 62.501C122.562 63.1325 122.438 63.6989 122.19 64.2002L121.038 63.7607C121.132 63.5264 121.209 63.3083 121.268 63.1064C121.329 62.9046 121.36 62.7028 121.36 62.501C121.36 61.7262 120.81 61.3389 119.71 61.3389C118.642 61.3389 118.108 61.7262 118.108 62.501C118.108 62.7874 118.146 63.0527 118.221 63.2969C118.299 63.541 118.419 63.7852 118.582 64.0293H117.308C117.155 63.7884 117.049 63.5443 116.99 63.2969C116.932 63.0527 116.902 62.7435 116.902 62.3691ZM117 70.1865V68.6973H120.188C120.582 68.6973 120.877 68.6305 121.072 68.4971C121.271 68.3669 121.37 68.1602 121.37 67.877C121.37 67.4961 121.23 67.2194 120.95 67.0469C120.67 66.8743 120.21 66.7881 119.568 66.7881H117V65.2988H122.459V66.4365L121.761 66.6367V66.7197C122.011 66.8662 122.207 67.0778 122.347 67.3545C122.49 67.6312 122.562 67.9486 122.562 68.3066C122.562 69.1237 122.295 69.6771 121.761 69.9668V70.0986C122.015 70.2451 122.212 70.46 122.352 70.7432C122.492 71.0296 122.562 71.3519 122.562 71.71C122.562 72.3285 122.402 72.7956 122.083 73.1113C121.767 73.4303 121.259 73.5898 120.56 73.5898H117V72.0957H120.188C120.582 72.0957 120.877 72.029 121.072 71.8955C121.271 71.7653 121.37 71.5586 121.37 71.2754C121.37 70.9108 121.24 70.6374 120.979 70.4551C120.719 70.276 120.306 70.1865 119.739 70.1865H117Z" fill="black"/>
</svg>
